STARTFONT 2.1
FONT -FontForge-Good Times Rg-Book-R-Normal--143-1370-75-75-P-1062-ISO10646-1
SIZE 137 75 75
FONTBOUNDINGBOX 285 168 -40 -29
COMMENT "Generated by fontforge, http://fontforge.sourceforge.net"
COMMENT "(c) 1998-2012 Typodermic Fonts Inc. See attached license agreement. If agreement is missing visit typodermicfonts.com for more info. Languages by Chikako Larabie"
STARTPROPERTIES 39
FOUNDRY "FontForge"
FAMILY_NAME "Good Times Rg"
WEIGHT_NAME "Book"
SLANT "R"
SETWIDTH_NAME "Normal"
ADD_STYLE_NAME ""
PIXEL_SIZE 143
POINT_SIZE 1370
RESOLUTION_X 75
RESOLUTION_Y 75
SPACING "P"
AVERAGE_WIDTH 1062
CHARSET_REGISTRY "ISO10646"
CHARSET_ENCODING "1"
FONTNAME_REGISTRY ""
CHARSET_COLLECTIONS "ISO8859-2 ISO8859-9 ISO8859-4 ISO10646-1"
FONT_NAME "GoodTimesRg-Regular"
FACE_NAME "GoodTimesRg-Regular"
COPYRIGHT "(c) 1998-2012 Typodermic Fonts Inc. See attached license agreement. If agreement is missing visit typodermicfonts.com for more info. Languages by Chikako Larabie"
FONT_VERSION "4.001"
FONT_ASCENT 114
FONT_DESCENT 29
UNDERLINE_POSITION -20
UNDERLINE_THICKNESS 3
X_HEIGHT 103
CAP_HEIGHT 103
RAW_ASCENT 799
RAW_DESCENT 201
NORM_SPACE 42
RELATIVE_WEIGHT 40
RELATIVE_SETWIDTH 50
SUPERSCRIPT_X 0
SUPERSCRIPT_Y 42
SUPERSCRIPT_SIZE 42
SUBSCRIPT_X 0
SUBSCRIPT_Y 0
SUBSCRIPT_SIZE 42
AVG_LOWERCASE_WIDTH 1218
AVG_UPPERCASE_WIDTH 1213
ENDPROPERTIES
CHARS 372
STARTCHAR space
ENCODING 32
SWIDTH 294 0
DWIDTH 42 0
BBX 1 1 0 0
BITMAP
00
ENDCHAR
STARTCHAR exclam
ENCODING 33
SWIDTH 298 0
DWIDTH 43 0
BBX 19 104 12 0
BITMAP
7FFFC0
7FFFC0
7FFFC0
7FFFC0
7FFFC0
7FFFC0
7FFFC0
7FFFC0
7FFFC0
7FFFC0
7FFFC0
7FFFC0
7FFFC0
7FFFC0
7FFFC0
7FFFC0
7FFFC0
7FFFC0
7FFFC0
7FFFC0
7FFFC0
7FFFC0
7FFFC0
7FFFC0
7FFFC0
7FFFC0
7FFFC0
7FFFC0
7FFFC0
7FFFC0
7FFFC0
7FFFC0
7FFFC0
7FFFC0
7FFFC0
7FFFC0
7FFFC0
7FFFC0
7FFFC0
7FFFC0
7FFFC0
7FFFC0
7FFFC0
7FFFC0
7FFFC0
7FFFC0
7FFFC0
7FFFC0
7FFFC0
7FFFC0
7FFFC0
7FFFC0
7FFFC0
7FFFC0
7FFFC0
7FFFC0
7FFFC0
7FFFC0
7FFFC0
7FFFC0
7FFFC0
7FFFC0
7FFFC0
7FFFC0
7FFFC0
7FFFC0
7FFFC0
7FFFC0
7FFFC0
7FFFC0
7FFFC0
000000
000000
000000
000000
000000
000000
000000
000000
000000
000000
000000
000000
000000
000000
03F800
0FFE00
1FFF00
3FFF80
7FFFC0
7FFFE0
FFFFE0
FFFFE0
FFFFE0
FFFFE0
FFFFE0
FFFFE0
FFFFE0
7FFFE0
7FFFC0
3FFF80
1FFF00
0FFE00
03F800
ENDCHAR
STARTCHAR quotedbl
ENCODING 34
SWIDTH 452 0
DWIDTH 65 0
BBX 45 37 10 67
BITMAP
FFFFC03FFFF8
FFFFC01FFFF8
FFFFC01FFFF8
FFFFC01FFFF8
FFFFC01FFFF8
FFFFC01FFFF0
FFFFC01FFFF0
FFFFC01FFFF0
FFFF801FFFF0
7FFF801FFFF0
7FFF801FFFF0
7FFF800FFFF0
7FFF800FFFF0
7FFF800FFFF0
7FFF800FFFF0
7FFF800FFFF0
7FFF800FFFE0
7FFF800FFFE0
7FFF800FFFE0
7FFF000FFFE0
3FFF000FFFE0
3FFF000FFFE0
3FFF0007FFE0
3FFF0007FFE0
3FFF0007FFE0
3FFF0007FFE0
3FFF0007FFE0
3FFF0007FFC0
3FFF0007FFC0
3FFF0007FFC0
3FFE0007FFC0
1FFE0007FFC0
1FFE0007FFC0
1FFE0003FFC0
1FFE0003FFC0
1FFE0003FFC0
1FFE0003FFC0
ENDCHAR
STARTCHAR numbersign
ENCODING 35
SWIDTH 697 0
DWIDTH 100 0
BBX 88 104 6 0
BITMAP
000000000FFF800003FFE0
000000000FFF800003FFE0
000000001FFF000007FFC0
000000001FFF000007FFC0
000000001FFF000007FFC0
000000003FFE000007FF80
000000003FFE00000FFF80
000000003FFE00000FFF80
000000003FFE00000FFF80
000000007FFC00001FFF00
000000007FFC00001FFF00
000000007FFC00001FFF00
00000000FFF800003FFE00
00000000FFF800003FFE00
00000000FFF800003FFE00
00000001FFF000003FFC00
00000001FFF000007FFC00
00000001FFF000007FFC00
00000001FFF000007FFC00
00000003FFE00000FFF800
00000003FFE00000FFF800
00000003FFE00000FFF800
00000007FFC00000FFF000
00000007FFC00001FFF000
00000007FFC00001FFF000
0000000FFF800001FFF000
0000000FFF800003FFE000
001FFFFFFFFFFFFFFFFFFF
001FFFFFFFFFFFFFFFFFFF
001FFFFFFFFFFFFFFFFFFF
001FFFFFFFFFFFFFFFFFFF
001FFFFFFFFFFFFFFFFFFF
001FFFFFFFFFFFFFFFFFFF
001FFFFFFFFFFFFFFFFFFF
001FFFFFFFFFFFFFFFFFFF
001FFFFFFFFFFFFFFFFFFF
001FFFFFFFFFFFFFFFFFFF
001FFFFFFFFFFFFFFFFFFF
001FFFFFFFFFFFFFFFFFFF
000000FFF800003FFE0000
000000FFF800003FFE0000
000000FFF000003FFE0000
000001FFF000007FFC0000
000001FFF000007FFC0000
000001FFF000007FFC0000
000003FFE000007FF80000
000003FFE00000FFF80000
000003FFE00000FFF80000
000007FFC00000FFF80000
000007FFC00001FFF00000
000007FFC00001FFF00000
000007FF800001FFF00000
00000FFF800003FFE00000
00000FFF800003FFE00000
00000FFF800003FFE00000
00001FFF000003FFC00000
00001FFF000007FFC00000
00001FFF000007FFC00000
00001FFE000007FFC00000
00003FFE00000FFF800000
00003FFE00000FFF800000
00003FFE00000FFF800000
00007FFC00000FFF000000
00007FFC00001FFF000000
FFFFFFFFFFFFFFFFFFF800
FFFFFFFFFFFFFFFFFFF800
FFFFFFFFFFFFFFFFFFF800
FFFFFFFFFFFFFFFFFFF800
FFFFFFFFFFFFFFFFFFF800
FFFFFFFFFFFFFFFFFFF800
FFFFFFFFFFFFFFFFFFF800
FFFFFFFFFFFFFFFFFFF800
FFFFFFFFFFFFFFFFFFF800
FFFFFFFFFFFFFFFFFFF800
FFFFFFFFFFFFFFFFFFF800
FFFFFFFFFFFFFFFFFFF800
0007FFC00001FFF0000000
0007FFC00001FFF0000000
000FFF800001FFE0000000
000FFF800003FFE0000000
000FFF800003FFE0000000
000FFF000003FFE0000000
001FFF000007FFC0000000
001FFF000007FFC0000000
001FFE000007FFC0000000
003FFE00000FFF80000000
003FFE00000FFF80000000
003FFE00000FFF80000000
007FFC00000FFF00000000
007FFC00001FFF00000000
007FFC00001FFF00000000
007FF800001FFF00000000
00FFF800003FFE00000000
00FFF800003FFE00000000
00FFF000003FFE00000000
01FFF000007FFC00000000
01FFF000007FFC00000000
01FFF000007FFC00000000
03FFE000007FF800000000
03FFE00000FFF800000000
03FFE00000FFF800000000
03FFC00000FFF800000000
07FFC00001FFF000000000
07FFC00001FFF000000000
ENDCHAR
STARTCHAR dollar
ENCODING 36
SWIDTH 744 0
DWIDTH 106 0
BBX 90 104 8 0
BITMAP
00000000003FC00000000000
00000000003FC00000000000
00000000003FC00000000000
00000000003FC00000000000
00000000003FC00000000000
00000000003FC00000000000
00000000003FC00000000000
00000000003FC00000000000
00000000003FC00000000000
00000000003FC00000000000
00000FFFFFFFFFFFFFFFFC00
0000FFFFFFFFFFFFFFFFFC00
0007FFFFFFFFFFFFFFFFFC00
001FFFFFFFFFFFFFFFFFFC00
007FFFFFFFFFFFFFFFFFFC00
00FFFFFFFFFFFFFFFFFFFC00
01FFFFFFFFFFFFFFFFFFFC00
03FFFFFFFFFFFFFFFFFFFC00
07FFFFFFFFFFFFFFFFFFFC00
0FFFFFFFFFFFFFFFFFFFFC00
0FFFFFFFFFFFFFFFFFFFFC00
1FFFFFFFFFFFFFFFFFFFFC00
3FFFFFFFFFFFFFFFFFFFFC00
3FFFFFFFFFFFFFFFFFFFFC00
3FFFFFFFFFFFFFFFFFFFFC00
7FFFFC00003FC00000000000
7FFFF000003FC00000000000
7FFFC000003FC00000000000
7FFF8000003FC00000000000
FFFF8000003FC00000000000
FFFF0000003FC00000000000
FFFF0000003FC00000000000
FFFF0000003FC00000000000
FFFE0000003FC00000000000
FFFE0000003FC00000000000
FFFE0000003FC00000000000
FFFE0000003FC00000000000
FFFF0000003FC00000000000
7FFF0000003FC00000000000
7FFF0000003FC00000000000
7FFF8000003FC00000000000
7FFF8000003FC00000000000
3FFFC000003FC00000000000
3FFFF000003FC00000000000
1FFFFC00003FC00000000000
1FFFFFFFFFFFFFFFFE000000
0FFFFFFFFFFFFFFFFFE00000
07FFFFFFFFFFFFFFFFFC0000
07FFFFFFFFFFFFFFFFFF0000
03FFFFFFFFFFFFFFFFFFC000
01FFFFFFFFFFFFFFFFFFE000
00FFFFFFFFFFFFFFFFFFF000
003FFFFFFFFFFFFFFFFFF800
001FFFFFFFFFFFFFFFFFFC00
0007FFFFFFFFFFFFFFFFFC00
0000FFFFFFFFFFFFFFFFFE00
00000FFFFFFFFFFFFFFFFE00
00000000003FC0000FFFFF00
00000000003FC00001FFFF00
00000000003FC000007FFF80
00000000003FC000003FFF80
00000000003FC000003FFF80
00000000003FC000001FFF80
00000000003FC000001FFFC0
00000000003FC000000FFFC0
00000000003FC000000FFFC0
00000000003FC000000FFFC0
00000000003FC000000FFFC0
00000000003FC000000FFFC0
00000000003FC000000FFFC0
00000000003FC000000FFFC0
00000000003FC000000FFFC0
00000000003FC000001FFFC0
00000000003FC000001FFFC0
00000000003FC000003FFFC0
00000000003FC000003FFF80
00000000003FC000007FFF80
00000000003FC00001FFFF80
00000000003FC00007FFFF80
7FFFFFFFFFFFFFFFFFFFFF00
7FFFFFFFFFFFFFFFFFFFFF00
7FFFFFFFFFFFFFFFFFFFFE00
7FFFFFFFFFFFFFFFFFFFFE00
7FFFFFFFFFFFFFFFFFFFFC00
7FFFFFFFFFFFFFFFFFFFFC00
7FFFFFFFFFFFFFFFFFFFF800
7FFFFFFFFFFFFFFFFFFFF000
7FFFFFFFFFFFFFFFFFFFE000
7FFFFFFFFFFFFFFFFFFFC000
7FFFFFFFFFFFFFFFFFFF8000
7FFFFFFFFFFFFFFFFFFE0000
7FFFFFFFFFFFFFFFFFF80000
7FFFFFFFFFFFFFFFFFE00000
7FFFFFFFFFFFFFFFFC000000
00000000003FC00000000000
00000000003FC00000000000
00000000003FC00000000000
00000000003FC00000000000
00000000003FC00000000000
00000000003FC00000000000
00000000003FC00000000000
00000000003FC00000000000
00000000003FC00000000000
00000000003FC00000000000
ENDCHAR
STARTCHAR percent
ENCODING 37
SWIDTH 965 0
DWIDTH 138 0
BBX 126 120 6 -10
BITMAP
00000000000000000000000007FFC000
00000000000000000000000007FF8000
0000000000000000000000000FFF0000
0000000000000000000000001FFE0000
000007FF80000000000000003FFC0000
00007FFFF0000000000000003FFC0000
0001FFFFFE000000000000007FF80000
0007FFFFFF80000000000000FFF00000
001FFFFFFFE0000000000001FFE00000
003FFFFFFFF0000000000003FFE00000
007FFFFFFFF8000000000003FFC00000
00FFFFFFFFFC000000000007FF800000
01FFFFFFFFFE00000000000FFF000000
03FFFC00FFFF00000000001FFE000000
07FFE0001FFF80000000003FFE000000
0FFF800007FFC0000000003FFC000000
0FFE000001FFC0000000007FF8000000
1FFC000000FFE000000000FFF0000000
1FF80000007FE000000001FFF0000000
3FF00000007FF000000001FFE0000000
3FF00000003FF000000003FFC0000000
7FE00000001FF800000007FF80000000
7FE00000001FF80000000FFF00000000
7FC00000000FF80000001FFF00000000
7FC00000000FF80000001FFE00000000
FFC00000000FFC0000003FFC00000000
FF800000000FFC0000007FF800000000
FF8000000007FC000000FFF800000000
FF8000000007FC000001FFF000000000
FF8000000007FC000001FFE000000000
FF8000000007FC000003FFC000000000
FF8000000007FC000007FF8000000000
FF8000000007FC00000FFF8000000000
FF8000000007FC00000FFF0000000000
FF800000000FFC00001FFE0000000000
7FC00000000FF800003FFC0000000000
7FC00000000FF800007FFC0000000000
7FC00000000FF80000FFF80000000000
7FE00000001FF80000FFF00000000000
3FE00000001FF00001FFE00000000000
3FF00000003FF00003FFC00000000000
3FF00000007FE00007FFC00000000000
1FF80000007FE00007FF800000000000
1FFC000000FFC0000FFF000000000000
0FFE000003FFC0001FFE000000000000
07FF800007FF80003FFC000000000000
07FFE0001FFF00007FFC000000000000
03FFFC00FFFF00007FF8000000000000
01FFFFFFFFFE0000FFF0000000000000
00FFFFFFFFFC0001FFE0000000000000
007FFFFFFFF80003FFE0000000000000
003FFFFFFFE00007FFC0000000000000
000FFFFFFFC00007FF80000000000000
0007FFFFFF00000FFF00000000000000
0001FFFFFC00001FFE00000000000000
00003FFFF000003FFE00000000000000
000007FF0000003FFC00000000000000
000000000000007FF800000000000000
00000000000000FFF000000000000000
00000000000001FFF0000007FF800000
00000000000003FFE000007FFFF80000
00000000000003FFC00001FFFFFE0000
00000000000007FF800007FFFFFF8000
0000000000000FFF00001FFFFFFFE000
0000000000001FFF00003FFFFFFFF000
0000000000001FFE00007FFFFFFFF800
0000000000003FFC0000FFFFFFFFFC00
0000000000007FF80001FFFFFFFFFE00
000000000000FFF80003FFFC00FFFF00
000000000001FFF00007FFE0001FFF80
000000000001FFE0000FFF800007FFC0
000000000003FFC0000FFE000001FFC0
000000000007FF80001FFC000000FFE0
00000000000FFF80001FF80000007FE0
00000000001FFF00003FF00000007FF0
00000000001FFE00003FF00000003FF0
00000000003FFC00007FE00000001FF8
00000000007FFC00007FE00000001FF8
0000000000FFF800007FC00000000FF8
0000000000FFF000007FC00000000FF8
0000000001FFE00000FFC00000000FFC
0000000003FFC00000FF800000000FFC
0000000007FFC00000FF8000000007FC
000000000FFF800000FF8000000007FC
000000000FFF000000FF8000000007FC
000000001FFE000000FF8000000007FC
000000003FFC000000FF8000000007FC
000000007FFC000000FF8000000007FC
000000007FF8000000FF8000000007FC
00000000FFF0000000FF800000000FFC
00000001FFE00000007FC00000000FF8
00000003FFE00000007FC00000000FF8
00000007FFC00000007FC00000000FF8
00000007FF800000007FE00000001FF8
0000000FFF000000003FE00000001FF0
0000001FFE000000003FF00000003FF0
0000003FFE000000001FF00000007FF0
0000007FFC000000001FF80000007FE0
0000007FF8000000000FFC000000FFC0
000000FFF0000000000FFE000001FFC0
000001FFF00000000007FF800007FF80
000003FFE00000000003FFE0001FFF00
000003FFC00000000003FFFC00FFFF00
000007FF800000000001FFFFFFFFFE00
00000FFF000000000000FFFFFFFFFC00
00001FFF0000000000007FFFFFFFF800
00003FFE0000000000003FFFFFFFF000
00003FFC0000000000000FFFFFFFC000
00007FF800000000000003FFFFFF0000
0000FFF800000000000001FFFFFC0000
0001FFF0000000000000003FFFF00000
0001FFE00000000000000003FF000000
0003FFC0000000000000000000000000
0007FF80000000000000000000000000
000FFF80000000000000000000000000
001FFF00000000000000000000000000
001FFE00000000000000000000000000
003FFC00000000000000000000000000
007FF800000000000000000000000000
00FFF800000000000000000000000000
ENDCHAR
STARTCHAR ampersand
ENCODING 38
SWIDTH 759 0
DWIDTH 109 0
BBX 97 104 7 0
BITMAP
0000000FFFFFFE000000000000
000001FFFFFFFE000000000000
00001FFFFFFFFE000000000000
00007FFFFFFFFE000000000000
0001FFFFFFFFFE000000000000
0007FFFFFFFFFE000000000000
000FFFFFFFFFFE000000000000
003FFFFFFFFFFE000000000000
007FFFFFFFFFFE000000000000
00FFFFFFFFFFFE000000000000
01FFFFFFFFFFFE000000000000
01FFFFFFFFFFFE000000000000
03FFFFFFFFFFFE000000000000
07FFFFFFFFFFFE000000000000
07FFFFFFFFFFFE000000000000
0FFFFFFFFFFFFE000000000000
0FFFFFFFFFFFFE000000000000
0FFFFFFFFFFFFE000000000000
1FFFFFFE000000000000000000
1FFFFFE0000000000000000000
1FFFFF80000000000000000000
3FFFFF00000000000000000000
3FFFFE00000000000000000000
3FFFFC00000000000000000000
3FFFFC00000000000000000000
3FFFF800000000000000000000
3FFFF800000000000000000000
3FFFF800000000000000000000
3FFFF000000000000000000000
3FFFF000000000000000000000
3FFFF000000000000000000000
3FFFF000000000000000000000
3FFFF000000000000000000000
3FFFF000000000000000000000
1FFFF800000000000000000000
1FFFF800000000000000000000
1FFFF800000000000000000000
0FFFFC00000000000000000000
0FFFFC00000000000000000000
0FFFFE00000000000000000000
07FFFF00000000000000000000
03FFFF80000000000000000000
03FFFFE0000000000000000000
01FFFFFC000000000000000000
00FFFFFFFFFFFFFFFFFFFFE000
007FFFFFFFFFFFFFFFFFFFE000
003FFFFFFFFFFFFFFFFFFFE000
000FFFFFFFFFFFFFFFFFFFE000
0003FFFFFFFFFFFFFFFFFFE000
0000FFFFFFFFFFFFFFFFFFE000
0003FFFFFFFFFFFFFFFFFFE000
000FFFFFFFFFFFFFFFFFFFE000
003FFFFFFFFFFFFFFFFFFFE000
007FFFFFFFFFFFFFFFFFFFE000
00FFFFFFFFFFFFFFFFFFFFE000
01FFFFFFFFFFFFFFFFFFFFE000
03FFFFFFFFFFFFFFFFFFFFE000
07FFFFFFFFFFFFFFFFFFFFE000
0FFFFFFFFFFFFFFFFFFFFFE000
1FFFFFFC0000000FFFFE000000
1FFFFFC00000000FFFFE000000
3FFFFF000000000FFFFE000000
3FFFFC000000000FFFFE000000
7FFFF8000000000FFFFE000000
7FFFF0000000000FFFFE000000
7FFFF0000000000FFFFE000000
7FFFE0000000000FFFFE000000
FFFFE0000000000FFFFE000000
FFFFE0000000000FFFFE000000
FFFFC0000000000FFFFE000000
FFFFC0000000000FFFFE000000
FFFFC0000000000FFFFE000000
FFFFC0000000000FFFFE000000
FFFFC0000000000FFFFE000000
FFFFC0000000000FFFFE000000
FFFFE0000000000FFFFE000000
FFFFE0000000000FFFFE000000
FFFFE0000000000FFFFE000000
FFFFF0000000000FFFFE000000
7FFFF0000000000FFFFE000000
7FFFF8000000000FFFFE000000
7FFFFC000000000FFFFE000000
7FFFFE000000000FFFFE000000
3FFFFF800000000FFFFE000000
3FFFFFE00000000FFFFE000000
3FFFFFFF0000000FFFFE000000
1FFFFFFFFFFFFFFFFFFFFFFF80
1FFFFFFFFFFFFFFFFFFFFFFF80
0FFFFFFFFFFFFFFFFFFFFFFF80
0FFFFFFFFFFFFFFFFFFFFFFF80
07FFFFFFFFFFFFFFFFFFFFFF80
03FFFFFFFFFFFFFFFFFFFFFF80
03FFFFFFFFFFFFFFFFFFFFFF80
01FFFFFFFFFFFFFFFFFFFFFF80
00FFFFFFFFFFFFFFFFFFFFFF80
007FFFFFFFFFFFFFFFFFFFFF80
003FFFFFFFFFFFFFFFFFFFFF80
001FFFFFFFFFFFFFFFFFFFFF80
0007FFFFFFFFFFFFFFFFFFFF80
0003FFFFFFFFFFFFFFFFFFFF80
0000FFFFFFFFFFFFFFFFFFFF80
00001FFFFFFFFFFFFFFFFFFF80
000003FFFFFFFFFFFFFFFFFF80
0000001FFFFFFFFFFFFFFFFF80
ENDCHAR
STARTCHAR quotesingle
ENCODING 39
SWIDTH 255 0
DWIDTH 36 0
BBX 18 37 9 67
BITMAP
FFFFC0
FFFFC0
FFFFC0
FFFFC0
FFFFC0
7FFFC0
7FFFC0
7FFFC0
7FFFC0
7FFFC0
7FFF80
7FFF80
7FFF80
7FFF80
7FFF80
7FFF80
3FFF80
3FFF80
3FFF80
3FFF80
3FFF80
3FFF00
3FFF00
3FFF00
3FFF00
3FFF00
3FFF00
1FFF00
1FFF00
1FFF00
1FFF00
1FFF00
1FFE00
1FFE00
1FFE00
1FFE00
1FFE00
ENDCHAR
STARTCHAR parenleft
ENCODING 40
SWIDTH 356 0
DWIDTH 51 0
BBX 29 131 13 -13
BITMAP
0001FFF8
0001FFF0
0001FFF0
0003FFE0
0003FFE0
0007FFC0
0007FFC0
000FFFC0
000FFF80
000FFF80
001FFF00
001FFF00
001FFF00
003FFE00
003FFE00
007FFC00
007FFC00
007FFC00
00FFF800
00FFF800
00FFF800
01FFF000
01FFF000
01FFF000
01FFE000
03FFE000
03FFE000
03FFC000
07FFC000
07FFC000
07FF8000
07FF8000
0FFF8000
0FFF8000
0FFF0000
0FFF0000
1FFF0000
1FFF0000
1FFE0000
1FFE0000
1FFE0000
3FFE0000
3FFC0000
3FFC0000
3FFC0000
3FFC0000
3FFC0000
3FFC0000
7FF80000
7FF80000
7FF80000
7FF80000
7FF80000
7FF80000
7FF80000
7FF00000
7FF00000
7FF00000
7FF00000
7FF00000
FFF00000
FFF00000
FFF00000
FFF00000
FFF00000
FFF00000
FFF00000
FFF00000
FFF00000
FFF00000
7FF00000
7FF00000
7FF00000
7FF00000
7FF00000
7FF00000
7FF80000
7FF80000
7FF80000
7FF80000
7FF80000
7FF80000
3FF80000
3FF80000
3FFC0000
3FFC0000
3FFC0000
3FFC0000
3FFC0000
1FFC0000
1FFE0000
1FFE0000
1FFE0000
1FFE0000
0FFF0000
0FFF0000
0FFF0000
0FFF0000
0FFF8000
07FF8000
07FF8000
07FF8000
07FFC000
03FFC000
03FFC000
03FFE000
01FFE000
01FFE000
01FFF000
00FFF000
00FFF000
00FFF800
007FF800
007FF800
007FFC00
003FFC00
003FFE00
003FFE00
001FFE00
001FFF00
001FFF00
000FFF80
000FFF80
0007FF80
0007FFC0
0003FFC0
0003FFE0
0003FFE0
0001FFF0
0001FFF0
0000FFF8
ENDCHAR
STARTCHAR parenright
ENCODING 41
SWIDTH 355 0
DWIDTH 51 0
BBX 28 131 9 -13
BITMAP
FFF80000
7FFC0000
7FFC0000
3FFE0000
3FFE0000
1FFE0000
1FFF0000
1FFF0000
0FFF8000
0FFF8000
07FF8000
07FFC000
07FFC000
03FFE000
03FFE000
01FFE000
01FFF000
01FFF000
00FFF000
00FFF800
00FFF800
007FF800
007FFC00
007FFC00
003FFC00
003FFE00
003FFE00
001FFE00
001FFE00
001FFF00
001FFF00
000FFF00
000FFF00
000FFF80
0007FF80
0007FF80
0007FF80
0007FFC0
0003FFC0
0003FFC0
0003FFC0
0003FFC0
0003FFE0
0001FFE0
0001FFE0
0001FFE0
0001FFE0
0001FFE0
0001FFE0
0000FFF0
0000FFF0
0000FFF0
0000FFF0
0000FFF0
0000FFF0
0000FFF0
0000FFF0
0000FFF0
00007FF0
00007FF0
00007FF0
00007FF0
00007FF0
00007FF0
00007FF0
00007FF0
00007FF0
00007FF0
00007FF0
00007FF0
00007FF0
00007FF0
0000FFF0
0000FFF0
0000FFF0
0000FFF0
0000FFF0
0000FFF0
0000FFF0
0000FFF0
0000FFF0
0000FFF0
0001FFE0
0001FFE0
0001FFE0
0001FFE0
0001FFE0
0001FFE0
0003FFE0
0003FFC0
0003FFC0
0003FFC0
0003FFC0
0007FFC0
0007FF80
0007FF80
0007FF80
000FFF80
000FFF00
000FFF00
000FFF00
001FFF00
001FFE00
001FFE00
003FFE00
003FFE00
003FFC00
007FFC00
007FFC00
007FF800
00FFF800
00FFF800
00FFF000
01FFF000
01FFF000
01FFE000
03FFE000
03FFE000
07FFC000
07FFC000
07FF8000
0FFF8000
0FFF8000
1FFF0000
1FFF0000
3FFE0000
3FFE0000
3FFC0000
7FFC0000
7FFC0000
FFF80000
ENDCHAR
STARTCHAR asterisk
ENCODING 42
SWIDTH 469 0
DWIDTH 67 0
BBX 49 47 9 57
BITMAP
00000FF8000000
00000FF8000000
00000FF8000000
00000FF8000000
00000FF8000000
00000FF8000000
00000FF8000000
00000FF8000000
00000FF8000000
00000FF8000000
00000FF8000000
00000FF8000000
00000FF8000000
38000FF8000E00
3F000FF8007E00
3FE00FF803FE00
7FFC0FF81FFF00
7FFFCFF9FFFF00
7FFFFFFFFFFF00
FFFFFFFFFFFF80
FFFFFFFFFFFF80
3FFFFFFFFFFE00
07FFFFFFFFF000
00FFFFFFFF0000
000FFFFFF80000
0001FFFFC00000
00007FFE000000
00007FFF000000
0000FFFF800000
0001FFFFC00000
0001FFFFC00000
0003FF7FE00000
0007FF7FF00000
0007FE3FF00000
000FFC1FF80000
001FFC1FFC0000
003FF80FFE0000
003FF007FE0000
007FE003FF0000
00FFE003FF8000
00FFC001FF8000
01FF8000FFC000
00FF8000FFC000
007F00007F0000
003E00003E0000
000C00001C0000
00040000100000
ENDCHAR
STARTCHAR plus
ENCODING 43
SWIDTH 690 0
DWIDTH 99 0
BBX 81 81 9 12
BITMAP
000000003FFC0000000000
000000003FFC0000000000
000000003FFC0000000000
000000003FFC0000000000
000000003FFC0000000000
000000003FFC0000000000
000000003FFC0000000000
000000003FFC0000000000
000000003FFC0000000000
000000003FFC0000000000
000000003FFC0000000000
000000003FFC0000000000
000000003FFC0000000000
000000003FFC0000000000
000000003FFC0000000000
000000003FFC0000000000
000000003FFC0000000000
000000003FFC0000000000
000000003FFC0000000000
000000003FFC0000000000
000000003FFC0000000000
000000003FFC0000000000
000000003FFC0000000000
000000003FFC0000000000
000000003FFC0000000000
000000003FFC0000000000
000000003FFC0000000000
000000003FFC0000000000
000000003FFC0000000000
000000003FFC0000000000
000000003FFC0000000000
000000003FFC0000000000
000000003FFC0000000000
000000003FFC0000000000
000000003FFC0000000000
FFFFFFFFFFFFFFFFFFFF80
FFFFFFFFFFFFFFFFFFFF80
FFFFFFFFFFFFFFFFFFFF80
FFFFFFFFFFFFFFFFFFFF80
FFFFFFFFFFFFFFFFFFFF80
FFFFFFFFFFFFFFFFFFFF80
FFFFFFFFFFFFFFFFFFFF80
FFFFFFFFFFFFFFFFFFFF80
FFFFFFFFFFFFFFFFFFFF80
FFFFFFFFFFFFFFFFFFFF80
FFFFFFFFFFFFFFFFFFFF80
FFFFFFFFFFFFFFFFFFFF80
000000003FFC0000000000
000000003FFC0000000000
000000003FFC0000000000
000000003FFC0000000000
000000003FFC0000000000
000000003FFC0000000000
000000003FFC0000000000
000000003FFC0000000000
000000003FFC0000000000
000000003FFC0000000000
000000003FFC0000000000
000000003FFC0000000000
000000003FFC0000000000
000000003FFC0000000000
000000003FFC0000000000
000000003FFC0000000000
000000003FFC0000000000
000000003FFC0000000000
000000003FFC0000000000
000000003FFC0000000000
000000003FFC0000000000
000000003FFC0000000000
000000003FFC0000000000
000000003FFC0000000000
000000003FFC0000000000
000000003FFC0000000000
000000003FFC0000000000
000000003FFC0000000000
000000003FFC0000000000
000000003FFC0000000000
000000003FFC0000000000
000000003FFC0000000000
000000003FFC0000000000
000000003FFC0000000000
ENDCHAR
STARTCHAR comma
ENCODING 44
SWIDTH 259 0
DWIDTH 37 0
BBX 18 37 10 -17
BITMAP
FFFFC0
FFFFC0
FFFFC0
FFFF80
FFFF80
FFFF80
FFFF80
FFFF80
FFFF00
FFFF00
FFFF00
FFFF00
FFFF00
FFFE00
FFFE00
FFFE00
FFFE00
FFFE00
FFFC00
FFFC00
FFFC00
FFFC00
FFFC00
FFFC00
FFF800
FFF800
FFF800
FFF800
FFF800
FFF000
FFF000
FFF000
FFF000
FFF000
FFE000
FFE000
FFE000
ENDCHAR
STARTCHAR hyphen
ENCODING 45
SWIDTH 296 0
DWIDTH 42 0
BBX 34 12 4 47
BITMAP
FFFFFFFFC0
FFFFFFFFC0
FFFFFFFFC0
FFFFFFFFC0
FFFFFFFFC0
FFFFFFFFC0
FFFFFFFFC0
FFFFFFFFC0
FFFFFFFFC0
FFFFFFFFC0
FFFFFFFFC0
FFFFFFFFC0
ENDCHAR
STARTCHAR period
ENCODING 46
SWIDTH 262 0
DWIDTH 37 0
BBX 19 19 9 0
BITMAP
03F800
0FFE00
1FFF00
3FFF80
7FFFC0
7FFFE0
FFFFE0
FFFFE0
FFFFE0
FFFFE0
FFFFE0
FFFFE0
FFFFE0
7FFFE0
7FFFC0
3FFF80
1FFF00
0FFE00
03F800
ENDCHAR
STARTCHAR slash
ENCODING 47
SWIDTH 444 0
DWIDTH 63 0
BBX 61 104 1 0
BITMAP
0000000000007FF8
000000000000FFF0
000000000000FFF0
000000000000FFE0
000000000001FFE0
000000000001FFE0
000000000003FFC0
000000000003FFC0
000000000007FF80
000000000007FF80
00000000000FFF00
00000000000FFF00
00000000001FFE00
00000000001FFE00
00000000003FFC00
00000000003FFC00
00000000007FF800
00000000007FF800
0000000000FFF800
0000000000FFF000
0000000000FFF000
0000000001FFE000
0000000001FFE000
0000000003FFC000
0000000003FFC000
0000000007FF8000
0000000007FF8000
000000000FFF0000
000000000FFF0000
000000001FFE0000
000000001FFE0000
000000003FFC0000
000000003FFC0000
000000007FFC0000
000000007FF80000
00000000FFF80000
00000000FFF00000
00000000FFF00000
00000001FFE00000
00000001FFE00000
00000003FFC00000
00000003FFC00000
00000007FF800000
00000007FF800000
0000000FFF000000
0000000FFF000000
0000001FFF000000
0000001FFE000000
0000003FFE000000
0000003FFC000000
0000007FFC000000
0000007FF8000000
000000FFF8000000
000000FFF0000000
000000FFF0000000
000001FFE0000000
000001FFE0000000
000003FFC0000000
000003FFC0000000
000007FFC0000000
000007FF80000000
00000FFF80000000
00000FFF00000000
00001FFF00000000
00001FFE00000000
00003FFE00000000
00003FFC00000000
00007FFC00000000
00007FF800000000
0000FFF800000000
0000FFF000000000
0000FFF000000000
0001FFE000000000
0001FFE000000000
0003FFE000000000
0003FFC000000000
0007FFC000000000
0007FF8000000000
000FFF8000000000
000FFF0000000000
001FFF0000000000
001FFE0000000000
003FFE0000000000
003FFC0000000000
007FFC0000000000
007FF80000000000
00FFF80000000000
00FFF80000000000
00FFF00000000000
01FFF00000000000
01FFE00000000000
03FFE00000000000
03FFC00000000000
07FFC00000000000
07FF800000000000
0FFF800000000000
0FFF000000000000
1FFF000000000000
1FFE000000000000
3FFE000000000000
3FFE000000000000
7FFC000000000000
7FFC000000000000
FFF8000000000000
ENDCHAR
STARTCHAR zero
ENCODING 48
SWIDTH 838 0
DWIDTH 120 0
BBX 108 104 6 0
BITMAP
000000000003FFFC000000000000
0000000000FFFFFFF00000000000
000000000FFFFFFFFE0000000000
000000007FFFFFFFFFC000000000
00000001FFFFFFFFFFF800000000
00000007FFFFFFFFFFFE00000000
0000001FFFFFFFFFFFFF80000000
0000007FFFFFFFFFFFFFE0000000
000001FFFFFFFFFFFFFFF8000000
000003FFFFFFFFFFFFFFFC000000
00000FFFFFFFFFFFFFFFFF000000
00001FFFFFFFFFFFFFFFFF800000
00003FFFFFFFFFFFFFFFFFC00000
0000FFFFFFFFFFFFFFFFFFE00000
0001FFFFFFFFFFFFFFFFFFF00000
0003FFFFFFFFFFFFFFFFFFF80000
0007FFFFFFFFFFFFFFFFFFFC0000
000FFFFFFFFFFFFFFFFFFFFE0000
000FFFFFFFFF001FFFFFFFFF0000
001FFFFFFFE000007FFFFFFF8000
003FFFFFFE0000000FFFFFFFC000
007FFFFFF800000001FFFFFFE000
007FFFFFE0000000007FFFFFE000
00FFFFFF80000000001FFFFFF000
01FFFFFE00000000000FFFFFF800
01FFFFFC000000000003FFFFF800
03FFFFF8000000000001FFFFFC00
03FFFFF0000000000000FFFFFC00
07FFFFE00000000000007FFFFE00
07FFFFC00000000000003FFFFE00
0FFFFF800000000000001FFFFF00
0FFFFF000000000000001FFFFF00
1FFFFE000000000000000FFFFF80
1FFFFE0000000000000007FFFF80
1FFFFC0000000000000007FFFF80
3FFFFC0000000000000003FFFFC0
3FFFF80000000000000003FFFFC0
3FFFF80000000000000001FFFFC0
7FFFF00000000000000001FFFFC0
7FFFF00000000000000000FFFFE0
7FFFF00000000000000000FFFFE0
7FFFE00000000000000000FFFFE0
7FFFE00000000000000000FFFFE0
FFFFE000000000000000007FFFE0
FFFFE000000000000000007FFFE0
FFFFE000000000000000007FFFF0
FFFFC000000000000000007FFFF0
FFFFC000000000000000007FFFF0
FFFFC000000000000000007FFFF0
FFFFC000000000000000007FFFF0
FFFFC000000000000000003FFFF0
FFFFC000000000000000003FFFF0
FFFFC000000000000000003FFFF0
FFFFC000000000000000007FFFF0
FFFFC000000000000000007FFFF0
FFFFC000000000000000007FFFF0
FFFFC000000000000000007FFFF0
FFFFE000000000000000007FFFE0
FFFFE000000000000000007FFFE0
7FFFE000000000000000007FFFE0
7FFFE000000000000000007FFFE0
7FFFE00000000000000000FFFFE0
7FFFF00000000000000000FFFFE0
7FFFF00000000000000000FFFFC0
3FFFF00000000000000001FFFFC0
3FFFF80000000000000001FFFFC0
3FFFF80000000000000001FFFFC0
1FFFF80000000000000003FFFF80
1FFFFC0000000000000003FFFF80
1FFFFC0000000000000007FFFF80
0FFFFE0000000000000007FFFF00
0FFFFF000000000000000FFFFF00
0FFFFF000000000000001FFFFE00
07FFFF800000000000003FFFFE00
07FFFFC00000000000003FFFFC00
03FFFFE00000000000007FFFFC00
03FFFFF0000000000000FFFFF800
01FFFFF8000000000001FFFFF800
00FFFFFC000000000007FFFFF000
00FFFFFF00000000000FFFFFF000
007FFFFF80000000001FFFFFE000
003FFFFFE0000000007FFFFFC000
003FFFFFF800000001FFFFFF8000
001FFFFFFE0000000FFFFFFF8000
000FFFFFFFE000007FFFFFFF0000
0007FFFFFFFF000FFFFFFFFE0000
0003FFFFFFFFFFFFFFFFFFFC0000
0003FFFFFFFFFFFFFFFFFFF80000
0001FFFFFFFFFFFFFFFFFFF00000
0000FFFFFFFFFFFFFFFFFFE00000
00003FFFFFFFFFFFFFFFFFC00000
00001FFFFFFFFFFFFFFFFF800000
00000FFFFFFFFFFFFFFFFF000000
000007FFFFFFFFFFFFFFFC000000
000001FFFFFFFFFFFFFFF8000000
000000FFFFFFFFFFFFFFF0000000
0000003FFFFFFFFFFFFFC0000000
0000000FFFFFFFFFFFFF00000000
00000003FFFFFFFFFFFC00000000
00000000FFFFFFFFFFF000000000
000000003FFFFFFFFFC000000000
0000000007FFFFFFFE0000000000
00000000007FFFFFE00000000000
000000000003FFF8000000000000
ENDCHAR
STARTCHAR one
ENCODING 49
SWIDTH 385 0
DWIDTH 55 0
BBX 43 104 3 0
BITMAP
FFFFC0000000
FFFFFC000000
FFFFFF800000
FFFFFFE00000
FFFFFFF80000
FFFFFFFE0000
FFFFFFFF0000
FFFFFFFF8000
FFFFFFFFC000
FFFFFFFFE000
FFFFFFFFF000
FFFFFFFFF800
FFFFFFFFF800
FFFFFFFFFC00
FFFFFFFFFE00
FFFFFFFFFE00
FFFFFFFFFF00
FFFFFFFFFF00
0003FFFFFF80
00007FFFFF80
00001FFFFF80
000007FFFF80
000003FFFFC0
000003FFFFC0
000001FFFFC0
000001FFFFC0
000000FFFFE0
000000FFFFE0
000000FFFFE0
0000007FFFE0
0000007FFFE0
0000007FFFE0
0000007FFFE0
0000007FFFE0
0000007FFFE0
0000007FFFE0
0000007FFFE0
0000007FFFE0
0000007FFFE0
0000007FFFE0
0000007FFFE0
0000007FFFE0
0000007FFFE0
0000007FFFE0
0000007FFFE0
0000007FFFE0
0000007FFFE0
0000007FFFE0
0000007FFFE0
0000007FFFE0
0000007FFFE0
0000007FFFE0
0000007FFFE0
0000007FFFE0
0000007FFFE0
0000007FFFE0
0000007FFFE0
0000007FFFE0
0000007FFFE0
0000007FFFE0
0000007FFFE0
0000007FFFE0
0000007FFFE0
0000007FFFE0
0000007FFFE0
0000007FFFE0
0000007FFFE0
0000007FFFE0
0000007FFFE0
0000007FFFE0
0000007FFFE0
0000007FFFE0
0000007FFFE0
0000007FFFE0
0000007FFFE0
0000007FFFE0
0000007FFFE0
0000007FFFE0
0000007FFFE0
0000007FFFE0
0000007FFFE0
0000007FFFE0
0000007FFFE0
0000007FFFE0
0000007FFFE0
0000007FFFE0
0000007FFFE0
0000007FFFE0
0000007FFFE0
0000007FFFE0
0000007FFFE0
0000007FFFE0
0000007FFFE0
0000007FFFE0
0000007FFFE0
0000007FFFE0
0000007FFFE0
0000007FFFE0
0000007FFFE0
0000007FFFE0
0000007FFFE0
0000007FFFE0
0000007FFFE0
0000007FFFE0
ENDCHAR
STARTCHAR two
ENCODING 50
SWIDTH 825 0
DWIDTH 118 0
BBX 102 104 9 0
BITMAP
7FFFFFFFFFFFFFFFFFF8000000
7FFFFFFFFFFFFFFFFFFF800000
7FFFFFFFFFFFFFFFFFFFF00000
7FFFFFFFFFFFFFFFFFFFFC0000
7FFFFFFFFFFFFFFFFFFFFF0000
7FFFFFFFFFFFFFFFFFFFFFC000
7FFFFFFFFFFFFFFFFFFFFFE000
7FFFFFFFFFFFFFFFFFFFFFF000
7FFFFFFFFFFFFFFFFFFFFFF800
7FFFFFFFFFFFFFFFFFFFFFFC00
7FFFFFFFFFFFFFFFFFFFFFFE00
7FFFFFFFFFFFFFFFFFFFFFFF00
7FFFFFFFFFFFFFFFFFFFFFFF80
7FFFFFFFFFFFFFFFFFFFFFFF80
7FFFFFFFFFFFFFFFFFFFFFFFC0
7FFFFFFFFFFFFFFFFFFFFFFFE0
7FFFFFFFFFFFFFFFFFFFFFFFE0
7FFFFFFFFFFFFFFFFFFFFFFFE0
0000000000000000007FFFFFF0
0000000000000000000FFFFFF0
00000000000000000003FFFFF0
00000000000000000001FFFFF8
00000000000000000000FFFFF8
000000000000000000007FFFF8
000000000000000000007FFFF8
000000000000000000003FFFF8
000000000000000000003FFFF8
000000000000000000003FFFF8
000000000000000000001FFFFC
000000000000000000001FFFFC
000000000000000000001FFFFC
000000000000000000001FFFF8
000000000000000000001FFFF8
000000000000000000001FFFF8
000000000000000000003FFFF8
000000000000000000003FFFF8
000000000000000000003FFFF8
000000000000000000007FFFF8
000000000000000000007FFFF0
00000000000000000000FFFFF0
00000000000000000001FFFFF0
00000000000000000003FFFFE0
00000000000000000007FFFFE0
0000000000000000003FFFFFC0
000000FFFFFFFFFFFFFFFFFFC0
00001FFFFFFFFFFFFFFFFFFF80
0000FFFFFFFFFFFFFFFFFFFF00
0003FFFFFFFFFFFFFFFFFFFF00
000FFFFFFFFFFFFFFFFFFFFE00
001FFFFFFFFFFFFFFFFFFFFC00
007FFFFFFFFFFFFFFFFFFFF800
00FFFFFFFFFFFFFFFFFFFFF000
01FFFFFFFFFFFFFFFFFFFFE000
03FFFFFFFFFFFFFFFFFFFFC000
07FFFFFFFFFFFFFFFFFFFF0000
07FFFFFFFFFFFFFFFFFFFC0000
0FFFFFFFFFFFFFFFFFFFF00000
1FFFFFFFFFFFFFFFFFFF800000
1FFFFFFFFFFFFFFFFFF0000000
3FFFFFE0000000000000000000
3FFFFF00000000000000000000
3FFFFC00000000000000000000
7FFFF800000000000000000000
7FFFF000000000000000000000
7FFFE000000000000000000000
7FFFE000000000000000000000
7FFFC000000000000000000000
FFFFC000000000000000000000
FFFFC000000000000000000000
FFFF8000000000000000000000
FFFF8000000000000000000000
FFFF8000000000000000000000
FFFF8000000000000000000000
FFFF8000000000000000000000
FFFF8000000000000000000000
FFFF8000000000000000000000
FFFF8000000000000000000000
FFFF8000000000000000000000
FFFF8000000000000000000000
FFFF8000000000000000000000
FFFF8000000000000000000000
FFFF8000000000000000000000
FFFF8000000000000000000000
FFFF8000000000000000000000
FFFF8000000000000000000000
FFFF8000000000000000000000
FFFFFFFFFFFFFFFFFFFFFFFFF0
FFFFFFFFFFFFFFFFFFFFFFFFF0
FFFFFFFFFFFFFFFFFFFFFFFFF0
FFFFFFFFFFFFFFFFFFFFFFFFF0
FFFFFFFFFFFFFFFFFFFFFFFFF0
FFFFFFFFFFFFFFFFFFFFFFFFF0
FFFFFFFFFFFFFFFFFFFFFFFFF0
FFFFFFFFFFFFFFFFFFFFFFFFF0
FFFFFFFFFFFFFFFFFFFFFFFFF0
FFFFFFFFFFFFFFFFFFFFFFFFF0
FFFFFFFFFFFFFFFFFFFFFFFFF0
FFFFFFFFFFFFFFFFFFFFFFFFF0
FFFFFFFFFFFFFFFFFFFFFFFFF0
FFFFFFFFFFFFFFFFFFFFFFFFF0
FFFFFFFFFFFFFFFFFFFFFFFFF0
FFFFFFFFFFFFFFFFFFFFFFFFF0
FFFFFFFFFFFFFFFFFFFFFFFFF0
FFFFFFFFFFFFFFFFFFFFFFFFF0
ENDCHAR
STARTCHAR three
ENCODING 51
SWIDTH 827 0
DWIDTH 118 0
BBX 104 104 7 0
BITMAP
FFFFFFFFFFFFFFFFFFF8000000
FFFFFFFFFFFFFFFFFFFFC00000
FFFFFFFFFFFFFFFFFFFFF80000
FFFFFFFFFFFFFFFFFFFFFE0000
FFFFFFFFFFFFFFFFFFFFFF8000
FFFFFFFFFFFFFFFFFFFFFFE000
FFFFFFFFFFFFFFFFFFFFFFF800
FFFFFFFFFFFFFFFFFFFFFFFC00
FFFFFFFFFFFFFFFFFFFFFFFE00
FFFFFFFFFFFFFFFFFFFFFFFF00
FFFFFFFFFFFFFFFFFFFFFFFF80
FFFFFFFFFFFFFFFFFFFFFFFFC0
FFFFFFFFFFFFFFFFFFFFFFFFC0
FFFFFFFFFFFFFFFFFFFFFFFFE0
FFFFFFFFFFFFFFFFFFFFFFFFE0
FFFFFFFFFFFFFFFFFFFFFFFFF0
FFFFFFFFFFFFFFFFFFFFFFFFF0
FFFFFFFFFFFFFFFFFFFFFFFFF8
000000000000000001FFFFFFF8
0000000000000000000FFFFFF8
00000000000000000003FFFFFC
00000000000000000000FFFFFC
000000000000000000007FFFFC
000000000000000000003FFFFC
000000000000000000003FFFFC
000000000000000000001FFFFC
000000000000000000001FFFFC
000000000000000000000FFFFC
000000000000000000000FFFFC
000000000000000000000FFFFC
000000000000000000000FFFFC
000000000000000000000FFFFC
000000000000000000000FFFFC
000000000000000000000FFFFC
000000000000000000000FFFFC
000000000000000000001FFFF8
000000000000000000001FFFF8
000000000000000000001FFFF8
000000000000000000003FFFF0
000000000000000000003FFFF0
000000000000000000007FFFE0
00000000000000000000FFFFE0
00000000000000000003FFFFC0
0000000000000000001FFFFF80
000000FFFFFFFFFFFFFFFFFF00
000000FFFFFFFFFFFFFFFFFE00
000000FFFFFFFFFFFFFFFFFC00
000000FFFFFFFFFFFFFFFFF000
000000FFFFFFFFFFFFFFFFE000
000000FFFFFFFFFFFFFFFF0000
000000FFFFFFFFFFFFFFFFC000
000000FFFFFFFFFFFFFFFFF000
000000FFFFFFFFFFFFFFFFFC00
000000FFFFFFFFFFFFFFFFFE00
000000FFFFFFFFFFFFFFFFFF80
000000FFFFFFFFFFFFFFFFFFC0
000000FFFFFFFFFFFFFFFFFFE0
000000FFFFFFFFFFFFFFFFFFE0
000000FFFFFFFFFFFFFFFFFFF0
0000000000000000001FFFFFF8
00000000000000000001FFFFF8
000000000000000000007FFFFC
000000000000000000003FFFFC
000000000000000000001FFFFE
000000000000000000000FFFFE
000000000000000000000FFFFE
0000000000000000000007FFFF
0000000000000000000007FFFF
0000000000000000000007FFFF
0000000000000000000003FFFF
0000000000000000000003FFFF
0000000000000000000003FFFF
0000000000000000000003FFFF
0000000000000000000003FFFF
0000000000000000000003FFFF
0000000000000000000007FFFF
0000000000000000000007FFFF
0000000000000000000007FFFF
000000000000000000000FFFFF
000000000000000000000FFFFF
000000000000000000001FFFFE
000000000000000000003FFFFE
00000000000000000000FFFFFE
00000000000000000003FFFFFE
0000000000000000000FFFFFFC
000000000000000001FFFFFFFC
FFFFFFFFFFFFFFFFFFFFFFFFFC
FFFFFFFFFFFFFFFFFFFFFFFFF8
FFFFFFFFFFFFFFFFFFFFFFFFF8
FFFFFFFFFFFFFFFFFFFFFFFFF0
FFFFFFFFFFFFFFFFFFFFFFFFE0
FFFFFFFFFFFFFFFFFFFFFFFFE0
FFFFFFFFFFFFFFFFFFFFFFFFC0
FFFFFFFFFFFFFFFFFFFFFFFF80
FFFFFFFFFFFFFFFFFFFFFFFF00
FFFFFFFFFFFFFFFFFFFFFFFE00
FFFFFFFFFFFFFFFFFFFFFFFC00
FFFFFFFFFFFFFFFFFFFFFFF800
FFFFFFFFFFFFFFFFFFFFFFE000
FFFFFFFFFFFFFFFFFFFFFF8000
FFFFFFFFFFFFFFFFFFFFFF0000
FFFFFFFFFFFFFFFFFFFFF80000
FFFFFFFFFFFFFFFFFFFFC00000
FFFFFFFFFFFFFFFFFFF8000000
ENDCHAR
STARTCHAR four
ENCODING 52
SWIDTH 845 0
DWIDTH 121 0
BBX 110 104 7 0
BITMAP
FFFFC000000000000007FFFE0000
FFFFC000000000000007FFFE0000
FFFFC000000000000007FFFE0000
FFFFC000000000000007FFFE0000
FFFFC000000000000007FFFE0000
FFFFC000000000000007FFFE0000
FFFFC000000000000007FFFE0000
FFFFC000000000000007FFFE0000
FFFFC000000000000007FFFE0000
FFFFC000000000000007FFFE0000
FFFFC000000000000007FFFE0000
FFFFC000000000000007FFFE0000
FFFFC000000000000007FFFE0000
FFFFC000000000000007FFFE0000
FFFFC000000000000007FFFE0000
FFFFC000000000000007FFFE0000
FFFFC000000000000007FFFE0000
FFFFC000000000000007FFFE0000
FFFFC000000000000007FFFE0000
FFFFC000000000000007FFFE0000
FFFFC000000000000007FFFE0000
FFFFC000000000000007FFFE0000
FFFFC000000000000007FFFE0000
FFFFC000000000000007FFFE0000
FFFFC000000000000007FFFE0000
FFFFC000000000000007FFFE0000
FFFFC000000000000007FFFE0000
FFFFC000000000000007FFFE0000
FFFFC000000000000007FFFE0000
FFFFC000000000000007FFFE0000
FFFFC000000000000007FFFE0000
FFFFC000000000000007FFFE0000
FFFFC000000000000007FFFE0000
FFFFC000000000000007FFFE0000
FFFFC000000000000007FFFE0000
FFFFC000000000000007FFFE0000
FFFFC000000000000007FFFE0000
FFFFC000000000000007FFFE0000
FFFFC000000000000007FFFE0000
FFFFC000000000000007FFFE0000
FFFFC000000000000007FFFE0000
FFFFC000000000000007FFFE0000
FFFFC000000000000007FFFE0000
FFFFC000000000000007FFFE0000
FFFFC000000000000007FFFE0000
FFFFC000000000000007FFFE0000
FFFFC000000000000007FFFE0000
FFFFC000000000000007FFFE0000
FFFFC000000000000007FFFE0000
FFFFE000000000000007FFFE0000
FFFFE000000000000007FFFE0000
FFFFE000000000000007FFFE0000
7FFFF000000000000007FFFE0000
7FFFF000000000000007FFFE0000
7FFFF800000000000007FFFE0000
7FFFFC00000000000007FFFE0000
3FFFFE00000000000007FFFE0000
3FFFFF80000000000007FFFE0000
3FFFFFF8000000000007FFFE0000
1FFFFFFFFFFFFFFFFFFFFFFFFFFC
1FFFFFFFFFFFFFFFFFFFFFFFFFFC
0FFFFFFFFFFFFFFFFFFFFFFFFFFC
0FFFFFFFFFFFFFFFFFFFFFFFFFFC
07FFFFFFFFFFFFFFFFFFFFFFFFFC
03FFFFFFFFFFFFFFFFFFFFFFFFFC
03FFFFFFFFFFFFFFFFFFFFFFFFFC
01FFFFFFFFFFFFFFFFFFFFFFFFFC
00FFFFFFFFFFFFFFFFFFFFFFFFFC
007FFFFFFFFFFFFFFFFFFFFFFFFC
001FFFFFFFFFFFFFFFFFFFFFFFFC
000FFFFFFFFFFFFFFFFFFFFFFFFC
0003FFFFFFFFFFFFFFFFFFFFFFFC
0000FFFFFFFFFFFFFFFFFFFFFFFC
00003FFFFFFFFFFFFFFFFFFFFFFC
000007FFFFFFFFFFFFFFFFFFFFFC
0000003FFFFFFFFFFFFFFFFFFFFC
00000000000000000007FFFE0000
00000000000000000007FFFE0000
00000000000000000007FFFE0000
00000000000000000007FFFE0000
00000000000000000007FFFE0000
00000000000000000007FFFE0000
00000000000000000007FFFE0000
00000000000000000007FFFE0000
00000000000000000007FFFE0000
00000000000000000007FFFE0000
00000000000000000007FFFE0000
00000000000000000007FFFE0000
00000000000000000007FFFE0000
00000000000000000007FFFE0000
00000000000000000007FFFE0000
00000000000000000007FFFE0000
00000000000000000007FFFE0000
00000000000000000007FFFE0000
00000000000000000007FFFE0000
00000000000000000007FFFE0000
00000000000000000007FFFE0000
00000000000000000007FFFE0000
00000000000000000007FFFE0000
00000000000000000007FFFE0000
00000000000000000007FFFE0000
00000000000000000007FFFE0000
00000000000000000007FFFE0000
00000000000000000007FFFE0000
ENDCHAR
STARTCHAR five
ENCODING 53
SWIDTH 885 0
DWIDTH 127 0
BBX 110 104 9 0
BITMAP
FFFFFFFFFFFFFFFFFFFFFFFFFF80
FFFFFFFFFFFFFFFFFFFFFFFFFF80
FFFFFFFFFFFFFFFFFFFFFFFFFF80
FFFFFFFFFFFFFFFFFFFFFFFFFF80
FFFFFFFFFFFFFFFFFFFFFFFFFF80
FFFFFFFFFFFFFFFFFFFFFFFFFF80
FFFFFFFFFFFFFFFFFFFFFFFFFF80
FFFFFFFFFFFFFFFFFFFFFFFFFF80
FFFFFFFFFFFFFFFFFFFFFFFFFF80
FFFFFFFFFFFFFFFFFFFFFFFFFF80
FFFFFFFFFFFFFFFFFFFFFFFFFF80
FFFFFFFFFFFFFFFFFFFFFFFFFF80
FFFFFFFFFFFFFFFFFFFFFFFFFF80
FFFFFFFFFFFFFFFFFFFFFFFFFF80
FFFFFFFFFFFFFFFFFFFFFFFFFF80
FFFFFFFFFFFFFFFFFFFFFFFFFF80
FFFFFFFFFFFFFFFFFFFFFFFFFF80
FFFFFFFFFFFFFFFFFFFFFFFFFF80
FFFFE00000000000000000000000
FFFFE00000000000000000000000
FFFFE00000000000000000000000
FFFFE00000000000000000000000
FFFFE00000000000000000000000
FFFFE00000000000000000000000
FFFFE00000000000000000000000
FFFFE00000000000000000000000
FFFFE00000000000000000000000
FFFFE00000000000000000000000
FFFFE00000000000000000000000
FFFFE00000000000000000000000
FFFFE00000000000000000000000
FFFFE00000000000000000000000
FFFFE00000000000000000000000
FFFFE00000000000000000000000
FFFFE00000000000000000000000
FFFFE00000000000000000000000
FFFFE00000000000000000000000
FFFFE00000000000000000000000
FFFFE00000000000000000000000
FFFFE00000000000000000000000
FFFFE00000000000000000000000
FFFFE00000000000000000000000
FFFFE00000000000000000000000
FFFFE00000000000000000000000
FFFFFFFFFFFFFFFFFFFFFC000000
FFFFFFFFFFFFFFFFFFFFFFE00000
FFFFFFFFFFFFFFFFFFFFFFFC0000
FFFFFFFFFFFFFFFFFFFFFFFF0000
FFFFFFFFFFFFFFFFFFFFFFFFC000
FFFFFFFFFFFFFFFFFFFFFFFFE000
FFFFFFFFFFFFFFFFFFFFFFFFF800
FFFFFFFFFFFFFFFFFFFFFFFFFC00
FFFFFFFFFFFFFFFFFFFFFFFFFE00
FFFFFFFFFFFFFFFFFFFFFFFFFF00
FFFFFFFFFFFFFFFFFFFFFFFFFF80
FFFFFFFFFFFFFFFFFFFFFFFFFF80
FFFFFFFFFFFFFFFFFFFFFFFFFFC0
FFFFFFFFFFFFFFFFFFFFFFFFFFE0
FFFFFFFFFFFFFFFFFFFFFFFFFFE0
000000000000000000001FFFFFF0
0000000000000000000003FFFFF0
0000000000000000000000FFFFF0
00000000000000000000007FFFF8
00000000000000000000003FFFF8
00000000000000000000001FFFF8
00000000000000000000000FFFF8
00000000000000000000000FFFFC
00000000000000000000000FFFFC
000000000000000000000007FFFC
000000000000000000000007FFFC
000000000000000000000007FFFC
000000000000000000000007FFFC
000000000000000000000007FFFC
000000000000000000000007FFFC
000000000000000000000007FFFC
000000000000000000000007FFFC
00000000000000000000000FFFFC
00000000000000000000000FFFFC
00000000000000000000000FFFFC
00000000000000000000001FFFFC
00000000000000000000001FFFFC
00000000000000000000003FFFF8
00000000000000000000007FFFF8
0000000000000000000001FFFFF8
0000000000000000000007FFFFF8
000000000000000000003FFFFFF0
FFFFFFFFFFFFFFFFFFFFFFFFFFF0
FFFFFFFFFFFFFFFFFFFFFFFFFFE0
FFFFFFFFFFFFFFFFFFFFFFFFFFE0
FFFFFFFFFFFFFFFFFFFFFFFFFFC0
FFFFFFFFFFFFFFFFFFFFFFFFFFC0
FFFFFFFFFFFFFFFFFFFFFFFFFF80
FFFFFFFFFFFFFFFFFFFFFFFFFF80
FFFFFFFFFFFFFFFFFFFFFFFFFF00
FFFFFFFFFFFFFFFFFFFFFFFFFE00
FFFFFFFFFFFFFFFFFFFFFFFFFC00
FFFFFFFFFFFFFFFFFFFFFFFFF800
FFFFFFFFFFFFFFFFFFFFFFFFF000
FFFFFFFFFFFFFFFFFFFFFFFFC000
FFFFFFFFFFFFFFFFFFFFFFFF8000
FFFFFFFFFFFFFFFFFFFFFFFE0000
FFFFFFFFFFFFFFFFFFFFFFF80000
FFFFFFFFFFFFFFFFFFFFFFC00000
FFFFFFFFFFFFFFFFFFFFF8000000
ENDCHAR
STARTCHAR six
ENCODING 54
SWIDTH 872 0
DWIDTH 125 0
BBX 111 104 6 0
BITMAP
0000000001FFFFFFFFFFFFFFFFE0
000000007FFFFFFFFFFFFFFFFFE0
00000007FFFFFFFFFFFFFFFFFFE0
0000003FFFFFFFFFFFFFFFFFFFE0
000000FFFFFFFFFFFFFFFFFFFFE0
000003FFFFFFFFFFFFFFFFFFFFE0
00000FFFFFFFFFFFFFFFFFFFFFE0
00003FFFFFFFFFFFFFFFFFFFFFE0
00007FFFFFFFFFFFFFFFFFFFFFE0
0000FFFFFFFFFFFFFFFFFFFFFFE0
0003FFFFFFFFFFFFFFFFFFFFFFE0
0007FFFFFFFFFFFFFFFFFFFFFFE0
000FFFFFFFFFFFFFFFFFFFFFFFE0
001FFFFFFFFFFFFFFFFFFFFFFFE0
001FFFFFFFFFFFFFFFFFFFFFFFE0
003FFFFFFFFFFFFFFFFFFFFFFFE0
007FFFFFFFFFFFFFFFFFFFFFFFE0
00FFFFFFFFFFFFFFFFFFFFFFFFE0
00FFFFFFFFC00000000000000000
01FFFFFFF8000000000000000000
03FFFFFFC0000000000000000000
03FFFFFF00000000000000000000
07FFFFFC00000000000000000000
07FFFFF800000000000000000000
07FFFFE000000000000000000000
0FFFFFC000000000000000000000
0FFFFF8000000000000000000000
1FFFFF0000000000000000000000
1FFFFF0000000000000000000000
1FFFFE0000000000000000000000
3FFFFE0000000000000000000000
3FFFFC0000000000000000000000
3FFFFC0000000000000000000000
3FFFF80000000000000000000000
7FFFF80000000000000000000000
7FFFF00000000000000000000000
7FFFF00000000000000000000000
7FFFF00000000000000000000000
7FFFF00000000000000000000000
7FFFE00000000000000000000000
7FFFE00000000000000000000000
FFFFE00000000000000000000000
FFFFE00000000000000000000000
FFFFE00000000000000000000000
FFFFFFFFFFFFFFFFFFFFFE000000
FFFFFFFFFFFFFFFFFFFFFFF00000
FFFFFFFFFFFFFFFFFFFFFFFE0000
FFFFFFFFFFFFFFFFFFFFFFFF8000
FFFFFFFFFFFFFFFFFFFFFFFFE000
FFFFFFFFFFFFFFFFFFFFFFFFF800
FFFFFFFFFFFFFFFFFFFFFFFFFC00
FFFFFFFFFFFFFFFFFFFFFFFFFE00
FFFFFFFFFFFFFFFFFFFFFFFFFF00
FFFFFFFFFFFFFFFFFFFFFFFFFF80
FFFFFFFFFFFFFFFFFFFFFFFFFFC0
FFFFFFFFFFFFFFFFFFFFFFFFFFE0
FFFFFFFFFFFFFFFFFFFFFFFFFFE0
FFFFFFFFFFFFFFFFFFFFFFFFFFF0
FFFFFFFFFFFFFFFFFFFFFFFFFFF0
FFFFC0000000000000001FFFFFF8
FFFFE00000000000000001FFFFF8
7FFFE000000000000000007FFFFC
7FFFE000000000000000003FFFFC
7FFFE000000000000000001FFFFC
7FFFE000000000000000000FFFFC
7FFFF000000000000000000FFFFE
7FFFF0000000000000000007FFFE
7FFFF0000000000000000007FFFE
3FFFF0000000000000000007FFFE
3FFFF8000000000000000003FFFE
3FFFF8000000000000000003FFFE
3FFFF8000000000000000003FFFE
1FFFFC000000000000000003FFFE
1FFFFC000000000000000003FFFE
1FFFFE000000000000000007FFFE
0FFFFF000000000000000007FFFE
0FFFFF000000000000000007FFFE
0FFFFF800000000000000007FFFE
07FFFFC0000000000000000FFFFE
07FFFFE0000000000000000FFFFE
03FFFFF0000000000000001FFFFC
03FFFFFC000000000000003FFFFC
01FFFFFF000000000000007FFFFC
01FFFFFFC0000000000000FFFFFC
00FFFFFFF8000000000003FFFFFC
00FFFFFFFFC0000000003FFFFFF8
007FFFFFFFFFFFFFFFFFFFFFFFF8
003FFFFFFFFFFFFFFFFFFFFFFFF0
001FFFFFFFFFFFFFFFFFFFFFFFF0
001FFFFFFFFFFFFFFFFFFFFFFFE0
000FFFFFFFFFFFFFFFFFFFFFFFE0
0007FFFFFFFFFFFFFFFFFFFFFFC0
0003FFFFFFFFFFFFFFFFFFFFFFC0
0001FFFFFFFFFFFFFFFFFFFFFF80
0000FFFFFFFFFFFFFFFFFFFFFF00
00003FFFFFFFFFFFFFFFFFFFFE00
00001FFFFFFFFFFFFFFFFFFFFC00
000007FFFFFFFFFFFFFFFFFFF800
000003FFFFFFFFFFFFFFFFFFF000
000000FFFFFFFFFFFFFFFFFFC000
0000001FFFFFFFFFFFFFFFFF0000
00000003FFFFFFFFFFFFFFFC0000
000000007FFFFFFFFFFFFFE00000
0000000001FFFFFFFFFFFE000000
ENDCHAR
STARTCHAR seven
ENCODING 55
SWIDTH 756 0
DWIDTH 108 0
BBX 99 104 6 0
BITMAP
FFFFFFFFFFFFFFFFFFFFFFF000
FFFFFFFFFFFFFFFFFFFFFFFE00
FFFFFFFFFFFFFFFFFFFFFFFF00
FFFFFFFFFFFFFFFFFFFFFFFF80
FFFFFFFFFFFFFFFFFFFFFFFFC0
FFFFFFFFFFFFFFFFFFFFFFFFE0
FFFFFFFFFFFFFFFFFFFFFFFFE0
FFFFFFFFFFFFFFFFFFFFFFFFE0
FFFFFFFFFFFFFFFFFFFFFFFFE0
FFFFFFFFFFFFFFFFFFFFFFFFE0
FFFFFFFFFFFFFFFFFFFFFFFFE0
FFFFFFFFFFFFFFFFFFFFFFFFE0
FFFFFFFFFFFFFFFFFFFFFFFFC0
FFFFFFFFFFFFFFFFFFFFFFFFC0
FFFFFFFFFFFFFFFFFFFFFFFFC0
FFFFFFFFFFFFFFFFFFFFFFFF80
FFFFFFFFFFFFFFFFFFFFFFFF00
FFFFFFFFFFFFFFFFFFFFFFFE00
000000000000000000FFFFFE00
000000000000000001FFFFFC00
000000000000000003FFFFF800
000000000000000007FFFFF000
000000000000000007FFFFE000
00000000000000000FFFFFE000
00000000000000001FFFFFC000
00000000000000003FFFFF8000
00000000000000007FFFFF0000
0000000000000000FFFFFE0000
0000000000000000FFFFFC0000
0000000000000001FFFFFC0000
0000000000000003FFFFF80000
0000000000000007FFFFF00000
000000000000000FFFFFE00000
000000000000001FFFFFC00000
000000000000001FFFFFC00000
000000000000003FFFFF800000
000000000000007FFFFF000000
00000000000000FFFFFE000000
00000000000001FFFFFC000000
00000000000001FFFFF8000000
00000000000003FFFFF8000000
00000000000007FFFFF0000000
0000000000000FFFFFE0000000
0000000000001FFFFFC0000000
0000000000003FFFFF80000000
0000000000003FFFFF80000000
0000000000007FFFFF00000000
000000000000FFFFFE00000000
000000000001FFFFFC00000000
000000000003FFFFF800000000
000000000007FFFFF000000000
000000000007FFFFF000000000
00000000000FFFFFE000000000
00000000001FFFFFC000000000
00000000003FFFFF8000000000
00000000007FFFFF0000000000
0000000000FFFFFF0000000000
0000000000FFFFFE0000000000
0000000001FFFFFC0000000000
0000000003FFFFF80000000000
0000000007FFFFF00000000000
000000000FFFFFE00000000000
000000001FFFFFE00000000000
000000001FFFFFC00000000000
000000003FFFFF800000000000
000000007FFFFF000000000000
00000000FFFFFE000000000000
00000001FFFFFE000000000000
00000001FFFFFC000000000000
00000003FFFFF8000000000000
00000007FFFFF0000000000000
0000000FFFFFE0000000000000
0000001FFFFFC0000000000000
0000003FFFFFC0000000000000
0000003FFFFF80000000000000
0000007FFFFF00000000000000
000000FFFFFE00000000000000
000001FFFFFC00000000000000
000003FFFFFC00000000000000
000007FFFFF800000000000000
000007FFFFF000000000000000
00000FFFFFE000000000000000
00001FFFFFC000000000000000
00003FFFFFC000000000000000
00007FFFFF8000000000000000
0000FFFFFF0000000000000000
0000FFFFFE0000000000000000
0001FFFFFC0000000000000000
0003FFFFF80000000000000000
0007FFFFF80000000000000000
000FFFFFF00000000000000000
001FFFFFE00000000000000000
001FFFFFC00000000000000000
003FFFFF800000000000000000
007FFFFF800000000000000000
00FFFFFF000000000000000000
01FFFFFE000000000000000000
01FFFFFC000000000000000000
03FFFFF8000000000000000000
07FFFFF0000000000000000000
0FFFFFF0000000000000000000
1FFFFFE0000000000000000000
3FFFFFC0000000000000000000
7FFFFF80000000000000000000
ENDCHAR
STARTCHAR eight
ENCODING 56
SWIDTH 898 0
DWIDTH 128 0
BBX 114 104 7 0
BITMAP
0000000FFFFFFFFFFFFFFC00000000
000001FFFFFFFFFFFFFFFFF0000000
00000FFFFFFFFFFFFFFFFFFE000000
00007FFFFFFFFFFFFFFFFFFF800000
0001FFFFFFFFFFFFFFFFFFFFE00000
0007FFFFFFFFFFFFFFFFFFFFF80000
000FFFFFFFFFFFFFFFFFFFFFFE0000
001FFFFFFFFFFFFFFFFFFFFFFF0000
003FFFFFFFFFFFFFFFFFFFFFFF8000
007FFFFFFFFFFFFFFFFFFFFFFFC000
00FFFFFFFFFFFFFFFFFFFFFFFFE000
01FFFFFFFFFFFFFFFFFFFFFFFFF000
03FFFFFFFFFFFFFFFFFFFFFFFFF000
03FFFFFFFFFFFFFFFFFFFFFFFFF800
07FFFFFFFFFFFFFFFFFFFFFFFFF800
07FFFFFFFFFFFFFFFFFFFFFFFFFC00
0FFFFFFFFFFFFFFFFFFFFFFFFFFC00
0FFFFFFFFFFFFFFFFFFFFFFFFFFE00
1FFFFFFF8000000000007FFFFFFE00
1FFFFFF800000000000003FFFFFE00
1FFFFFC000000000000000FFFFFF00
1FFFFF80000000000000003FFFFF00
1FFFFF00000000000000001FFFFF00
3FFFFE00000000000000000FFFFF00
3FFFFC00000000000000000FFFFF00
3FFFFC000000000000000007FFFF00
3FFFF8000000000000000007FFFF00
3FFFF8000000000000000007FFFF00
3FFFF8000000000000000003FFFF00
3FFFF8000000000000000003FFFF00
3FFFF8000000000000000003FFFF00
1FFFF8000000000000000003FFFF00
1FFFF8000000000000000003FFFF00
1FFFF8000000000000000003FFFF00
1FFFF8000000000000000003FFFF00
1FFFF8000000000000000007FFFE00
1FFFF8000000000000000007FFFE00
0FFFFC000000000000000007FFFE00
0FFFFC00000000000000000FFFFC00
07FFFE00000000000000000FFFFC00
07FFFF00000000000000001FFFF800
03FFFF80000000000000003FFFF800
01FFFFE000000000000000FFFFF000
01FFFFFC0000000000000FFFFFE000
00FFFFFFFFFFFFFFFFFFFFFFFFC000
007FFFFFFFFFFFFFFFFFFFFFFF8000
001FFFFFFFFFFFFFFFFFFFFFFF0000
000FFFFFFFFFFFFFFFFFFFFFFC0000
0003FFFFFFFFFFFFFFFFFFFFF80000
0000FFFFFFFFFFFFFFFFFFFFC00000
0003FFFFFFFFFFFFFFFFFFFFF00000
000FFFFFFFFFFFFFFFFFFFFFFC0000
003FFFFFFFFFFFFFFFFFFFFFFF0000
007FFFFFFFFFFFFFFFFFFFFFFF8000
00FFFFFFFFFFFFFFFFFFFFFFFFC000
01FFFFFFFFFFFFFFFFFFFFFFFFF000
03FFFFFFFFFFFFFFFFFFFFFFFFF000
07FFFFFFFFFFFFFFFFFFFFFFFFF800
0FFFFFFFFFFFFFFFFFFFFFFFFFFC00
0FFFFFF800000000000007FFFFFE00
1FFFFFC000000000000000FFFFFE00
1FFFFF00000000000000003FFFFF00
3FFFFE00000000000000000FFFFF00
3FFFFC000000000000000007FFFF80
7FFFF8000000000000000003FFFF80
7FFFF0000000000000000003FFFF80
7FFFF0000000000000000001FFFF80
7FFFE0000000000000000001FFFFC0
7FFFE0000000000000000001FFFFC0
FFFFE0000000000000000000FFFFC0
FFFFE0000000000000000000FFFFC0
FFFFE0000000000000000000FFFFC0
FFFFE0000000000000000000FFFFC0
FFFFE0000000000000000000FFFFC0
FFFFE0000000000000000000FFFFC0
FFFFE0000000000000000001FFFFC0
FFFFE0000000000000000001FFFFC0
7FFFF0000000000000000001FFFFC0
7FFFF0000000000000000003FFFFC0
7FFFF8000000000000000003FFFFC0
7FFFFC000000000000000007FFFF80
7FFFFE00000000000000000FFFFF80
3FFFFF00000000000000003FFFFF80
3FFFFFC000000000000000FFFFFF80
3FFFFFF800000000000003FFFFFF00
1FFFFFFF8000000000007FFFFFFF00
1FFFFFFFFFFFFFFFFFFFFFFFFFFE00
1FFFFFFFFFFFFFFFFFFFFFFFFFFE00
0FFFFFFFFFFFFFFFFFFFFFFFFFFC00
07FFFFFFFFFFFFFFFFFFFFFFFFFC00
07FFFFFFFFFFFFFFFFFFFFFFFFF800
03FFFFFFFFFFFFFFFFFFFFFFFFF800
01FFFFFFFFFFFFFFFFFFFFFFFFF000
01FFFFFFFFFFFFFFFFFFFFFFFFE000
00FFFFFFFFFFFFFFFFFFFFFFFFC000
007FFFFFFFFFFFFFFFFFFFFFFF8000
003FFFFFFFFFFFFFFFFFFFFFFF0000
000FFFFFFFFFFFFFFFFFFFFFFE0000
0007FFFFFFFFFFFFFFFFFFFFF80000
0001FFFFFFFFFFFFFFFFFFFFF00000
00007FFFFFFFFFFFFFFFFFFFC00000
00001FFFFFFFFFFFFFFFFFFE000000
000003FFFFFFFFFFFFFFFFF0000000
0000001FFFFFFFFFFFFFFE00000000
ENDCHAR
STARTCHAR nine
ENCODING 57
SWIDTH 861 0
DWIDTH 123 0
BBX 111 104 6 0
BITMAP
000000FFFFFFFFFFFF0000000000
00000FFFFFFFFFFFFFFC00000000
00003FFFFFFFFFFFFFFF80000000
0000FFFFFFFFFFFFFFFFF0000000
0003FFFFFFFFFFFFFFFFFE000000
000FFFFFFFFFFFFFFFFFFF800000
001FFFFFFFFFFFFFFFFFFFC00000
003FFFFFFFFFFFFFFFFFFFF00000
007FFFFFFFFFFFFFFFFFFFF80000
00FFFFFFFFFFFFFFFFFFFFFE0000
01FFFFFFFFFFFFFFFFFFFFFF0000
03FFFFFFFFFFFFFFFFFFFFFF8000
03FFFFFFFFFFFFFFFFFFFFFFC000
07FFFFFFFFFFFFFFFFFFFFFFE000
0FFFFFFFFFFFFFFFFFFFFFFFF000
0FFFFFFFFFFFFFFFFFFFFFFFF000
1FFFFFFFFFFFFFFFFFFFFFFFF800
1FFFFFFFFFFFFFFFFFFFFFFFFC00
3FFFFFF80000000007FFFFFFFE00
3FFFFFC000000000003FFFFFFE00
3FFFFF00000000000007FFFFFF00
7FFFFE00000000000001FFFFFF00
7FFFFC000000000000007FFFFF80
7FFFF8000000000000003FFFFF80
7FFFF0000000000000000FFFFFC0
7FFFF00000000000000007FFFFC0
FFFFF00000000000000003FFFFE0
FFFFE00000000000000003FFFFE0
FFFFE00000000000000001FFFFE0
FFFFE00000000000000000FFFFF0
FFFFE00000000000000000FFFFF0
FFFFE000000000000000007FFFF0
FFFFC000000000000000007FFFF8
FFFFC000000000000000003FFFF8
FFFFC000000000000000003FFFF8
FFFFE000000000000000001FFFF8
FFFFE000000000000000001FFFFC
FFFFE000000000000000001FFFFC
FFFFE000000000000000001FFFFC
FFFFE000000000000000000FFFFC
7FFFF000000000000000000FFFFC
7FFFF000000000000000000FFFFC
7FFFF800000000000000000FFFFE
7FFFF800000000000000000FFFFE
7FFFFC00000000000000000FFFFE
3FFFFF000000000000000007FFFE
3FFFFF800000000000000007FFFE
3FFFFFF00000000000000007FFFE
1FFFFFFFFFFFFFFFFFFFFFFFFFFE
1FFFFFFFFFFFFFFFFFFFFFFFFFFE
0FFFFFFFFFFFFFFFFFFFFFFFFFFE
0FFFFFFFFFFFFFFFFFFFFFFFFFFE
07FFFFFFFFFFFFFFFFFFFFFFFFFE
03FFFFFFFFFFFFFFFFFFFFFFFFFE
01FFFFFFFFFFFFFFFFFFFFFFFFFE
00FFFFFFFFFFFFFFFFFFFFFFFFFE
007FFFFFFFFFFFFFFFFFFFFFFFFE
003FFFFFFFFFFFFFFFFFFFFFFFFE
001FFFFFFFFFFFFFFFFFFFFFFFFE
0007FFFFFFFFFFFFFFFFFFFFFFFE
0001FFFFFFFFFFFFFFFFFFFFFFFE
00003FFFFFFFFFFFFFFFFFFFFFFE
000001FFFFFFFFFFFFFFFFFFFFFE
00000000000000000000000FFFFE
00000000000000000000000FFFFC
00000000000000000000000FFFFC
00000000000000000000001FFFFC
00000000000000000000001FFFFC
00000000000000000000001FFFFC
00000000000000000000003FFFFC
00000000000000000000003FFFF8
00000000000000000000003FFFF8
00000000000000000000007FFFF8
00000000000000000000007FFFF8
0000000000000000000000FFFFF0
0000000000000000000001FFFFF0
0000000000000000000001FFFFF0
0000000000000000000003FFFFE0
0000000000000000000007FFFFE0
000000000000000000000FFFFFC0
000000000000000000001FFFFFC0
000000000000000000007FFFFFC0
00000000000000000000FFFFFF80
00000000000000000007FFFFFF80
0000000000000000001FFFFFFF00
000000000000000003FFFFFFFE00
000FFFFFFFFFFFFFFFFFFFFFFE00
000FFFFFFFFFFFFFFFFFFFFFFC00
000FFFFFFFFFFFFFFFFFFFFFF800
000FFFFFFFFFFFFFFFFFFFFFF800
000FFFFFFFFFFFFFFFFFFFFFF000
000FFFFFFFFFFFFFFFFFFFFFE000
000FFFFFFFFFFFFFFFFFFFFFC000
000FFFFFFFFFFFFFFFFFFFFF8000
000FFFFFFFFFFFFFFFFFFFFF0000
000FFFFFFFFFFFFFFFFFFFFC0000
000FFFFFFFFFFFFFFFFFFFF80000
000FFFFFFFFFFFFFFFFFFFE00000
000FFFFFFFFFFFFFFFFFFFC00000
000FFFFFFFFFFFFFFFFFFF000000
000FFFFFFFFFFFFFFFFFF8000000
000FFFFFFFFFFFFFFFFFC0000000
000FFFFFFFFFFFFFFFFC00000000
000FFFFFFFFFFFFFFF0000000000
ENDCHAR
STARTCHAR colon
ENCODING 58
SWIDTH 262 0
DWIDTH 37 0
BBX 19 66 9 0
BITMAP
03F800
0FFE00
1FFF00
3FFF80
7FFFC0
7FFFE0
FFFFE0
FFFFE0
FFFFE0
FFFFE0
FFFFE0
FFFFE0
FFFFE0
7FFFE0
7FFFC0
3FFF80
1FFF00
0FFE00
03F800
000000
000000
000000
000000
000000
000000
000000
000000
000000
000000
000000
000000
000000
000000
000000
000000
000000
000000
000000
000000
000000
000000
000000
000000
000000
000000
000000
000000
03F800
0FFE00
1FFF00
3FFF80
7FFFC0
7FFFE0
FFFFE0
FFFFE0
FFFFE0
FFFFE0
FFFFE0
FFFFE0
FFFFE0
7FFFE0
7FFFC0
3FFF80
1FFF00
0FFE00
03F800
ENDCHAR
STARTCHAR semicolon
ENCODING 59
SWIDTH 262 0
DWIDTH 37 0
BBX 19 82 9 -17
BITMAP
03F800
0FFE00
1FFF80
3FFF80
7FFFC0
7FFFE0
7FFFE0
FFFFE0
FFFFE0
FFFFE0
FFFFE0
FFFFE0
7FFFE0
7FFFE0
7FFFC0
3FFF80
1FFF00
0FFE00
03F800
000000
000000
000000
000000
000000
000000
000000
000000
000000
000000
000000
000000
000000
000000
000000
000000
000000
000000
000000
000000
000000
000000
000000
000000
000000
000000
7FFFE0
7FFFE0
7FFFE0
7FFFC0
7FFFC0
7FFFC0
7FFFC0
7FFFC0
7FFF80
7FFF80
7FFF80
7FFF80
7FFF80
7FFF00
7FFF00
7FFF00
7FFF00
7FFF00
7FFE00
7FFE00
7FFE00
7FFE00
7FFE00
7FFE00
7FFC00
7FFC00
7FFC00
7FFC00
7FFC00
7FF800
7FF800
7FF800
7FF800
7FF800
7FF000
7FF000
7FF000
ENDCHAR
STARTCHAR less
ENCODING 60
SWIDTH 690 0
DWIDTH 99 0
BBX 81 77 9 14
BITMAP
0000000000000000000380
0000000000000000000F80
0000000000000000003F80
000000000000000001FF80
000000000000000007FF80
00000000000000001FFF80
0000000000000000FFFF80
0000000000000003FFFF80
000000000000001FFFFF80
000000000000007FFFFF80
00000000000001FFFFFF80
0000000000000FFFFFFF80
0000000000003FFFFFFF80
000000000001FFFFFFFC00
000000000007FFFFFFF000
00000000001FFFFFFF8000
0000000000FFFFFFFE0000
0000000003FFFFFFF00000
000000000FFFFFFFC00000
000000007FFFFFFE000000
00000001FFFFFFF0000000
0000000FFFFFFFC0000000
0000003FFFFFFE00000000
000000FFFFFFF800000000
000007FFFFFFC000000000
00001FFFFFFF0000000000
0000FFFFFFF80000000000
0003FFFFFFE00000000000
000FFFFFFF000000000000
007FFFFFF8000000000000
01FFFFFFE0000000000000
07FFFFFF00000000000000
1FFFFFFC00000000000000
3FFFFFE000000000000000
7FFFFF8000000000000000
7FFFFC0000000000000000
FFFFF00000000000000000
FFFF800000000000000000
FFFF800000000000000000
FFFFE00000000000000000
FFFFFC0000000000000000
7FFFFF0000000000000000
3FFFFFE000000000000000
1FFFFFF800000000000000
0FFFFFFF00000000000000
01FFFFFFC0000000000000
007FFFFFF8000000000000
001FFFFFFE000000000000
0003FFFFFFC00000000000
0000FFFFFFF00000000000
00003FFFFFFE0000000000
000007FFFFFF8000000000
000001FFFFFFF000000000
0000003FFFFFFC00000000
0000000FFFFFFF80000000
00000003FFFFFFF0000000
000000007FFFFFFC000000
000000001FFFFFFF800000
0000000007FFFFFFE00000
0000000000FFFFFFFC0000
00000000003FFFFFFF0000
000000000007FFFFFFE000
000000000001FFFFFFF800
0000000000007FFFFFFF00
0000000000000FFFFFFF80
00000000000003FFFFFF80
00000000000000FFFFFF80
000000000000001FFFFF80
0000000000000007FFFF80
0000000000000000FFFF80
00000000000000003FFF80
00000000000000000FFF80
000000000000000001FF80
0000000000000000007F80
0000000000000000001F80
0000000000000000000380
0000000000000000000080
ENDCHAR
STARTCHAR equal
ENCODING 61
SWIDTH 690 0
DWIDTH 99 0
BBX 81 51 9 27
BITMAP
FFFFFFFFFFFFFFFFFFFF80
FFFFFFFFFFFFFFFFFFFF80
FFFFFFFFFFFFFFFFFFFF80
FFFFFFFFFFFFFFFFFFFF80
FFFFFFFFFFFFFFFFFFFF80
FFFFFFFFFFFFFFFFFFFF80
FFFFFFFFFFFFFFFFFFFF80
FFFFFFFFFFFFFFFFFFFF80
FFFFFFFFFFFFFFFFFFFF80
FFFFFFFFFFFFFFFFFFFF80
FFFFFFFFFFFFFFFFFFFF80
FFFFFFFFFFFFFFFFFFFF80
0000000000000000000000
0000000000000000000000
0000000000000000000000
0000000000000000000000
0000000000000000000000
0000000000000000000000
0000000000000000000000
0000000000000000000000
0000000000000000000000
0000000000000000000000
0000000000000000000000
0000000000000000000000
0000000000000000000000
0000000000000000000000
0000000000000000000000
0000000000000000000000
0000000000000000000000
0000000000000000000000
0000000000000000000000
0000000000000000000000
0000000000000000000000
0000000000000000000000
0000000000000000000000
0000000000000000000000
0000000000000000000000
0000000000000000000000
0000000000000000000000
FFFFFFFFFFFFFFFFFFFF80
FFFFFFFFFFFFFFFFFFFF80
FFFFFFFFFFFFFFFFFFFF80
FFFFFFFFFFFFFFFFFFFF80
FFFFFFFFFFFFFFFFFFFF80
FFFFFFFFFFFFFFFFFFFF80
FFFFFFFFFFFFFFFFFFFF80
FFFFFFFFFFFFFFFFFFFF80
FFFFFFFFFFFFFFFFFFFF80
FFFFFFFFFFFFFFFFFFFF80
FFFFFFFFFFFFFFFFFFFF80
FFFFFFFFFFFFFFFFFFFF80
ENDCHAR
STARTCHAR greater
ENCODING 62
SWIDTH 690 0
DWIDTH 99 0
BBX 81 77 9 14
BITMAP
C000000000000000000000
F800000000000000000000
FE00000000000000000000
FF80000000000000000000
FFF0000000000000000000
FFFC000000000000000000
FFFF800000000000000000
FFFFE00000000000000000
FFFFF80000000000000000
FFFFFF0000000000000000
FFFFFFC000000000000000
FFFFFFF000000000000000
FFFFFFFE00000000000000
3FFFFFFF80000000000000
07FFFFFFF0000000000000
01FFFFFFFC000000000000
003FFFFFFF000000000000
000FFFFFFFE00000000000
0001FFFFFFF80000000000
00003FFFFFFE0000000000
00000FFFFFFFC000000000
000001FFFFFFF000000000
0000007FFFFFFE00000000
0000000FFFFFFF80000000
00000003FFFFFFE0000000
000000007FFFFFFC000000
000000000FFFFFFF000000
0000000003FFFFFFE00000
00000000007FFFFFF80000
00000000001FFFFFFE0000
000000000003FFFFFFC000
000000000000FFFFFFF000
0000000000001FFFFFFC00
00000000000007FFFFFE00
00000000000000FFFFFF00
000000000000001FFFFF00
0000000000000007FFFF00
0000000000000000FFFF80
0000000000000000FFFF80
0000000000000003FFFF80
000000000000001FFFFF00
000000000000007FFFFF00
00000000000003FFFFFE00
0000000000001FFFFFFC00
0000000000007FFFFFF000
000000000003FFFFFFC000
00000000000FFFFFFF0000
00000000007FFFFFF80000
0000000001FFFFFFE00000
000000000FFFFFFF800000
000000003FFFFFFC000000
00000001FFFFFFF0000000
00000007FFFFFFC0000000
0000003FFFFFFE00000000
000000FFFFFFF800000000
000007FFFFFFC000000000
00001FFFFFFF0000000000
0000FFFFFFFC0000000000
0007FFFFFFE00000000000
001FFFFFFF800000000000
00FFFFFFFE000000000000
03FFFFFFF0000000000000
1FFFFFFFC0000000000000
7FFFFFFE00000000000000
FFFFFFF800000000000000
FFFFFFE000000000000000
FFFFFF0000000000000000
FFFFFC0000000000000000
FFFFF00000000000000000
FFFF800000000000000000
FFFE000000000000000000
FFF0000000000000000000
FFC0000000000000000000
FF00000000000000000000
F800000000000000000000
E000000000000000000000
8000000000000000000000
ENDCHAR
STARTCHAR question
ENCODING 63
SWIDTH 776 0
DWIDTH 111 0
BBX 101 104 6 0
BITMAP
FFFFFFFFFFFFFFFFFFF0000000
FFFFFFFFFFFFFFFFFFFF000000
FFFFFFFFFFFFFFFFFFFFE00000
FFFFFFFFFFFFFFFFFFFFFC0000
FFFFFFFFFFFFFFFFFFFFFF0000
FFFFFFFFFFFFFFFFFFFFFF8000
FFFFFFFFFFFFFFFFFFFFFFE000
FFFFFFFFFFFFFFFFFFFFFFF000
FFFFFFFFFFFFFFFFFFFFFFF800
FFFFFFFFFFFFFFFFFFFFFFFC00
FFFFFFFFFFFFFFFFFFFFFFFE00
FFFFFFFFFFFFFFFFFFFFFFFE00
FFFFFFFFFFFFFFFFFFFFFFFF00
FFFFFFFFFFFFFFFFFFFFFFFF80
FFFFFFFFFFFFFFFFFFFFFFFF80
FFFFFFFFFFFFFFFFFFFFFFFFC0
FFFFFFFFFFFFFFFFFFFFFFFFC0
FFFFFFFFFFFFFFFFFFFFFFFFE0
000000000000000000FFFFFFE0
0000000000000000000FFFFFE0
00000000000000000007FFFFF0
00000000000000000001FFFFF0
00000000000000000000FFFFF0
00000000000000000000FFFFF0
000000000000000000007FFFF0
000000000000000000007FFFF8
000000000000000000003FFFF8
000000000000000000003FFFF8
000000000000000000003FFFF8
000000000000000000003FFFF8
000000000000000000003FFFF8
000000000000000000003FFFF8
000000000000000000003FFFF0
000000000000000000003FFFF0
000000000000000000003FFFF0
000000000000000000007FFFF0
000000000000000000007FFFF0
00000000000000000000FFFFF0
00000000000000000000FFFFE0
00000000000000000001FFFFE0
00000000000000000003FFFFE0
0000000000000000000FFFFFC0
0000000000000000007FFFFFC0
0000001FFFFFFFFFFFFFFFFF80
000001FFFFFFFFFFFFFFFFFF80
00000FFFFFFFFFFFFFFFFFFF00
00001FFFFFFFFFFFFFFFFFFE00
00007FFFFFFFFFFFFFFFFFFC00
0000FFFFFFFFFFFFFFFFFFFC00
0001FFFFFFFFFFFFFFFFFFF800
0003FFFFFFFFFFFFFFFFFFF000
0007FFFFFFFFFFFFFFFFFFC000
0007FFFFFFFFFFFFFFFFFF8000
000FFFFFFFFFFFFFFFFFFE0000
000FFFFFFFFFFFFFFFFFF80000
001FFFFFFFFFFFFFFFFFE00000
001FFFFFFFFFFFFFFFFF000000
001FFFFFFFFFFFFFFFF0000000
003FFFFE000000000000000000
003FFFF8000000000000000000
003FFFF0000000000000000000
003FFFF0000000000000000000
003FFFE0000000000000000000
003FFFE0000000000000000000
003FFFE0000000000000000000
003FFFE0000000000000000000
003FFFE0000000000000000000
003FFFE0000000000000000000
003FFFE0000000000000000000
003FFFE0000000000000000000
00000000000000000000000000
00000000000000000000000000
00000000000000000000000000
00000000000000000000000000
00000000000000000000000000
00000000000000000000000000
00000000000000000000000000
00000000000000000000000000
00000000000000000000000000
00000000000000000000000000
00000000000000000000000000
00000000000000000000000000
00000000000000000000000000
00000000000000000000000000
00000000000000000000000000
0000FC00000000000000000000
0007FF00000000000000000000
000FFFC0000000000000000000
001FFFE0000000000000000000
003FFFE0000000000000000000
003FFFF0000000000000000000
003FFFF0000000000000000000
007FFFF0000000000000000000
007FFFF8000000000000000000
007FFFF8000000000000000000
007FFFF8000000000000000000
007FFFF0000000000000000000
003FFFF0000000000000000000
003FFFF0000000000000000000
003FFFE0000000000000000000
001FFFE0000000000000000000
000FFFC0000000000000000000
0007FF00000000000000000000
0000FC00000000000000000000
ENDCHAR
STARTCHAR at
ENCODING 64
SWIDTH 833 0
DWIDTH 119 0
BBX 104 104 6 0
BITMAP
000000000007FFFFFFFFFFFFFF
0000000001FFFFFFFFFFFFFFFF
000000000FFFFFFFFFFFFFFFFF
000000007FFFFFFFFFFFFFFFFF
00000003FFFFFFFFFFFFFFFFFF
0000000FFFFFFFFFFFFFFFFFFF
0000003FFFFFFFFFFFFFFFFFFF
0000007FFFFFFFFFFFFFFFFFFF
000001FFFFFFFFFFFFFFFFFFFF
000003FFFFFFFFFFFFFFFFFFFF
00000FFFFFFFFFFFFFFFFFFFFF
00001FFFFFFFFFFFFFFFFFFFFF
00003FFFFFFFFFFFFFFFFFFFFF
00007FFFFFF800000000001FFF
0000FFFFFF0000000000001FFF
0001FFFFF80000000000001FFF
0003FFFFE00000000000001FFF
0007FFFF800000000000001FFF
000FFFFE000000000000001FFF
001FFFF8000000000000001FFF
003FFFF0000000000000001FFF
003FFFE0000000000000001FFF
007FFF80000000000000001FFF
00FFFF00000000000000001FFF
00FFFE00000000000000001FFF
01FFFC00000000000000001FFF
01FFFC00000000000000001FFF
03FFF800000000000000001FFF
03FFF000000000000000001FFF
07FFE0000007FFFFFFFC001FFF
07FFE000003FFFFFFFFC001FFF
0FFFC00000FFFFFFFFFC001FFF
0FFFC00001FFFFFFFFFC001FFF
1FFF800007FFFFFFFFFC001FFF
1FFF80000FFFFFFFFFFC001FFF
1FFF00001FFFFFFFFFFC001FFF
3FFF00001FFFFFFFFFFC001FFF
3FFF00003FFFFFFFFFFC001FFF
3FFE00007FFFFFFFFFFC001FFF
3FFE00007FFFC0003FFC001FFF
7FFE0000FFFE00003FFC001FFF
7FFE0000FFFC00003FFC001FFF
7FFC0001FFF800003FFC001FFF
7FFC0001FFF000003FFC001FFF
7FFC0001FFE000003FFC001FFF
FFFC0003FFE000003FFC001FFF
FFFC0003FFE000003FFC001FFF
FFFC0003FFC000003FFC001FFF
FFFC0003FFC000003FFC001FFF
FFFC0003FFC000003FFC001FFF
FFFC0003FFC000003FFC001FFF
FFFC0003FFC000003FFC001FFF
FFFC0003FFC000003FFC001FFF
FFFC0003FFC000003FFC001FFF
FFFC0003FFC000003FFC001FFF
FFFC0003FFC000003FFC001FFF
FFFC0003FFC000003FFC001FFF
FFFC0003FFE000003FFC001FFF
FFFC0003FFE000003FFC001FFF
FFFC0003FFF000003FFC001FFF
FFFC0001FFF000003FFC001FFF
7FFC0001FFF800003FFC001FFF
7FFE0001FFFC00003FFC001FFF
7FFE0000FFFF00003FFC001FFF
7FFE0000FFFFC0003FFC001FFF
7FFE00007FFFFFFFFFFFFFFFFF
7FFF00007FFFFFFFFFFFFFFFFF
3FFF00003FFFFFFFFFFFFFFFFF
3FFF80001FFFFFFFFFFFFFFFFF
3FFF80000FFFFFFFFFFFFFFFFF
1FFF80000FFFFFFFFFFFFFFFFF
1FFFC00003FFFFFFFFFFFFFFFF
1FFFC00001FFFFFFFFFFFFFFFF
0FFFE00000FFFFFFFFFFFFFFFF
0FFFF000003FFFFFFFFFFFFFFF
07FFF0000007FFFFFFFFFFFFFF
07FFF800000000000000000000
03FFFC00000000000000000000
03FFFC00000000000000000000
01FFFE00000000000000000000
01FFFF00000000000000000000
00FFFF80000000000000000000
00FFFFE0000000000000000000
007FFFF0000000000000000000
003FFFF8000000000000000000
001FFFFE000000000000000000
001FFFFF800000000000000000
000FFFFFE00000000000000000
0007FFFFF80000000000000000
0003FFFFFF0000000000000000
0001FFFFFFF800000000000000
0000FFFFFFFFFFFFFFFFFFFFFF
00003FFFFFFFFFFFFFFFFFFFFF
00001FFFFFFFFFFFFFFFFFFFFF
00000FFFFFFFFFFFFFFFFFFFFF
000003FFFFFFFFFFFFFFFFFFFF
000001FFFFFFFFFFFFFFFFFFFF
0000007FFFFFFFFFFFFFFFFFFF
0000001FFFFFFFFFFFFFFFFFFF
00000007FFFFFFFFFFFFFFFFFF
00000000FFFFFFFFFFFFFFFFFF
000000001FFFFFFFFFFFFFFFFF
0000000003FFFFFFFFFFFFFFFF
00000000000FFFFFFFFFFFFFFF
ENDCHAR
STARTCHAR A
ENCODING 65
SWIDTH 989 0
DWIDTH 141 0
BBX 137 106 2 0
BITMAP
000000000000000008000000000000000000
0000000000000000FF800000000000000000
0000000000000001FFC00000000000000000
0000000000000003FFE00000000000000000
0000000000000007FFF00000000000000000
000000000000000FFFF80000000000000000
000000000000000FFFF80000000000000000
000000000000001FFFFC0000000000000000
000000000000003FFFFE0000000000000000
000000000000003FFFFE0000000000000000
000000000000007FFFFF0000000000000000
000000000000007FFFFF0000000000000000
00000000000000FFFFFF8000000000000000
00000000000001FFFFFFC000000000000000
00000000000001FFFFFFC000000000000000
00000000000003FFFFFFE000000000000000
00000000000003FFFFFFE000000000000000
00000000000007FFFFFFF000000000000000
0000000000000FFFFFFFF800000000000000
0000000000000FFFFFFFF800000000000000
0000000000001FFFFFFFFC00000000000000
0000000000001FFFFFFFFC00000000000000
0000000000003FFFFFFFFE00000000000000
0000000000007FFFFFFFFF00000000000000
0000000000007FFFFFFFFF00000000000000
000000000000FFFFFFFFFF80000000000000
000000000000FFFFFFFFFF80000000000000
000000000001FFFFEFFFFFC0000000000000
000000000003FFFFE7FFFFE0000000000000
000000000003FFFFC3FFFFE0000000000000
000000000007FFFFC3FFFFF0000000000000
000000000007FFFF81FFFFF0000000000000
00000000000FFFFF01FFFFF8000000000000
00000000001FFFFF00FFFFFC000000000000
00000000001FFFFE007FFFFC000000000000
00000000003FFFFE007FFFFE000000000000
00000000003FFFFC003FFFFE000000000000
00000000007FFFFC003FFFFF000000000000
0000000000FFFFF8001FFFFF800000000000
0000000000FFFFF0000FFFFF800000000000
0000000001FFFFF0000FFFFFC00000000000
0000000001FFFFE00007FFFFC00000000000
0000000003FFFFE00007FFFFE00000000000
0000000007FFFFC00003FFFFF00000000000
0000000007FFFF800001FFFFF00000000000
000000000FFFFF800001FFFFF80000000000
000000000FFFFF000000FFFFFC0000000000
000000001FFFFF0000007FFFFC0000000000
000000003FFFFE0000007FFFFE0000000000
000000003FFFFC0000003FFFFE0000000000
000000007FFFFC0000003FFFFF0000000000
000000007FFFF80000001FFFFF8000000000
00000000FFFFF80000000FFFFF8000000000
00000001FFFFF00000000FFFFFC000000000
00000001FFFFE000000007FFFFC000000000
00000003FFFFE000000007FFFFE000000000
00000003FFFFC000000003FFFFF000000000
00000007FFFFC000000001FFFFF000000000
0000000FFFFF8000000001FFFFF800000000
0000000FFFFF0000000000FFFFF800000000
0000001FFFFF0000000000FFFFFC00000000
0000001FFFFE00000000007FFFFE00000000
0000003FFFFE00000000003FFFFE00000000
0000007FFFFC00000000003FFFFF00000000
0000007FFFF800000000001FFFFF00000000
000000FFFFF8001FFFFFFFFFFFFF80000000
000000FFFFF0003FFFFFFFFFFFFFC0000000
000001FFFFF0003FFFFFFFFFFFFFC0000000
000003FFFFE0007FFFFFFFFFFFFFE0000000
000003FFFFC0007FFFFFFFFFFFFFE0000000
000007FFFFC000FFFFFFFFFFFFFFF0000000
000007FFFF8001FFFFFFFFFFFFFFF8000000
00000FFFFF8001FFFFFFFFFFFFFFF8000000
00001FFFFF0003FFFFFFFFFFFFFFFC000000
00001FFFFE0003FFFFFFFFFFFFFFFC000000
00003FFFFE0007FFFFFFFFFFFFFFFE000000
00003FFFFC0007FFFFFFFFFFFFFFFF000000
00007FFFFC000FFFFFFFFFFFFFFFFF000000
0000FFFFF8001FFFFFFFFFFFFFFFFF800000
0000FFFFF8001FFFFFFFFFFFFFFFFF800000
0001FFFFF0000000000000000FFFFFC00000
0001FFFFE00000000000000007FFFFE00000
0003FFFFE00000000000000007FFFFE00000
0007FFFFC00000000000000003FFFFF00000
0007FFFFC00000000000000001FFFFF00000
000FFFFF800000000000000001FFFFF80000
000FFFFF000000000000000000FFFFFC0000
001FFFFF000000000000000000FFFFFC0000
003FFFFE0000000000000000007FFFFE0000
003FFFFE0000000000000000003FFFFE0000
007FFFFC0000000000000000003FFFFF0000
007FFFF80000000000000000001FFFFF8000
00FFFFF80000000000000000001FFFFF8000
01FFFFF00000000000000000000FFFFFC000
01FFFFF000000000000000000007FFFFC000
03FFFFE000000000000000000007FFFFE000
03FFFFC000000000000000000003FFFFF000
07FFFFC000000000000000000003FFFFF000
0FFFFF8000000000000000000001FFFFF800
0FFFFF8000000000000000000000FFFFF800
1FFFFF0000000000000000000000FFFFFC00
1FFFFE00000000000000000000007FFFFE00
3FFFFE00000000000000000000007FFFFE00
7FFFFC00000000000000000000003FFFFF00
7FFFFC00000000000000000000001FFFFF00
FFFFF800000000000000000000001FFFFF80
ENDCHAR
STARTCHAR B
ENCODING 66
SWIDTH 891 0
DWIDTH 127 0
BBX 112 104 9 0
BITMAP
FFFFFFFFFFFFFFFFFFFFF0000000
FFFFFFFFFFFFFFFFFFFFFF800000
FFFFFFFFFFFFFFFFFFFFFFF00000
FFFFFFFFFFFFFFFFFFFFFFFE0000
FFFFFFFFFFFFFFFFFFFFFFFF8000
FFFFFFFFFFFFFFFFFFFFFFFFC000
FFFFFFFFFFFFFFFFFFFFFFFFF000
FFFFFFFFFFFFFFFFFFFFFFFFF800
FFFFFFFFFFFFFFFFFFFFFFFFFC00
FFFFFFFFFFFFFFFFFFFFFFFFFE00
FFFFFFFFFFFFFFFFFFFFFFFFFF00
FFFFFFFFFFFFFFFFFFFFFFFFFF80
FFFFFFFFFFFFFFFFFFFFFFFFFFC0
FFFFFFFFFFFFFFFFFFFFFFFFFFC0
FFFFFFFFFFFFFFFFFFFFFFFFFFE0
FFFFFFFFFFFFFFFFFFFFFFFFFFE0
FFFFFFFFFFFFFFFFFFFFFFFFFFF0
FFFFFFFFFFFFFFFFFFFFFFFFFFF0
FFFFC00000000000000FFFFFFFF0
FFFFC0000000000000001FFFFFF8
FFFFC00000000000000007FFFFF8
FFFFC00000000000000001FFFFF8
FFFFC00000000000000000FFFFF8
FFFFC000000000000000007FFFF8
FFFFC000000000000000003FFFFC
FFFFC000000000000000003FFFFC
FFFFC000000000000000001FFFFC
FFFFC000000000000000001FFFFC
FFFFC000000000000000001FFFFC
FFFFC000000000000000001FFFFC
FFFFC000000000000000001FFFFC
FFFFC000000000000000001FFFF8
FFFFC000000000000000001FFFF8
FFFFC000000000000000001FFFF8
FFFFC000000000000000001FFFF8
FFFFC000000000000000001FFFF8
FFFFC000000000000000001FFFF0
FFFFC000000000000000003FFFF0
FFFFC000000000000000003FFFF0
FFFFC000000000000000007FFFE0
FFFFC00000000000000000FFFFE0
FFFFC00000000000000001FFFFC0
FFFFC00000000000000007FFFF80
FFFFC0000000000000003FFFFF80
FFFFC001FFFFFFFFFFFFFFFFFF00
FFFFC001FFFFFFFFFFFFFFFFFE00
FFFFC001FFFFFFFFFFFFFFFFF800
FFFFC001FFFFFFFFFFFFFFFFF000
FFFFC001FFFFFFFFFFFFFFFFC000
FFFFC001FFFFFFFFFFFFFFFF0000
FFFFC001FFFFFFFFFFFFFFFFC000
FFFFC001FFFFFFFFFFFFFFFFF000
FFFFC001FFFFFFFFFFFFFFFFF800
FFFFC001FFFFFFFFFFFFFFFFFE00
FFFFC001FFFFFFFFFFFFFFFFFF00
FFFFC001FFFFFFFFFFFFFFFFFF80
FFFFC001FFFFFFFFFFFFFFFFFFC0
FFFFC001FFFFFFFFFFFFFFFFFFE0
FFFFC001FFFFFFFFFFFFFFFFFFE0
FFFFC0000000000000001FFFFFF0
FFFFC00000000000000003FFFFF8
FFFFC00000000000000000FFFFF8
FFFFC000000000000000007FFFFC
FFFFC000000000000000003FFFFC
FFFFC000000000000000001FFFFC
FFFFC000000000000000000FFFFE
FFFFC000000000000000000FFFFE
FFFFC000000000000000000FFFFE
FFFFC0000000000000000007FFFE
FFFFC0000000000000000007FFFE
FFFFC0000000000000000007FFFE
FFFFC0000000000000000007FFFF
FFFFC0000000000000000007FFFF
FFFFC0000000000000000007FFFF
FFFFC0000000000000000007FFFF
FFFFC0000000000000000007FFFE
FFFFC000000000000000000FFFFE
FFFFC000000000000000000FFFFE
FFFFC000000000000000000FFFFE
FFFFC000000000000000001FFFFE
FFFFC000000000000000003FFFFE
FFFFC000000000000000007FFFFE
FFFFC00000000000000001FFFFFC
FFFFC00000000000000007FFFFFC
FFFFC0000000000000001FFFFFFC
FFFFC000000000000007FFFFFFF8
FFFFFFFFFFFFFFFFFFFFFFFFFFF8
FFFFFFFFFFFFFFFFFFFFFFFFFFF0
FFFFFFFFFFFFFFFFFFFFFFFFFFF0
FFFFFFFFFFFFFFFFFFFFFFFFFFE0
FFFFFFFFFFFFFFFFFFFFFFFFFFE0
FFFFFFFFFFFFFFFFFFFFFFFFFFC0
FFFFFFFFFFFFFFFFFFFFFFFFFF80
FFFFFFFFFFFFFFFFFFFFFFFFFF00
FFFFFFFFFFFFFFFFFFFFFFFFFF00
FFFFFFFFFFFFFFFFFFFFFFFFFC00
FFFFFFFFFFFFFFFFFFFFFFFFF800
FFFFFFFFFFFFFFFFFFFFFFFFF000
FFFFFFFFFFFFFFFFFFFFFFFFE000
FFFFFFFFFFFFFFFFFFFFFFFF8000
FFFFFFFFFFFFFFFFFFFFFFFE0000
FFFFFFFFFFFFFFFFFFFFFFF80000
FFFFFFFFFFFFFFFFFFFFFFC00000
FFFFFFFFFFFFFFFFFFFFF8000000
ENDCHAR
STARTCHAR C
ENCODING 67
SWIDTH 829 0
DWIDTH 119 0
BBX 107 104 6 0
BITMAP
00000000001FFFFFFFFFFFFFFFE0
0000000007FFFFFFFFFFFFFFFFE0
000000003FFFFFFFFFFFFFFFFFE0
00000001FFFFFFFFFFFFFFFFFFE0
0000000FFFFFFFFFFFFFFFFFFFE0
0000003FFFFFFFFFFFFFFFFFFFE0
000000FFFFFFFFFFFFFFFFFFFFE0
000001FFFFFFFFFFFFFFFFFFFFE0
000007FFFFFFFFFFFFFFFFFFFFE0
00000FFFFFFFFFFFFFFFFFFFFFE0
00003FFFFFFFFFFFFFFFFFFFFFE0
00007FFFFFFFFFFFFFFFFFFFFFE0
0000FFFFFFFFFFFFFFFFFFFFFFE0
0001FFFFFFFFFFFFFFFFFFFFFFE0
0003FFFFFFFFFFFFFFFFFFFFFFE0
0007FFFFFFFFFFFFFFFFFFFFFFE0
000FFFFFFFFFFFFFFFFFFFFFFFE0
001FFFFFFFFFFFFFFFFFFFFFFFE0
003FFFFFFFFC0000000000000000
003FFFFFFF800000000000000000
007FFFFFFC000000000000000000
00FFFFFFF0000000000000000000
00FFFFFFC0000000000000000000
01FFFFFF00000000000000000000
03FFFFFE00000000000000000000
03FFFFFC00000000000000000000
07FFFFF000000000000000000000
07FFFFE000000000000000000000
0FFFFFC000000000000000000000
0FFFFFC000000000000000000000
0FFFFF8000000000000000000000
1FFFFF0000000000000000000000
1FFFFE0000000000000000000000
1FFFFE0000000000000000000000
3FFFFC0000000000000000000000
3FFFFC0000000000000000000000
3FFFF80000000000000000000000
7FFFF80000000000000000000000
7FFFF00000000000000000000000
7FFFF00000000000000000000000
7FFFF00000000000000000000000
7FFFE00000000000000000000000
7FFFE00000000000000000000000
FFFFE00000000000000000000000
FFFFE00000000000000000000000
FFFFE00000000000000000000000
FFFFC00000000000000000000000
FFFFC00000000000000000000000
FFFFC00000000000000000000000
FFFFC00000000000000000000000
FFFFC00000000000000000000000
FFFFC00000000000000000000000
FFFFC00000000000000000000000
FFFFC00000000000000000000000
FFFFC00000000000000000000000
FFFFC00000000000000000000000
FFFFC00000000000000000000000
FFFFE00000000000000000000000
FFFFE00000000000000000000000
7FFFE00000000000000000000000
7FFFE00000000000000000000000
7FFFE00000000000000000000000
7FFFF00000000000000000000000
7FFFF00000000000000000000000
7FFFF00000000000000000000000
3FFFF80000000000000000000000
3FFFF80000000000000000000000
3FFFF80000000000000000000000
1FFFFC0000000000000000000000
1FFFFC0000000000000000000000
1FFFFE0000000000000000000000
0FFFFF0000000000000000000000
0FFFFF0000000000000000000000
0FFFFF8000000000000000000000
07FFFFC000000000000000000000
07FFFFE000000000000000000000
03FFFFF000000000000000000000
03FFFFF800000000000000000000
01FFFFFC00000000000000000000
01FFFFFE00000000000000000000
00FFFFFF00000000000000000000
007FFFFFC0000000000000000000
007FFFFFF0000000000000000000
003FFFFFFC000000000000000000
001FFFFFFF800000000000000000
001FFFFFFFFC0000000000000000
000FFFFFFFFFFFFFFFFFFFFFFFE0
0007FFFFFFFFFFFFFFFFFFFFFFE0
0003FFFFFFFFFFFFFFFFFFFFFFE0
0001FFFFFFFFFFFFFFFFFFFFFFE0
0000FFFFFFFFFFFFFFFFFFFFFFE0
00007FFFFFFFFFFFFFFFFFFFFFE0
00003FFFFFFFFFFFFFFFFFFFFFE0
00000FFFFFFFFFFFFFFFFFFFFFE0
000007FFFFFFFFFFFFFFFFFFFFE0
000003FFFFFFFFFFFFFFFFFFFFE0
000000FFFFFFFFFFFFFFFFFFFFE0
0000003FFFFFFFFFFFFFFFFFFFE0
0000001FFFFFFFFFFFFFFFFFFFE0
00000007FFFFFFFFFFFFFFFFFFE0
00000000FFFFFFFFFFFFFFFFFFE0
000000003FFFFFFFFFFFFFFFFFE0
0000000003FFFFFFFFFFFFFFFFE0
00000000001FFFFFFFFFFFFFFFE0
ENDCHAR
STARTCHAR D
ENCODING 68
SWIDTH 879 0
DWIDTH 126 0
BBX 111 104 9 0
BITMAP
FFFFFFFFFFFFFFFFF00000000000
FFFFFFFFFFFFFFFFFFC000000000
FFFFFFFFFFFFFFFFFFF800000000
FFFFFFFFFFFFFFFFFFFF00000000
FFFFFFFFFFFFFFFFFFFFC0000000
FFFFFFFFFFFFFFFFFFFFF0000000
FFFFFFFFFFFFFFFFFFFFFC000000
FFFFFFFFFFFFFFFFFFFFFF000000
FFFFFFFFFFFFFFFFFFFFFFC00000
FFFFFFFFFFFFFFFFFFFFFFE00000
FFFFFFFFFFFFFFFFFFFFFFF00000
FFFFFFFFFFFFFFFFFFFFFFFC0000
FFFFFFFFFFFFFFFFFFFFFFFE0000
FFFFFFFFFFFFFFFFFFFFFFFF0000
FFFFFFFFFFFFFFFFFFFFFFFF8000
FFFFFFFFFFFFFFFFFFFFFFFFC000
FFFFFFFFFFFFFFFFFFFFFFFFE000
FFFFFFFFFFFFFFFFFFFFFFFFF000
FFFFC000000000007FFFFFFFF000
FFFFC0000000000003FFFFFFF800
FFFFC00000000000007FFFFFFC00
FFFFC00000000000001FFFFFFC00
FFFFC000000000000007FFFFFE00
FFFFC000000000000003FFFFFF00
FFFFC000000000000000FFFFFF00
FFFFC0000000000000007FFFFF80
FFFFC0000000000000003FFFFF80
FFFFC0000000000000001FFFFFC0
FFFFC0000000000000000FFFFFC0
FFFFC00000000000000007FFFFE0
FFFFC00000000000000003FFFFE0
FFFFC00000000000000001FFFFF0
FFFFC00000000000000001FFFFF0
FFFFC00000000000000000FFFFF0
FFFFC00000000000000000FFFFF8
FFFFC000000000000000007FFFF8
FFFFC000000000000000007FFFF8
FFFFC000000000000000003FFFF8
FFFFC000000000000000003FFFFC
FFFFC000000000000000001FFFFC
FFFFC000000000000000001FFFFC
FFFFC000000000000000001FFFFC
FFFFC000000000000000000FFFFC
FFFFC000000000000000000FFFFC
FFFFC000000000000000000FFFFC
FFFFC000000000000000000FFFFE
FFFFC000000000000000000FFFFE
FFFFC000000000000000000FFFFE
FFFFC0000000000000000007FFFE
FFFFC0000000000000000007FFFE
FFFFC0000000000000000007FFFE
FFFFC0000000000000000007FFFE
FFFFC0000000000000000007FFFE
FFFFC0000000000000000007FFFE
FFFFC0000000000000000007FFFE
FFFFC000000000000000000FFFFE
FFFFC000000000000000000FFFFE
FFFFC000000000000000000FFFFC
FFFFC000000000000000000FFFFC
FFFFC000000000000000000FFFFC
FFFFC000000000000000000FFFFC
FFFFC000000000000000001FFFFC
FFFFC000000000000000001FFFFC
FFFFC000000000000000001FFFFC
FFFFC000000000000000001FFFF8
FFFFC000000000000000003FFFF8
FFFFC000000000000000003FFFF8
FFFFC000000000000000007FFFF8
FFFFC000000000000000007FFFF0
FFFFC00000000000000000FFFFF0
FFFFC00000000000000000FFFFF0
FFFFC00000000000000001FFFFE0
FFFFC00000000000000003FFFFE0
FFFFC00000000000000003FFFFC0
FFFFC00000000000000007FFFFC0
FFFFC0000000000000000FFFFFC0
FFFFC0000000000000001FFFFF80
FFFFC0000000000000003FFFFF80
FFFFC0000000000000007FFFFF00
FFFFC000000000000000FFFFFE00
FFFFC000000000000003FFFFFE00
FFFFC000000000000007FFFFFC00
FFFFC00000000000001FFFFFFC00
FFFFC00000000000007FFFFFF800
FFFFC0000000000003FFFFFFF000
FFFFC000000000007FFFFFFFE000
FFFFFFFFFFFFFFFFFFFFFFFFE000
FFFFFFFFFFFFFFFFFFFFFFFFC000
FFFFFFFFFFFFFFFFFFFFFFFF8000
FFFFFFFFFFFFFFFFFFFFFFFF0000
FFFFFFFFFFFFFFFFFFFFFFFE0000
FFFFFFFFFFFFFFFFFFFFFFFC0000
FFFFFFFFFFFFFFFFFFFFFFF80000
FFFFFFFFFFFFFFFFFFFFFFE00000
FFFFFFFFFFFFFFFFFFFFFFC00000
FFFFFFFFFFFFFFFFFFFFFF800000
FFFFFFFFFFFFFFFFFFFFFE000000
FFFFFFFFFFFFFFFFFFFFF8000000
FFFFFFFFFFFFFFFFFFFFE0000000
FFFFFFFFFFFFFFFFFFFFC0000000
FFFFFFFFFFFFFFFFFFFE00000000
FFFFFFFFFFFFFFFFFFF000000000
FFFFFFFFFFFFFFFFFF8000000000
FFFFFFFFFFFFFFFFE00000000000
ENDCHAR
STARTCHAR E
ENCODING 69
SWIDTH 759 0
DWIDTH 109 0
BBX 93 104 9 0
BITMAP
FFFFFFFFFFFFFFFFFFFFFFF8
FFFFFFFFFFFFFFFFFFFFFFF8
FFFFFFFFFFFFFFFFFFFFFFF8
FFFFFFFFFFFFFFFFFFFFFFF8
FFFFFFFFFFFFFFFFFFFFFFF8
FFFFFFFFFFFFFFFFFFFFFFF8
FFFFFFFFFFFFFFFFFFFFFFF8
FFFFFFFFFFFFFFFFFFFFFFF8
FFFFFFFFFFFFFFFFFFFFFFF8
FFFFFFFFFFFFFFFFFFFFFFF8
FFFFFFFFFFFFFFFFFFFFFFF8
FFFFFFFFFFFFFFFFFFFFFFF8
FFFFFFFFFFFFFFFFFFFFFFF8
FFFFFFFFFFFFFFFFFFFFFFF8
FFFFFFFFFFFFFFFFFFFFFFF8
FFFFFFFFFFFFFFFFFFFFFFF8
FFFFFFFFFFFFFFFFFFFFFFF8
FFFFFFFFFFFFFFFFFFFFFFF8
FFFFC0000000000000000000
FFFFC0000000000000000000
FFFFC0000000000000000000
FFFFC0000000000000000000
FFFFC0000000000000000000
FFFFC0000000000000000000
FFFFC0000000000000000000
FFFFC0000000000000000000
FFFFC0000000000000000000
FFFFC0000000000000000000
FFFFC0000000000000000000
FFFFC0000000000000000000
FFFFC0000000000000000000
FFFFC0000000000000000000
FFFFC0000000000000000000
FFFFC0000000000000000000
FFFFC0000000000000000000
FFFFC0000000000000000000
FFFFC0000000000000000000
FFFFC0000000000000000000
FFFFC0000000000000000000
FFFFC0000000000000000000
FFFFC0000000000000000000
FFFFC0000000000000000000
FFFFC0000000000000000000
FFFFC0000000000000000000
FFFFC001FFFFFFFFFFFFFF80
FFFFC001FFFFFFFFFFFFFF80
FFFFC001FFFFFFFFFFFFFF80
FFFFC001FFFFFFFFFFFFFF80
FFFFC001FFFFFFFFFFFFFF80
FFFFC001FFFFFFFFFFFFFF80
FFFFC001FFFFFFFFFFFFFF80
FFFFC001FFFFFFFFFFFFFF80
FFFFC001FFFFFFFFFFFFFF80
FFFFC001FFFFFFFFFFFFFF80
FFFFC001FFFFFFFFFFFFFF80
FFFFC001FFFFFFFFFFFFFF80
FFFFC001FFFFFFFFFFFFFF80
FFFFC001FFFFFFFFFFFFFF80
FFFFC001FFFFFFFFFFFFFF80
FFFFC0000000000000000000
FFFFC0000000000000000000
FFFFC0000000000000000000
FFFFC0000000000000000000
FFFFC0000000000000000000
FFFFC0000000000000000000
FFFFC0000000000000000000
FFFFC0000000000000000000
FFFFC0000000000000000000
FFFFC0000000000000000000
FFFFC0000000000000000000
FFFFC0000000000000000000
FFFFC0000000000000000000
FFFFC0000000000000000000
FFFFC0000000000000000000
FFFFC0000000000000000000
FFFFC0000000000000000000
FFFFC0000000000000000000
FFFFC0000000000000000000
FFFFC0000000000000000000
FFFFC0000000000000000000
FFFFC0000000000000000000
FFFFC0000000000000000000
FFFFC0000000000000000000
FFFFC0000000000000000000
FFFFC0000000000000000000
FFFFC0000000000000000000
FFFFFFFFFFFFFFFFFFFFFFF8
FFFFFFFFFFFFFFFFFFFFFFF8
FFFFFFFFFFFFFFFFFFFFFFF8
FFFFFFFFFFFFFFFFFFFFFFF8
FFFFFFFFFFFFFFFFFFFFFFF8
FFFFFFFFFFFFFFFFFFFFFFF8
FFFFFFFFFFFFFFFFFFFFFFF8
FFFFFFFFFFFFFFFFFFFFFFF8
FFFFFFFFFFFFFFFFFFFFFFF8
FFFFFFFFFFFFFFFFFFFFFFF8
FFFFFFFFFFFFFFFFFFFFFFF8
FFFFFFFFFFFFFFFFFFFFFFF8
FFFFFFFFFFFFFFFFFFFFFFF8
FFFFFFFFFFFFFFFFFFFFFFF8
FFFFFFFFFFFFFFFFFFFFFFF8
FFFFFFFFFFFFFFFFFFFFFFF8
FFFFFFFFFFFFFFFFFFFFFFF8
FFFFFFFFFFFFFFFFFFFFFFF8
ENDCHAR
STARTCHAR F
ENCODING 70
SWIDTH 705 0
DWIDTH 101 0
BBX 88 104 9 0
BITMAP
FFFFFFFFFFFFFFFFFFFFFF
FFFFFFFFFFFFFFFFFFFFFF
FFFFFFFFFFFFFFFFFFFFFF
FFFFFFFFFFFFFFFFFFFFFF
FFFFFFFFFFFFFFFFFFFFFF
FFFFFFFFFFFFFFFFFFFFFF
FFFFFFFFFFFFFFFFFFFFFF
FFFFFFFFFFFFFFFFFFFFFF
FFFFFFFFFFFFFFFFFFFFFF
FFFFFFFFFFFFFFFFFFFFFF
FFFFFFFFFFFFFFFFFFFFFF
FFFFFFFFFFFFFFFFFFFFFF
FFFFFFFFFFFFFFFFFFFFFF
FFFFFFFFFFFFFFFFFFFFFF
FFFFFFFFFFFFFFFFFFFFFF
FFFFFFFFFFFFFFFFFFFFFF
FFFFFFFFFFFFFFFFFFFFFF
FFFFFFFFFFFFFFFFFFFFFF
FFFFC00000000000000000
FFFFC00000000000000000
FFFFC00000000000000000
FFFFC00000000000000000
FFFFC00000000000000000
FFFFC00000000000000000
FFFFC00000000000000000
FFFFC00000000000000000
FFFFC00000000000000000
FFFFC00000000000000000
FFFFC00000000000000000
FFFFC00000000000000000
FFFFC00000000000000000
FFFFC00000000000000000
FFFFC00000000000000000
FFFFC00000000000000000
FFFFC00000000000000000
FFFFC00000000000000000
FFFFC00000000000000000
FFFFC00000000000000000
FFFFC00000000000000000
FFFFC00000000000000000
FFFFC00000000000000000
FFFFC00000000000000000
FFFFC00000000000000000
FFFFC00000000000000000
FFFFC00000000000000000
FFFFC001FFFFFFFFFFFFF0
FFFFC001FFFFFFFFFFFFF0
FFFFC001FFFFFFFFFFFFF0
FFFFC001FFFFFFFFFFFFF0
FFFFC001FFFFFFFFFFFFF0
FFFFC001FFFFFFFFFFFFF0
FFFFC001FFFFFFFFFFFFF0
FFFFC001FFFFFFFFFFFFF0
FFFFC001FFFFFFFFFFFFF0
FFFFC001FFFFFFFFFFFFF0
FFFFC001FFFFFFFFFFFFF0
FFFFC001FFFFFFFFFFFFF0
FFFFC001FFFFFFFFFFFFF0
FFFFC001FFFFFFFFFFFFF0
FFFFC001FFFFFFFFFFFFF0
FFFFC001FFFFFFFFFFFFF0
FFFFC00000000000000000
FFFFC00000000000000000
FFFFC00000000000000000
FFFFC00000000000000000
FFFFC00000000000000000
FFFFC00000000000000000
FFFFC00000000000000000
FFFFC00000000000000000
FFFFC00000000000000000
FFFFC00000000000000000
FFFFC00000000000000000
FFFFC00000000000000000
FFFFC00000000000000000
FFFFC00000000000000000
FFFFC00000000000000000
FFFFC00000000000000000
FFFFC00000000000000000
FFFFC00000000000000000
FFFFC00000000000000000
FFFFC00000000000000000
FFFFC00000000000000000
FFFFC00000000000000000
FFFFC00000000000000000
FFFFC00000000000000000
FFFFC00000000000000000
FFFFC00000000000000000
FFFFC00000000000000000
FFFFC00000000000000000
FFFFC00000000000000000
FFFFC00000000000000000
FFFFC00000000000000000
FFFFC00000000000000000
FFFFC00000000000000000
FFFFC00000000000000000
FFFFC00000000000000000
FFFFC00000000000000000
FFFFC00000000000000000
FFFFC00000000000000000
FFFFC00000000000000000
FFFFC00000000000000000
FFFFC00000000000000000
FFFFC00000000000000000
FFFFC00000000000000000
ENDCHAR
STARTCHAR G
ENCODING 71
SWIDTH 888 0
DWIDTH 127 0
BBX 113 104 6 0
BITMAP
00000000001FFFFFFFFFFFFFFFE000
0000000007FFFFFFFFFFFFFFFFE000
000000003FFFFFFFFFFFFFFFFFE000
00000001FFFFFFFFFFFFFFFFFFE000
0000000FFFFFFFFFFFFFFFFFFFE000
0000003FFFFFFFFFFFFFFFFFFFE000
000000FFFFFFFFFFFFFFFFFFFFE000
000001FFFFFFFFFFFFFFFFFFFFE000
000007FFFFFFFFFFFFFFFFFFFFE000
00000FFFFFFFFFFFFFFFFFFFFFE000
00003FFFFFFFFFFFFFFFFFFFFFE000
00007FFFFFFFFFFFFFFFFFFFFFE000
0000FFFFFFFFFFFFFFFFFFFFFFE000
0001FFFFFFFFFFFFFFFFFFFFFFE000
0003FFFFFFFFFFFFFFFFFFFFFFE000
0007FFFFFFFFFFFFFFFFFFFFFFE000
000FFFFFFFFFFFFFFFFFFFFFFFE000
001FFFFFFFFFFFFFFFFFFFFFFFE000
003FFFFFFFFC000000000000000000
003FFFFFFF80000000000000000000
007FFFFFFC00000000000000000000
00FFFFFFF000000000000000000000
00FFFFFFC000000000000000000000
01FFFFFF0000000000000000000000
03FFFFFE0000000000000000000000
03FFFFFC0000000000000000000000
07FFFFF00000000000000000000000
07FFFFE00000000000000000000000
0FFFFFC00000000000000000000000
0FFFFFC00000000000000000000000
0FFFFF800000000000000000000000
1FFFFF000000000000000000000000
1FFFFE000000000000000000000000
1FFFFE000000000000000000000000
3FFFFC000000000000000000000000
3FFFFC000000000000000000000000
3FFFF8000000000000000000000000
7FFFF8000000000000000000000000
7FFFF0000000000000000000000000
7FFFF0000000000000000000000000
7FFFF0000000000000000000000000
7FFFE0000000000000000000000000
7FFFE0000000000000000000000000
FFFFE0000000000000000000000000
FFFFE0000000FFFFFFFFFFFFFFFF80
FFFFE0000000FFFFFFFFFFFFFFFF80
FFFFC0000000FFFFFFFFFFFFFFFF80
FFFFC0000000FFFFFFFFFFFFFFFF80
FFFFC0000000FFFFFFFFFFFFFFFF80
FFFFC0000000FFFFFFFFFFFFFFFF80
FFFFC0000000FFFFFFFFFFFFFFFF80
FFFFC0000000FFFFFFFFFFFFFFFF80
FFFFC0000000FFFFFFFFFFFFFFFF80
FFFFC0000000FFFFFFFFFFFFFFFF80
FFFFC0000000FFFFFFFFFFFFFFFF80
FFFFC0000000FFFFFFFFFFFFFFFF80
FFFFC0000000FFFFFFFFFFFFFFFF80
FFFFE0000000FFFFFFFFFFFFFFFF80
FFFFE0000000FFFFFFFFFFFFFFFF80
7FFFE0000000000000000001FFFF80
7FFFE0000000000000000001FFFF80
7FFFE0000000000000000001FFFF80
7FFFF0000000000000000001FFFF80
7FFFF0000000000000000001FFFF80
7FFFF0000000000000000001FFFF80
3FFFF8000000000000000001FFFF80
3FFFF8000000000000000001FFFF80
3FFFF8000000000000000001FFFF80
1FFFFC000000000000000001FFFF80
1FFFFC000000000000000001FFFF80
1FFFFE000000000000000001FFFF80
0FFFFF000000000000000001FFFF80
0FFFFF000000000000000001FFFF80
0FFFFF800000000000000001FFFF80
07FFFFC00000000000000001FFFF80
07FFFFE00000000000000001FFFF80
03FFFFF00000000000000001FFFF80
03FFFFF80000000000000001FFFF80
01FFFFFC0000000000000001FFFF80
01FFFFFE0000000000000001FFFF80
00FFFFFF0000000000000001FFFF80
007FFFFFC000000000000001FFFF80
007FFFFFF000000000000001FFFF80
003FFFFFFC00000000000001FFFF80
001FFFFFFF80000000000001FFFF80
001FFFFFFFFC000000000001FFFF80
000FFFFFFFFFFFFFFFFFFFFFFFFF80
0007FFFFFFFFFFFFFFFFFFFFFFFF80
0003FFFFFFFFFFFFFFFFFFFFFFFF80
0001FFFFFFFFFFFFFFFFFFFFFFFF80
0000FFFFFFFFFFFFFFFFFFFFFFFF80
00007FFFFFFFFFFFFFFFFFFFFFFF80
00003FFFFFFFFFFFFFFFFFFFFFFF80
00000FFFFFFFFFFFFFFFFFFFFFFF80
000007FFFFFFFFFFFFFFFFFFFFFF80
000003FFFFFFFFFFFFFFFFFFFFFF80
000000FFFFFFFFFFFFFFFFFFFFFF80
0000003FFFFFFFFFFFFFFFFFFFFF80
0000001FFFFFFFFFFFFFFFFFFFFF80
00000007FFFFFFFFFFFFFFFFFFFF80
00000000FFFFFFFFFFFFFFFFFFFF80
000000003FFFFFFFFFFFFFFFFFFF80
0000000003FFFFFFFFFFFFFFFFFF80
00000000001FFFFFFFFFFFFFFFFF80
ENDCHAR
STARTCHAR H
ENCODING 72
SWIDTH 838 0
DWIDTH 120 0
BBX 102 104 9 0
BITMAP
FFFFC0000000000000000FFFFC
FFFFC0000000000000000FFFFC
FFFFC0000000000000000FFFFC
FFFFC0000000000000000FFFFC
FFFFC0000000000000000FFFFC
FFFFC0000000000000000FFFFC
FFFFC0000000000000000FFFFC
FFFFC0000000000000000FFFFC
FFFFC0000000000000000FFFFC
FFFFC0000000000000000FFFFC
FFFFC0000000000000000FFFFC
FFFFC0000000000000000FFFFC
FFFFC0000000000000000FFFFC
FFFFC0000000000000000FFFFC
FFFFC0000000000000000FFFFC
FFFFC0000000000000000FFFFC
FFFFC0000000000000000FFFFC
FFFFC0000000000000000FFFFC
FFFFC0000000000000000FFFFC
FFFFC0000000000000000FFFFC
FFFFC0000000000000000FFFFC
FFFFC0000000000000000FFFFC
FFFFC0000000000000000FFFFC
FFFFC0000000000000000FFFFC
FFFFC0000000000000000FFFFC
FFFFC0000000000000000FFFFC
FFFFC0000000000000000FFFFC
FFFFC0000000000000000FFFFC
FFFFC0000000000000000FFFFC
FFFFC0000000000000000FFFFC
FFFFC0000000000000000FFFFC
FFFFC0000000000000000FFFFC
FFFFC0000000000000000FFFFC
FFFFC0000000000000000FFFFC
FFFFC0000000000000000FFFFC
FFFFC0000000000000000FFFFC
FFFFC0000000000000000FFFFC
FFFFC0000000000000000FFFFC
FFFFC0000000000000000FFFFC
FFFFC0000000000000000FFFFC
FFFFC0000000000000000FFFFC
FFFFC0000000000000000FFFFC
FFFFC0000000000000000FFFFC
FFFFC001FFFFFFFFFFFFFFFFFC
FFFFC001FFFFFFFFFFFFFFFFFC
FFFFC001FFFFFFFFFFFFFFFFFC
FFFFC001FFFFFFFFFFFFFFFFFC
FFFFC001FFFFFFFFFFFFFFFFFC
FFFFC001FFFFFFFFFFFFFFFFFC
FFFFC001FFFFFFFFFFFFFFFFFC
FFFFC001FFFFFFFFFFFFFFFFFC
FFFFC001FFFFFFFFFFFFFFFFFC
FFFFC001FFFFFFFFFFFFFFFFFC
FFFFC001FFFFFFFFFFFFFFFFFC
FFFFC001FFFFFFFFFFFFFFFFFC
FFFFC001FFFFFFFFFFFFFFFFFC
FFFFC001FFFFFFFFFFFFFFFFFC
FFFFC001FFFFFFFFFFFFFFFFFC
FFFFC001FFFFFFFFFFFFFFFFFC
FFFFC0000000000000000FFFFC
FFFFC0000000000000000FFFFC
FFFFC0000000000000000FFFFC
FFFFC0000000000000000FFFFC
FFFFC0000000000000000FFFFC
FFFFC0000000000000000FFFFC
FFFFC0000000000000000FFFFC
FFFFC0000000000000000FFFFC
FFFFC0000000000000000FFFFC
FFFFC0000000000000000FFFFC
FFFFC0000000000000000FFFFC
FFFFC0000000000000000FFFFC
FFFFC0000000000000000FFFFC
FFFFC0000000000000000FFFFC
FFFFC0000000000000000FFFFC
FFFFC0000000000000000FFFFC
FFFFC0000000000000000FFFFC
FFFFC0000000000000000FFFFC
FFFFC0000000000000000FFFFC
FFFFC0000000000000000FFFFC
FFFFC0000000000000000FFFFC
FFFFC0000000000000000FFFFC
FFFFC0000000000000000FFFFC
FFFFC0000000000000000FFFFC
FFFFC0000000000000000FFFFC
FFFFC0000000000000000FFFFC
FFFFC0000000000000000FFFFC
FFFFC0000000000000000FFFFC
FFFFC0000000000000000FFFFC
FFFFC0000000000000000FFFFC
FFFFC0000000000000000FFFFC
FFFFC0000000000000000FFFFC
FFFFC0000000000000000FFFFC
FFFFC0000000000000000FFFFC
FFFFC0000000000000000FFFFC
FFFFC0000000000000000FFFFC
FFFFC0000000000000000FFFFC
FFFFC0000000000000000FFFFC
FFFFC0000000000000000FFFFC
FFFFC0000000000000000FFFFC
FFFFC0000000000000000FFFFC
FFFFC0000000000000000FFFFC
FFFFC0000000000000000FFFFC
FFFFC0000000000000000FFFFC
FFFFC0000000000000000FFFFC
ENDCHAR
STARTCHAR I
ENCODING 73
SWIDTH 267 0
DWIDTH 38 0
BBX 18 104 10 0
BITMAP
FFFFC0
FFFFC0
FFFFC0
FFFFC0
FFFFC0
FFFFC0
FFFFC0
FFFFC0
FFFFC0
FFFFC0
FFFFC0
FFFFC0
FFFFC0
FFFFC0
FFFFC0
FFFFC0
FFFFC0
FFFFC0
FFFFC0
FFFFC0
FFFFC0
FFFFC0
FFFFC0
FFFFC0
FFFFC0
FFFFC0
FFFFC0
FFFFC0
FFFFC0
FFFFC0
FFFFC0
FFFFC0
FFFFC0
FFFFC0
FFFFC0
FFFFC0
FFFFC0
FFFFC0
FFFFC0
FFFFC0
FFFFC0
FFFFC0
FFFFC0
FFFFC0
FFFFC0
FFFFC0
FFFFC0
FFFFC0
FFFFC0
FFFFC0
FFFFC0
FFFFC0
FFFFC0
FFFFC0
FFFFC0
FFFFC0
FFFFC0
FFFFC0
FFFFC0
FFFFC0
FFFFC0
FFFFC0
FFFFC0
FFFFC0
FFFFC0
FFFFC0
FFFFC0
FFFFC0
FFFFC0
FFFFC0
FFFFC0
FFFFC0
FFFFC0
FFFFC0
FFFFC0
FFFFC0
FFFFC0
FFFFC0
FFFFC0
FFFFC0
FFFFC0
FFFFC0
FFFFC0
FFFFC0
FFFFC0
FFFFC0
FFFFC0
FFFFC0
FFFFC0
FFFFC0
FFFFC0
FFFFC0
FFFFC0
FFFFC0
FFFFC0
FFFFC0
FFFFC0
FFFFC0
FFFFC0
FFFFC0
FFFFC0
FFFFC0
FFFFC0
FFFFC0
ENDCHAR
STARTCHAR J
ENCODING 74
SWIDTH 708 0
DWIDTH 101 0
BBX 91 104 3 0
BITMAP
0000000000000000007FFFE0
0000000000000000007FFFE0
0000000000000000007FFFE0
0000000000000000007FFFE0
0000000000000000007FFFE0
0000000000000000007FFFE0
0000000000000000007FFFE0
0000000000000000007FFFE0
0000000000000000007FFFE0
0000000000000000007FFFE0
0000000000000000007FFFE0
0000000000000000007FFFE0
0000000000000000007FFFE0
0000000000000000007FFFE0
0000000000000000007FFFE0
0000000000000000007FFFE0
0000000000000000007FFFE0
0000000000000000007FFFE0
0000000000000000007FFFE0
0000000000000000007FFFE0
0000000000000000007FFFE0
0000000000000000007FFFE0
0000000000000000007FFFE0
0000000000000000007FFFE0
0000000000000000007FFFE0
0000000000000000007FFFE0
0000000000000000007FFFE0
0000000000000000007FFFE0
0000000000000000007FFFE0
0000000000000000007FFFE0
0000000000000000007FFFE0
0000000000000000007FFFE0
0000000000000000007FFFE0
0000000000000000007FFFE0
0000000000000000007FFFE0
0000000000000000007FFFE0
0000000000000000007FFFE0
0000000000000000007FFFE0
0000000000000000007FFFE0
0000000000000000007FFFE0
0000000000000000007FFFE0
0000000000000000007FFFE0
0000000000000000007FFFE0
0000000000000000007FFFE0
0000000000000000007FFFE0
0000000000000000007FFFE0
0000000000000000007FFFE0
0000000000000000007FFFE0
0000000000000000007FFFE0
0000000000000000007FFFE0
0000000000000000007FFFE0
0000000000000000007FFFE0
0000000000000000007FFFE0
0000000000000000007FFFE0
0000000000000000007FFFE0
0000000000000000007FFFE0
0000000000000000007FFFE0
0000000000000000007FFFE0
0000000000000000007FFFE0
0000000000000000007FFFE0
000000000000000000FFFFE0
000000000000000000FFFFE0
000000000000000000FFFFE0
000000000000000000FFFFE0
000000000000000000FFFFC0
000000000000000000FFFFC0
000000000000000000FFFFC0
000000000000000001FFFFC0
000000000000000001FFFFC0
000000000000000001FFFFC0
000000000000000003FFFFC0
000000000000000003FFFF80
000000000000000007FFFF80
000000000000000007FFFF80
00000000000000000FFFFF80
00000000000000000FFFFF00
00000000000000001FFFFF00
00000000000000003FFFFF00
00000000000000007FFFFE00
0000000000000000FFFFFE00
0000000000000003FFFFFE00
0000000000000007FFFFFC00
000000000000001FFFFFFC00
00000000000000FFFFFFF800
0000000000000FFFFFFFF800
000000000007FFFFFFFFF000
FFFFFFFFFFFFFFFFFFFFE000
FFFFFFFFFFFFFFFFFFFFE000
FFFFFFFFFFFFFFFFFFFFC000
FFFFFFFFFFFFFFFFFFFF8000
FFFFFFFFFFFFFFFFFFFF0000
FFFFFFFFFFFFFFFFFFFE0000
FFFFFFFFFFFFFFFFFFFC0000
FFFFFFFFFFFFFFFFFFF80000
FFFFFFFFFFFFFFFFFFF00000
FFFFFFFFFFFFFFFFFFC00000
FFFFFFFFFFFFFFFFFF800000
FFFFFFFFFFFFFFFFFE000000
FFFFFFFFFFFFFFFFF8000000
FFFFFFFFFFFFFFFFE0000000
FFFFFFFFFFFFFFFF00000000
FFFFFFFFFFFFFFF000000000
FFFFFFFFFFFFFF0000000000
FFFFFFFFFFFF800000000000
ENDCHAR
STARTCHAR K
ENCODING 75
SWIDTH 875 0
DWIDTH 125 0
BBX 113 104 9 0
BITMAP
FFFFC0000000000000001FFFFFFE00
FFFFC0000000000000007FFFFFF800
FFFFC000000000000000FFFFFFF000
FFFFC000000000000001FFFFFFE000
FFFFC000000000000003FFFFFF8000
FFFFC00000000000000FFFFFFF0000
FFFFC00000000000001FFFFFFE0000
FFFFC00000000000003FFFFFF80000
FFFFC0000000000000FFFFFFF00000
FFFFC0000000000001FFFFFFE00000
FFFFC0000000000003FFFFFF800000
FFFFC000000000000FFFFFFF000000
FFFFC000000000001FFFFFFE000000
FFFFC000000000003FFFFFF8000000
FFFFC000000000007FFFFFF0000000
FFFFC00000000001FFFFFFE0000000
FFFFC00000000003FFFFFF80000000
FFFFC00000000007FFFFFF00000000
FFFFC0000000001FFFFFFC00000000
FFFFC0000000003FFFFFF800000000
FFFFC0000000007FFFFFF000000000
FFFFC000000001FFFFFFC000000000
FFFFC000000003FFFFFF8000000000
FFFFC000000007FFFFFF0000000000
FFFFC00000000FFFFFFC0000000000
FFFFC00000003FFFFFF80000000000
FFFFC00000007FFFFFF00000000000
FFFFC0000000FFFFFFC00000000000
FFFFC0000003FFFFFF800000000000
FFFFC0000007FFFFFF000000000000
FFFFC000000FFFFFFC000000000000
FFFFC000003FFFFFF8000000000000
FFFFC000007FFFFFF0000000000000
FFFFC00000FFFFFFC0000000000000
FFFFC00001FFFFFF80000000000000
FFFFC00007FFFFFF00000000000000
FFFFC0000FFFFFFC00000000000000
FFFFC0001FFFFFF800000000000000
FFFFC0007FFFFFF000000000000000
FFFFC000FFFFFFC000000000000000
FFFFC001FFFFFF8000000000000000
FFFFC007FFFFFF0000000000000000
FFFFC00FFFFFFC0000000000000000
FFFFC01FFFFFF80000000000000000
FFFFC03FFFFFF00000000000000000
FFFFC07FFFFFC00000000000000000
FFFFC07FFFFF800000000000000000
FFFFC0FFFFFF000000000000000000
FFFFC0FFFFFC000000000000000000
FFFFC0FFFFF8000000000000000000
FFFFC0FFFFF0000000000000000000
FFFFC0FFFFF0000000000000000000
FFFFC0FFFFF8000000000000000000
FFFFC0FFFFFE000000000000000000
FFFFC0FFFFFF000000000000000000
FFFFC07FFFFF800000000000000000
FFFFC03FFFFFE00000000000000000
FFFFC01FFFFFF00000000000000000
FFFFC00FFFFFF80000000000000000
FFFFC007FFFFFE0000000000000000
FFFFC003FFFFFF0000000000000000
FFFFC000FFFFFF8000000000000000
FFFFC0007FFFFFE000000000000000
FFFFC0003FFFFFF000000000000000
FFFFC0001FFFFFF800000000000000
FFFFC00007FFFFFE00000000000000
FFFFC00003FFFFFF00000000000000
FFFFC00001FFFFFF80000000000000
FFFFC000007FFFFFE0000000000000
FFFFC000003FFFFFF0000000000000
FFFFC000001FFFFFF8000000000000
FFFFC000000FFFFFFE000000000000
FFFFC0000003FFFFFF000000000000
FFFFC0000001FFFFFF800000000000
FFFFC0000000FFFFFFE00000000000
FFFFC00000007FFFFFF00000000000
FFFFC00000001FFFFFF80000000000
FFFFC00000000FFFFFFC0000000000
FFFFC000000007FFFFFF0000000000
FFFFC000000001FFFFFF8000000000
FFFFC000000000FFFFFFC000000000
FFFFC0000000007FFFFFF000000000
FFFFC0000000003FFFFFF800000000
FFFFC0000000000FFFFFFC00000000
FFFFC00000000007FFFFFF00000000
FFFFC00000000003FFFFFF80000000
FFFFC00000000001FFFFFFC0000000
FFFFC000000000007FFFFFF0000000
FFFFC000000000003FFFFFF8000000
FFFFC000000000001FFFFFFC000000
FFFFC000000000000FFFFFFF000000
FFFFC0000000000003FFFFFF800000
FFFFC0000000000001FFFFFFC00000
FFFFC0000000000000FFFFFFF00000
FFFFC00000000000003FFFFFF80000
FFFFC00000000000001FFFFFFC0000
FFFFC00000000000000FFFFFFF0000
FFFFC000000000000007FFFFFF8000
FFFFC000000000000001FFFFFFC000
FFFFC000000000000000FFFFFFE000
FFFFC0000000000000007FFFFFF800
FFFFC0000000000000003FFFFFFC00
FFFFC0000000000000000FFFFFFE00
FFFFC00000000000000007FFFFFF80
ENDCHAR
STARTCHAR L
ENCODING 76
SWIDTH 707 0
DWIDTH 101 0
BBX 88 104 9 0
BITMAP
FFFFC00000000000000000
FFFFC00000000000000000
FFFFC00000000000000000
FFFFC00000000000000000
FFFFC00000000000000000
FFFFC00000000000000000
FFFFC00000000000000000
FFFFC00000000000000000
FFFFC00000000000000000
FFFFC00000000000000000
FFFFC00000000000000000
FFFFC00000000000000000
FFFFC00000000000000000
FFFFC00000000000000000
FFFFC00000000000000000
FFFFC00000000000000000
FFFFC00000000000000000
FFFFC00000000000000000
FFFFC00000000000000000
FFFFC00000000000000000
FFFFC00000000000000000
FFFFC00000000000000000
FFFFC00000000000000000
FFFFC00000000000000000
FFFFC00000000000000000
FFFFC00000000000000000
FFFFC00000000000000000
FFFFC00000000000000000
FFFFC00000000000000000
FFFFC00000000000000000
FFFFC00000000000000000
FFFFC00000000000000000
FFFFC00000000000000000
FFFFC00000000000000000
FFFFC00000000000000000
FFFFC00000000000000000
FFFFC00000000000000000
FFFFC00000000000000000
FFFFC00000000000000000
FFFFC00000000000000000
FFFFC00000000000000000
FFFFC00000000000000000
FFFFC00000000000000000
FFFFC00000000000000000
FFFFC00000000000000000
FFFFC00000000000000000
FFFFC00000000000000000
FFFFC00000000000000000
FFFFC00000000000000000
FFFFC00000000000000000
FFFFC00000000000000000
FFFFC00000000000000000
FFFFC00000000000000000
FFFFC00000000000000000
FFFFC00000000000000000
FFFFC00000000000000000
FFFFC00000000000000000
FFFFC00000000000000000
FFFFC00000000000000000
FFFFC00000000000000000
FFFFC00000000000000000
FFFFC00000000000000000
FFFFC00000000000000000
FFFFC00000000000000000
FFFFC00000000000000000
FFFFC00000000000000000
FFFFC00000000000000000
FFFFC00000000000000000
FFFFC00000000000000000
FFFFC00000000000000000
FFFFC00000000000000000
FFFFC00000000000000000
FFFFC00000000000000000
FFFFC00000000000000000
FFFFC00000000000000000
FFFFC00000000000000000
FFFFC00000000000000000
FFFFC00000000000000000
FFFFC00000000000000000
FFFFC00000000000000000
FFFFC00000000000000000
FFFFC00000000000000000
FFFFC00000000000000000
FFFFC00000000000000000
FFFFC00000000000000000
FFFFC00000000000000000
FFFFFFFFFFFFFFFFFFFFFF
FFFFFFFFFFFFFFFFFFFFFF
FFFFFFFFFFFFFFFFFFFFFF
FFFFFFFFFFFFFFFFFFFFFF
FFFFFFFFFFFFFFFFFFFFFF
FFFFFFFFFFFFFFFFFFFFFF
FFFFFFFFFFFFFFFFFFFFFF
FFFFFFFFFFFFFFFFFFFFFF
FFFFFFFFFFFFFFFFFFFFFF
FFFFFFFFFFFFFFFFFFFFFF
FFFFFFFFFFFFFFFFFFFFFF
FFFFFFFFFFFFFFFFFFFFFF
FFFFFFFFFFFFFFFFFFFFFF
FFFFFFFFFFFFFFFFFFFFFF
FFFFFFFFFFFFFFFFFFFFFF
FFFFFFFFFFFFFFFFFFFFFF
FFFFFFFFFFFFFFFFFFFFFF
FFFFFFFFFFFFFFFFFFFFFF
ENDCHAR
STARTCHAR M
ENCODING 77
SWIDTH 1115 0
DWIDTH 159 0
BBX 153 106 3 -2
BITMAP
000000007E0000000000000000001F8000000000
00000001FF8000000000000000007FE000000000
00000003FFE00000000000000000FFF000000000
00000007FFF00000000000000001FFF800000000
0000000FFFF00000000000000003FFFC00000000
0000000FFFF80000000000000003FFFC00000000
0000001FFFFC0000000000000007FFFE00000000
0000001FFFFC0000000000000007FFFE00000000
0000001FFFFC000000000000000FFFFE00000000
0000001FFFFE000000000000000FFFFE00000000
0000003FFFFE000000000000001FFFFF00000000
0000003FFFFF000000000000001FFFFF00000000
0000003FFFFF000000000000001FFFFF00000000
0000007FFFFF800000000000003FFFFF80000000
0000007FFFFF800000000000003FFFFF80000000
0000007FFFFF800000000000007FFFFF80000000
0000007FFFFFC00000000000007FFFFF80000000
000000FFFFFFC0000000000000FFFFFFC0000000
000000FFFFFFE0000000000000FFFFFFC0000000
000000FFFFFFE0000000000001FFFFFFC0000000
000000FFFFFFF0000000000001FFFFFFC0000000
000001FFFFFFF0000000000001FFFFFFE0000000
000001FFFFFFF8000000000003FFFFFFE0000000
000001FFFFFFF8000000000003FFFFFFE0000000
000003FFFFFFF8000000000007FFFFFFF0000000
000003FFFFFFFC000000000007FFFFFFF0000000
000003FFFFFFFC00000000000FFFFFFFF0000000
000003FFFFFFFE00000000000FFFFFFFF0000000
000007FFFFFFFE00000000000FFFFFFFF8000000
000007FFFFFFFF00000000001FFFFFFFF8000000
000007FFFFFFFF00000000001FFFFFFFF8000000
00000FFFFFFFFF80000000003FFFFFFFF8000000
00000FFFFFFFFF80000000003FFFEFFFFC000000
00000FFFFDFFFF80000000007FFFEFFFFC000000
00000FFFFDFFFFC0000000007FFFCFFFFC000000
00001FFFF8FFFFC000000000FFFFC7FFFE000000
00001FFFF8FFFFE000000000FFFFC7FFFE000000
00001FFFF87FFFE000000000FFFF87FFFE000000
00001FFFF07FFFF000000001FFFF87FFFE000000
00003FFFF07FFFF000000001FFFF03FFFF000000
00003FFFF03FFFF000000003FFFF03FFFF000000
00003FFFF03FFFF800000003FFFE03FFFF000000
00007FFFE01FFFF800000007FFFE03FFFF800000
00007FFFE01FFFFC00000007FFFE01FFFF800000
00007FFFE00FFFFC0000000FFFFC01FFFF800000
00007FFFC00FFFFE0000000FFFFC01FFFF800000
0000FFFFC007FFFE0000000FFFF800FFFFC00000
0000FFFFC007FFFF0000001FFFF800FFFFC00000
0000FFFFC007FFFF0000001FFFF000FFFFC00000
0001FFFF8003FFFF0000003FFFF000FFFFC00000
0001FFFF8003FFFF8000003FFFE0007FFFE00000
0001FFFF8001FFFF8000007FFFE0007FFFE00000
0001FFFF8001FFFFC000007FFFE0007FFFE00000
0003FFFF0000FFFFC00000FFFFC0007FFFF00000
0003FFFF0000FFFFE00000FFFFC0003FFFF00000
0003FFFF0000FFFFE00000FFFF80003FFFF00000
0003FFFE00007FFFF00001FFFF80003FFFF00000
0007FFFE00007FFFF00001FFFF00001FFFF80000
0007FFFE00003FFFF00003FFFF00001FFFF80000
0007FFFE00003FFFF80003FFFE00001FFFF80000
000FFFFC00001FFFF80007FFFE00001FFFF80000
000FFFFC00001FFFFC0007FFFE00000FFFFC0000
000FFFFC00000FFFFC0007FFFC00000FFFFC0000
000FFFFC00000FFFFE000FFFFC00000FFFFC0000
001FFFF800000FFFFE000FFFF8000007FFFE0000
001FFFF8000007FFFF001FFFF8000007FFFE0000
001FFFF8000007FFFF001FFFF0000007FFFE0000
001FFFF0000003FFFF003FFFF0000007FFFE0000
003FFFF0000003FFFF803FFFE0000003FFFF0000
003FFFF0000001FFFF807FFFE0000003FFFF0000
003FFFF0000001FFFFC07FFFE0000003FFFF0000
007FFFE0000000FFFFC07FFFC0000003FFFF0000
007FFFE0000000FFFFE0FFFFC0000001FFFF8000
007FFFE0000000FFFFE0FFFF80000001FFFF8000
007FFFC00000007FFFE1FFFF80000001FFFF8000
00FFFFC00000007FFFF1FFFF00000000FFFFC000
00FFFFC00000003FFFF3FFFF00000000FFFFC000
00FFFFC00000003FFFFBFFFE00000000FFFFC000
01FFFF800000001FFFFFFFFE00000000FFFFC000
01FFFF800000001FFFFFFFFE000000007FFFE000
01FFFF800000001FFFFFFFFC000000007FFFE000
01FFFF800000000FFFFFFFFC000000007FFFE000
03FFFF000000000FFFFFFFF8000000007FFFF000
03FFFF0000000007FFFFFFF8000000003FFFF000
03FFFF0000000007FFFFFFF0000000003FFFF000
03FFFE0000000003FFFFFFF0000000003FFFF000
07FFFE0000000003FFFFFFF0000000001FFFF800
07FFFE0000000001FFFFFFE0000000001FFFF800
07FFFE0000000001FFFFFFE0000000001FFFF800
0FFFFC0000000001FFFFFFC0000000001FFFF800
0FFFFC0000000000FFFFFFC0000000000FFFFC00
0FFFFC0000000000FFFFFF80000000000FFFFC00
0FFFFC00000000007FFFFF80000000000FFFFC00
1FFFF800000000007FFFFF000000000007FFFE00
1FFFF800000000003FFFFF000000000007FFFE00
1FFFF800000000003FFFFF000000000007FFFE00
3FFFF000000000001FFFFE000000000007FFFE00
3FFFF000000000001FFFFE000000000003FFFF00
3FFFF000000000001FFFFC000000000003FFFF00
3FFFF000000000000FFFFC000000000003FFFF00
7FFFE000000000000FFFF8000000000003FFFF00
7FFFE0000000000007FFF0000000000001FFFF80
7FFFE0000000000003FFF0000000000001FFFF80
FFFFC0000000000001FFE0000000000001FFFF80
000000000000000000FF80000000000000000000
0000000000000000000800000000000000000000
ENDCHAR
STARTCHAR N
ENCODING 78
SWIDTH 873 0
DWIDTH 125 0
BBX 107 104 9 0
BITMAP
03F00000000000000000003FFFE0
0FFC0000000000000000003FFFE0
3FFE0000000000000000003FFFE0
3FFF0000000000000000003FFFE0
7FFF8000000000000000003FFFE0
FFFFC000000000000000003FFFE0
FFFFE000000000000000003FFFE0
FFFFF800000000000000003FFFE0
FFFFFC00000000000000003FFFE0
FFFFFE00000000000000003FFFE0
FFFFFF00000000000000003FFFE0
FFFFFF80000000000000003FFFE0
FFFFFFC0000000000000003FFFE0
FFFFFFE0000000000000003FFFE0
FFFFFFF0000000000000003FFFE0
FFFFFFF8000000000000003FFFE0
FFFFFFFC000000000000003FFFE0
FFFFFFFE000000000000003FFFE0
FFFFFFFF000000000000003FFFE0
FFFFFFFF800000000000003FFFE0
FFFFFFFFC00000000000003FFFE0
FFFFFFFFE00000000000003FFFE0
FFFFFFFFF00000000000003FFFE0
FFFFFFFFF80000000000003FFFE0
FFFFFFFFFC0000000000003FFFE0
FFFFFFFFFE0000000000003FFFE0
FFFFFFFFFF0000000000003FFFE0
FFFFFFFFFF8000000000003FFFE0
FFFFFFFFFFC000000000003FFFE0
FFFFFFFFFFE000000000003FFFE0
FFFFBFFFFFF000000000003FFFE0
FFFF9FFFFFF800000000003FFFE0
FFFF8FFFFFFC00000000003FFFE0
FFFF87FFFFFE00000000003FFFE0
FFFF83FFFFFF00000000003FFFE0
FFFF81FFFFFF80000000003FFFE0
FFFF80FFFFFFC0000000003FFFE0
FFFF803FFFFFE0000000003FFFE0
FFFF801FFFFFF0000000003FFFE0
FFFF800FFFFFF8000000003FFFE0
FFFF8007FFFFFC000000003FFFE0
FFFF8003FFFFFE000000003FFFE0
FFFF8001FFFFFF000000003FFFE0
FFFF8000FFFFFF800000003FFFE0
FFFF80007FFFFFC00000003FFFE0
FFFF80003FFFFFE00000003FFFE0
FFFF80001FFFFFF00000003FFFE0
FFFF80000FFFFFF80000003FFFE0
FFFF800007FFFFFC0000003FFFE0
FFFF800003FFFFFE0000003FFFE0
FFFF800001FFFFFF0000003FFFE0
FFFF800000FFFFFF8000003FFFE0
FFFF8000007FFFFFC000003FFFE0
FFFF8000003FFFFFE000003FFFE0
FFFF8000001FFFFFF000003FFFE0
FFFF8000000FFFFFF800003FFFE0
FFFF80000007FFFFFC00003FFFE0
FFFF80000003FFFFFE00003FFFE0
FFFF80000001FFFFFF00003FFFE0
FFFF80000000FFFFFF80003FFFE0
FFFF800000007FFFFFC0003FFFE0
FFFF800000003FFFFFF0003FFFE0
FFFF800000001FFFFFF8003FFFE0
FFFF800000000FFFFFFC003FFFE0
FFFF8000000007FFFFFE003FFFE0
FFFF8000000003FFFFFF003FFFE0
FFFF8000000001FFFFFF803FFFE0
FFFF8000000000FFFFFFC03FFFE0
FFFF80000000007FFFFFE03FFFE0
FFFF80000000003FFFFFF03FFFE0
FFFF80000000001FFFFFF83FFFE0
FFFF80000000000FFFFFFC3FFFE0
FFFF800000000007FFFFFE3FFFE0
FFFF800000000003FFFFFF3FFFE0
FFFF800000000001FFFFFFBFFFE0
FFFF8000000000007FFFFFFFFFE0
FFFF8000000000003FFFFFFFFFE0
FFFF8000000000001FFFFFFFFFE0
FFFF8000000000000FFFFFFFFFE0
FFFF80000000000007FFFFFFFFE0
FFFF80000000000003FFFFFFFFE0
FFFF80000000000001FFFFFFFFE0
FFFF80000000000000FFFFFFFFE0
FFFF800000000000007FFFFFFFE0
FFFF800000000000003FFFFFFFE0
FFFF800000000000001FFFFFFFE0
FFFF800000000000000FFFFFFFE0
FFFF8000000000000007FFFFFFE0
FFFF8000000000000003FFFFFFE0
FFFF8000000000000001FFFFFFE0
FFFF8000000000000000FFFFFFE0
FFFF80000000000000007FFFFFE0
FFFF80000000000000003FFFFFE0
FFFF80000000000000001FFFFFE0
FFFF80000000000000000FFFFFE0
FFFF800000000000000007FFFFE0
FFFF800000000000000003FFFFE0
FFFF800000000000000001FFFFE0
FFFF800000000000000000FFFFC0
FFFF8000000000000000007FFFC0
FFFF8000000000000000003FFF80
FFFF8000000000000000001FFF00
FFFF80000000000000000007FE00
FFFF80000000000000000001F800
ENDCHAR
STARTCHAR O
ENCODING 79
SWIDTH 968 0
DWIDTH 138 0
BBX 127 104 6 0
BITMAP
00000000001FFFFFFFFFF00000000000
0000000007FFFFFFFFFFFF8000000000
000000003FFFFFFFFFFFFFF800000000
00000001FFFFFFFFFFFFFFFF00000000
0000000FFFFFFFFFFFFFFFFFC0000000
0000003FFFFFFFFFFFFFFFFFF0000000
000000FFFFFFFFFFFFFFFFFFFC000000
000001FFFFFFFFFFFFFFFFFFFF000000
000007FFFFFFFFFFFFFFFFFFFFC00000
00000FFFFFFFFFFFFFFFFFFFFFE00000
00003FFFFFFFFFFFFFFFFFFFFFF00000
00007FFFFFFFFFFFFFFFFFFFFFFC0000
0000FFFFFFFFFFFFFFFFFFFFFFFE0000
0001FFFFFFFFFFFFFFFFFFFFFFFF0000
0003FFFFFFFFFFFFFFFFFFFFFFFF8000
0007FFFFFFFFFFFFFFFFFFFFFFFFC000
000FFFFFFFFFFFFFFFFFFFFFFFFFE000
001FFFFFFFFFFFFFFFFFFFFFFFFFF000
003FFFFFFFFC000000007FFFFFFFF000
003FFFFFFF800000000003FFFFFFF800
007FFFFFFC000000000000FFFFFFFC00
00FFFFFFF00000000000001FFFFFFC00
00FFFFFFC000000000000007FFFFFE00
01FFFFFF0000000000000003FFFFFF00
03FFFFFE0000000000000000FFFFFF00
03FFFFFC00000000000000007FFFFF80
07FFFFF000000000000000003FFFFF80
07FFFFE000000000000000001FFFFFC0
0FFFFFC000000000000000000FFFFFC0
0FFFFFC0000000000000000007FFFFE0
0FFFFF80000000000000000003FFFFE0
1FFFFF00000000000000000001FFFFE0
1FFFFE00000000000000000001FFFFF0
1FFFFE00000000000000000000FFFFF0
3FFFFC00000000000000000000FFFFF0
3FFFFC000000000000000000007FFFF8
3FFFF8000000000000000000007FFFF8
7FFFF8000000000000000000003FFFF8
7FFFF0000000000000000000003FFFF8
7FFFF0000000000000000000001FFFFC
7FFFF0000000000000000000001FFFFC
7FFFE0000000000000000000001FFFFC
7FFFE0000000000000000000001FFFFC
FFFFE0000000000000000000000FFFFC
FFFFE0000000000000000000000FFFFC
FFFFE0000000000000000000000FFFFC
FFFFC0000000000000000000000FFFFE
FFFFC0000000000000000000000FFFFE
FFFFC0000000000000000000000FFFFE
FFFFC0000000000000000000000FFFFE
FFFFC00000000000000000000007FFFE
FFFFC00000000000000000000007FFFE
FFFFC00000000000000000000007FFFE
FFFFC0000000000000000000000FFFFE
FFFFC0000000000000000000000FFFFE
FFFFC0000000000000000000000FFFFE
FFFFC0000000000000000000000FFFFC
FFFFE0000000000000000000000FFFFC
FFFFE0000000000000000000000FFFFC
7FFFE0000000000000000000000FFFFC
7FFFE0000000000000000000000FFFFC
7FFFE0000000000000000000001FFFFC
7FFFF0000000000000000000001FFFFC
7FFFF0000000000000000000001FFFF8
7FFFF0000000000000000000003FFFF8
3FFFF8000000000000000000003FFFF8
3FFFF8000000000000000000003FFFF8
3FFFF8000000000000000000007FFFF0
1FFFFC000000000000000000007FFFF0
1FFFFC00000000000000000000FFFFF0
1FFFFE00000000000000000000FFFFE0
0FFFFF00000000000000000001FFFFE0
0FFFFF00000000000000000003FFFFE0
0FFFFF80000000000000000003FFFFC0
07FFFFC0000000000000000007FFFFC0
07FFFFE000000000000000000FFFFF80
03FFFFF000000000000000001FFFFF80
03FFFFF800000000000000003FFFFF00
01FFFFFC00000000000000007FFFFF00
01FFFFFE0000000000000000FFFFFE00
00FFFFFF0000000000000003FFFFFE00
007FFFFFC000000000000007FFFFFC00
007FFFFFF00000000000001FFFFFF800
003FFFFFFC000000000000FFFFFFF800
001FFFFFFF800000000003FFFFFFF000
001FFFFFFFFC000000007FFFFFFFE000
000FFFFFFFFFFFFFFFFFFFFFFFFFC000
0007FFFFFFFFFFFFFFFFFFFFFFFF8000
0003FFFFFFFFFFFFFFFFFFFFFFFF8000
0001FFFFFFFFFFFFFFFFFFFFFFFF0000
0000FFFFFFFFFFFFFFFFFFFFFFFE0000
00007FFFFFFFFFFFFFFFFFFFFFF80000
00003FFFFFFFFFFFFFFFFFFFFFF00000
00000FFFFFFFFFFFFFFFFFFFFFE00000
000007FFFFFFFFFFFFFFFFFFFFC00000
000003FFFFFFFFFFFFFFFFFFFF000000
000000FFFFFFFFFFFFFFFFFFFE000000
0000003FFFFFFFFFFFFFFFFFF8000000
0000001FFFFFFFFFFFFFFFFFE0000000
00000007FFFFFFFFFFFFFFFF80000000
00000000FFFFFFFFFFFFFFFE00000000
000000003FFFFFFFFFFFFFF000000000
0000000003FFFFFFFFFFFF8000000000
00000000001FFFFFFFFFE00000000000
ENDCHAR
STARTCHAR P
ENCODING 80
SWIDTH 867 0
DWIDTH 124 0
BBX 111 104 9 0
BITMAP
FFFFFFFFFFFFFFFFFFFF80000000
FFFFFFFFFFFFFFFFFFFFFC000000
FFFFFFFFFFFFFFFFFFFFFF800000
FFFFFFFFFFFFFFFFFFFFFFE00000
FFFFFFFFFFFFFFFFFFFFFFF80000
FFFFFFFFFFFFFFFFFFFFFFFE0000
FFFFFFFFFFFFFFFFFFFFFFFF8000
FFFFFFFFFFFFFFFFFFFFFFFFC000
FFFFFFFFFFFFFFFFFFFFFFFFE000
FFFFFFFFFFFFFFFFFFFFFFFFF800
FFFFFFFFFFFFFFFFFFFFFFFFFC00
FFFFFFFFFFFFFFFFFFFFFFFFFC00
FFFFFFFFFFFFFFFFFFFFFFFFFE00
FFFFFFFFFFFFFFFFFFFFFFFFFF00
FFFFFFFFFFFFFFFFFFFFFFFFFF80
FFFFFFFFFFFFFFFFFFFFFFFFFF80
FFFFFFFFFFFFFFFFFFFFFFFFFFC0
FFFFFFFFFFFFFFFFFFFFFFFFFFE0
FFFFC000000000000003FFFFFFE0
FFFFC0000000000000003FFFFFF0
FFFFC0000000000000000FFFFFF0
FFFFC00000000000000003FFFFF0
FFFFC00000000000000001FFFFF8
FFFFC00000000000000000FFFFF8
FFFFC000000000000000007FFFF8
FFFFC000000000000000003FFFFC
FFFFC000000000000000001FFFFC
FFFFC000000000000000001FFFFC
FFFFC000000000000000000FFFFC
FFFFC000000000000000000FFFFE
FFFFC000000000000000000FFFFE
FFFFC0000000000000000007FFFE
FFFFC0000000000000000007FFFE
FFFFC0000000000000000007FFFE
FFFFC0000000000000000007FFFE
FFFFC0000000000000000007FFFE
FFFFC0000000000000000007FFFE
FFFFC0000000000000000007FFFE
FFFFC0000000000000000007FFFE
FFFFC0000000000000000007FFFE
FFFFC0000000000000000007FFFE
FFFFC0000000000000000007FFFE
FFFFC0000000000000000007FFFE
FFFFC0000000000000000007FFFE
FFFFC000000000000000000FFFFE
FFFFC000000000000000000FFFFC
FFFFC000000000000000000FFFFC
FFFFC000000000000000001FFFFC
FFFFC000000000000000003FFFFC
FFFFC000000000000000003FFFFC
FFFFC000000000000000007FFFF8
FFFFC00000000000000000FFFFF8
FFFFC00000000000000001FFFFF8
FFFFC00000000000000003FFFFF0
FFFFC0000000000000000FFFFFF0
FFFFC0000000000000003FFFFFE0
FFFFC000000000000003FFFFFFE0
FFFFC001FFFFFFFFFFFFFFFFFFC0
FFFFC001FFFFFFFFFFFFFFFFFFC0
FFFFC001FFFFFFFFFFFFFFFFFF80
FFFFC001FFFFFFFFFFFFFFFFFF00
FFFFC001FFFFFFFFFFFFFFFFFF00
FFFFC001FFFFFFFFFFFFFFFFFE00
FFFFC001FFFFFFFFFFFFFFFFFC00
FFFFC001FFFFFFFFFFFFFFFFF800
FFFFC001FFFFFFFFFFFFFFFFF000
FFFFC001FFFFFFFFFFFFFFFFE000
FFFFC001FFFFFFFFFFFFFFFFC000
FFFFC001FFFFFFFFFFFFFFFF0000
FFFFC001FFFFFFFFFFFFFFFE0000
FFFFC001FFFFFFFFFFFFFFF80000
FFFFC001FFFFFFFFFFFFFFE00000
FFFFC001FFFFFFFFFFFFFF000000
FFFFC001FFFFFFFFFFFFF8000000
FFFFC001FFFFFFFFFFFF80000000
FFFFC00000000000000000000000
FFFFC00000000000000000000000
FFFFC00000000000000000000000
FFFFC00000000000000000000000
FFFFC00000000000000000000000
FFFFC00000000000000000000000
FFFFC00000000000000000000000
FFFFC00000000000000000000000
FFFFC00000000000000000000000
FFFFC00000000000000000000000
FFFFC00000000000000000000000
FFFFC00000000000000000000000
FFFFC00000000000000000000000
FFFFC00000000000000000000000
FFFFC00000000000000000000000
FFFFC00000000000000000000000
FFFFC00000000000000000000000
FFFFC00000000000000000000000
FFFFC00000000000000000000000
FFFFC00000000000000000000000
FFFFC00000000000000000000000
FFFFC00000000000000000000000
FFFFC00000000000000000000000
FFFFC00000000000000000000000
FFFFC00000000000000000000000
FFFFC00000000000000000000000
FFFFC00000000000000000000000
FFFFC00000000000000000000000
FFFFC00000000000000000000000
ENDCHAR
STARTCHAR Q
ENCODING 81
SWIDTH 968 0
DWIDTH 138 0
BBX 132 104 6 0
BITMAP
00000000001FFFFFFFFFF0000000000000
0000000007FFFFFFFFFFFF800000000000
000000003FFFFFFFFFFFFFF80000000000
00000001FFFFFFFFFFFFFFFF0000000000
0000000FFFFFFFFFFFFFFFFFC000000000
0000003FFFFFFFFFFFFFFFFFF000000000
000000FFFFFFFFFFFFFFFFFFFC00000000
000001FFFFFFFFFFFFFFFFFFFF00000000
000007FFFFFFFFFFFFFFFFFFFFC0000000
00000FFFFFFFFFFFFFFFFFFFFFE0000000
00003FFFFFFFFFFFFFFFFFFFFFF0000000
00007FFFFFFFFFFFFFFFFFFFFFFC000000
0000FFFFFFFFFFFFFFFFFFFFFFFE000000
0001FFFFFFFFFFFFFFFFFFFFFFFF000000
0003FFFFFFFFFFFFFFFFFFFFFFFF800000
0007FFFFFFFFFFFFFFFFFFFFFFFFC00000
000FFFFFFFFFFFFFFFFFFFFFFFFFE00000
001FFFFFFFFFFFFFFFFFFFFFFFFFF00000
003FFFFFFFFC000000007FFFFFFFF00000
003FFFFFFF800000000003FFFFFFF80000
007FFFFFFC000000000000FFFFFFFC0000
00FFFFFFF00000000000001FFFFFFC0000
00FFFFFFC000000000000007FFFFFE0000
01FFFFFF0000000000000003FFFFFF0000
03FFFFFE0000000000000000FFFFFF0000
03FFFFFC00000000000000007FFFFF8000
07FFFFF000000000000000003FFFFF8000
07FFFFE000000000000000001FFFFFC000
0FFFFFC000000000000000000FFFFFC000
0FFFFFC0000000000000000007FFFFE000
0FFFFF80000000000000000003FFFFE000
1FFFFF00000000000000000001FFFFE000
1FFFFE00000000000000000001FFFFF000
1FFFFE00000000000000000000FFFFF000
3FFFFC00000000000000000000FFFFF000
3FFFFC000000000000000000007FFFF800
3FFFF8000000000000000000007FFFF800
7FFFF8000000000000000000003FFFF800
7FFFF0000000000000000000003FFFF800
7FFFF0000000000000000000001FFFFC00
7FFFF0000000000000000000001FFFFC00
7FFFE0000000000000000000001FFFFC00
7FFFE0000000000000000000001FFFFC00
FFFFE0000000000000000000000FFFFC00
FFFFE0000000000000000000000FFFFC00
FFFFE0000000000000000000000FFFFC00
FFFFC0000000000000000000000FFFFE00
FFFFC0000000000000000000000FFFFE00
FFFFC0000000000000000000000FFFFE00
FFFFC0000000000000000000000FFFFE00
FFFFC00000000000000000000007FFFE00
FFFFC00000000000000000000007FFFE00
FFFFC00000000000000000000007FFFE00
FFFFC0000000000000000000000FFFFE00
FFFFC0000000000000000000000FFFFE00
FFFFC0000000000000000000000FFFFE00
FFFFC0000000000000000000000FFFFC00
FFFFE0000000000000000000000FFFFC00
FFFFE0000000000000000000000FFFFC00
7FFFE0000000000000000000000FFFFC00
7FFFE0000000000000000000000FFFFC00
7FFFE000000001FFFFFE0000001FFFFC00
7FFFF0000000007FFFFF0000001FFFFC00
7FFFF0000000003FFFFFC000001FFFF800
7FFFF0000000001FFFFFE000003FFFF800
3FFFF8000000000FFFFFF000003FFFF800
3FFFF80000000003FFFFF800003FFFF800
3FFFF80000000001FFFFFC00007FFFF000
1FFFFC0000000000FFFFFF00007FFFF000
1FFFFC00000000007FFFFF8000FFFFF000
1FFFFE00000000001FFFFFC000FFFFE000
0FFFFF00000000000FFFFFE001FFFFE000
0FFFFF000000000007FFFFF003FFFFE000
0FFFFF800000000001FFFFFC03FFFFC000
07FFFFC00000000000FFFFFE07FFFFC000
07FFFFE000000000007FFFFF0FFFFF8000
03FFFFF000000000003FFFFF9FFFFF8000
03FFFFF800000000000FFFFFFFFFFF0000
01FFFFFC000000000007FFFFFFFFFF0000
01FFFFFE000000000003FFFFFFFFFE0000
00FFFFFF000000000001FFFFFFFFFE0000
007FFFFFC000000000007FFFFFFFFC0000
007FFFFFF000000000003FFFFFFFF80000
003FFFFFFC00000000001FFFFFFFF80000
001FFFFFFF800000000007FFFFFFF00000
001FFFFFFFFC000000007FFFFFFFE00000
000FFFFFFFFFFFFFFFFFFFFFFFFFC00000
0007FFFFFFFFFFFFFFFFFFFFFFFF800000
0003FFFFFFFFFFFFFFFFFFFFFFFF800000
0001FFFFFFFFFFFFFFFFFFFFFFFF800000
0000FFFFFFFFFFFFFFFFFFFFFFFFC00000
00007FFFFFFFFFFFFFFFFFFFFFFFF00000
00003FFFFFFFFFFFFFFFFFFFFFFFF80000
00000FFFFFFFFFFFFFFFFFFFFFFFFC0000
000007FFFFFFFFFFFFFFFFFFFFFFFF0000
000003FFFFFFFFFFFFFFFFFFFFFFFF8000
000000FFFFFFFFFFFFFFFFFFFFFFFFC000
0000003FFFFFFFFFFFFFFFFFFFFFFFE000
0000001FFFFFFFFFFFFFFFFFE7FFFFF800
00000007FFFFFFFFFFFFFFFF83FFFFFC00
00000000FFFFFFFFFFFFFFFE00FFFFFE00
000000003FFFFFFFFFFFFFF0007FFFFF80
0000000003FFFFFFFFFFFF00003FFFFFC0
00000000001FFFFFFFFFE000001FFFFFF0
ENDCHAR
STARTCHAR R
ENCODING 82
SWIDTH 921 0
DWIDTH 132 0
BBX 122 104 9 0
BITMAP
FFFFFFFFFFFFFFFFFFFFC00000000000
FFFFFFFFFFFFFFFFFFFFFE0000000000
FFFFFFFFFFFFFFFFFFFFFFC000000000
FFFFFFFFFFFFFFFFFFFFFFF800000000
FFFFFFFFFFFFFFFFFFFFFFFE00000000
FFFFFFFFFFFFFFFFFFFFFFFF00000000
FFFFFFFFFFFFFFFFFFFFFFFFC0000000
FFFFFFFFFFFFFFFFFFFFFFFFE0000000
FFFFFFFFFFFFFFFFFFFFFFFFF8000000
FFFFFFFFFFFFFFFFFFFFFFFFFC000000
FFFFFFFFFFFFFFFFFFFFFFFFFE000000
FFFFFFFFFFFFFFFFFFFFFFFFFF000000
FFFFFFFFFFFFFFFFFFFFFFFFFF000000
FFFFFFFFFFFFFFFFFFFFFFFFFF800000
FFFFFFFFFFFFFFFFFFFFFFFFFFC00000
FFFFFFFFFFFFFFFFFFFFFFFFFFE00000
FFFFFFFFFFFFFFFFFFFFFFFFFFE00000
FFFFFFFFFFFFFFFFFFFFFFFFFFF00000
FFFFC000000000000001FFFFFFF00000
FFFFC0000000000000001FFFFFF80000
FFFFC00000000000000003FFFFF80000
FFFFC00000000000000001FFFFFC0000
FFFFC000000000000000007FFFFC0000
FFFFC000000000000000003FFFFC0000
FFFFC000000000000000001FFFFE0000
FFFFC000000000000000001FFFFE0000
FFFFC000000000000000000FFFFE0000
FFFFC000000000000000000FFFFE0000
FFFFC0000000000000000007FFFF0000
FFFFC0000000000000000007FFFF0000
FFFFC0000000000000000003FFFF0000
FFFFC0000000000000000003FFFF0000
FFFFC0000000000000000003FFFF0000
FFFFC0000000000000000003FFFF0000
FFFFC0000000000000000003FFFF0000
FFFFC0000000000000000003FFFF0000
FFFFC0000000000000000003FFFF0000
FFFFC0000000000000000001FFFF0000
FFFFC0000000000000000001FFFF0000
FFFFC0000000000000000003FFFF0000
FFFFC0000000000000000003FFFF0000
FFFFC0000000000000000003FFFF0000
FFFFC0000000000000000003FFFF0000
FFFFC0000000000000000003FFFF0000
FFFFC0000000000000000003FFFF0000
FFFFC0000000000000000003FFFF0000
FFFFC0000000000000000007FFFF0000
FFFFC0000000000000000007FFFF0000
FFFFC0000000000000000007FFFE0000
FFFFC000000000000000000FFFFE0000
FFFFC000000000000000000FFFFE0000
FFFFC000000000000000001FFFFC0000
FFFFC000000000000000003FFFFC0000
FFFFC000000000000000003FFFFC0000
FFFFC000000000000000007FFFF80000
FFFFC00000000000000001FFFFF80000
FFFFC00000000000000003FFFFF80000
FFFFC0000000000000000FFFFFF00000
FFFFC000000000000000FFFFFFE00000
FFFFC001FFFFFFFFFFFFFFFFFFE00000
FFFFC001FFFFFFFFFFFFFFFFFFC00000
FFFFC001FFFFFFFFFFFFFFFFFF800000
FFFFC001FFFFFFFFFFFFFFFFFF800000
FFFFC001FFFFFFFFFFFFFFFFFF000000
FFFFC001FFFFFFFFFFFFFFFFFE000000
FFFFC001FFFFFFFFFFFFFFFFFC000000
FFFFC001FFFFFFFFFFFFFFFFF8000000
FFFFC001FFFFFFFFFFFFFFFFF0000000
FFFFC001FFFFFFFFFFFFFFFFC0000000
FFFFC001FFFFFFFFFFFFFFFF80000000
FFFFC001FFFFFFFFFFFFFFFE00000000
FFFFC001FFFFFFFFFFFFFFF800000000
FFFFC001FFFFFFFFFFFFFFE000000000
FFFFC001FFFFFFFFFFFFFFF000000000
FFFFC001FFFFFFFFFFFFFFF800000000
FFFFC0000000000001FFFFFC00000000
FFFFC0000000000000FFFFFE00000000
FFFFC0000000000000FFFFFF00000000
FFFFC00000000000007FFFFF80000000
FFFFC00000000000003FFFFFC0000000
FFFFC00000000000001FFFFFE0000000
FFFFC00000000000000FFFFFF0000000
FFFFC000000000000007FFFFF8000000
FFFFC000000000000003FFFFFC000000
FFFFC000000000000001FFFFFE000000
FFFFC000000000000000FFFFFF000000
FFFFC0000000000000007FFFFF800000
FFFFC0000000000000003FFFFFC00000
FFFFC0000000000000003FFFFFE00000
FFFFC0000000000000001FFFFFF00000
FFFFC0000000000000000FFFFFF80000
FFFFC00000000000000007FFFFFC0000
FFFFC00000000000000003FFFFFE0000
FFFFC00000000000000001FFFFFF0000
FFFFC00000000000000000FFFFFF8000
FFFFC000000000000000007FFFFFC000
FFFFC000000000000000003FFFFFE000
FFFFC000000000000000001FFFFFF000
FFFFC000000000000000000FFFFFF800
FFFFC000000000000000000FFFFFFC00
FFFFC0000000000000000007FFFFFE00
FFFFC0000000000000000003FFFFFF00
FFFFC0000000000000000001FFFFFF80
FFFFC0000000000000000000FFFFFFC0
ENDCHAR
STARTCHAR S
ENCODING 83
SWIDTH 880 0
DWIDTH 126 0
BBX 112 104 7 0
BITMAP
0000003FFFFFFFFFFFFFFFFFFFE0
000007FFFFFFFFFFFFFFFFFFFFE0
00003FFFFFFFFFFFFFFFFFFFFFE0
0000FFFFFFFFFFFFFFFFFFFFFFE0
0003FFFFFFFFFFFFFFFFFFFFFFE0
000FFFFFFFFFFFFFFFFFFFFFFFE0
001FFFFFFFFFFFFFFFFFFFFFFFE0
003FFFFFFFFFFFFFFFFFFFFFFFE0
00FFFFFFFFFFFFFFFFFFFFFFFFE0
01FFFFFFFFFFFFFFFFFFFFFFFFE0
01FFFFFFFFFFFFFFFFFFFFFFFFE0
03FFFFFFFFFFFFFFFFFFFFFFFFE0
07FFFFFFFFFFFFFFFFFFFFFFFFE0
0FFFFFFFFFFFFFFFFFFFFFFFFFE0
0FFFFFFFFFFFFFFFFFFFFFFFFFE0
1FFFFFFFFFFFFFFFFFFFFFFFFFE0
1FFFFFFFFFFFFFFFFFFFFFFFFFE0
1FFFFFFFFFFFFFFFFFFFFFFFFFE0
3FFFFFF800000000000000000000
3FFFFFC000000000000000000000
3FFFFF0000000000000000000000
7FFFFE0000000000000000000000
7FFFFC0000000000000000000000
7FFFF80000000000000000000000
7FFFF80000000000000000000000
7FFFF00000000000000000000000
7FFFF00000000000000000000000
FFFFF00000000000000000000000
FFFFE00000000000000000000000
FFFFE00000000000000000000000
FFFFE00000000000000000000000
FFFFE00000000000000000000000
7FFFE00000000000000000000000
7FFFE00000000000000000000000
7FFFF00000000000000000000000
7FFFF00000000000000000000000
7FFFF00000000000000000000000
7FFFF80000000000000000000000
3FFFF80000000000000000000000
3FFFFC0000000000000000000000
3FFFFE0000000000000000000000
1FFFFF0000000000000000000000
1FFFFF8000000000000000000000
0FFFFFF000000000000000000000
0FFFFFFFFFFFFFFFFFFFFF000000
07FFFFFFFFFFFFFFFFFFFFF80000
07FFFFFFFFFFFFFFFFFFFFFF0000
03FFFFFFFFFFFFFFFFFFFFFFC000
01FFFFFFFFFFFFFFFFFFFFFFF000
00FFFFFFFFFFFFFFFFFFFFFFFC00
007FFFFFFFFFFFFFFFFFFFFFFE00
003FFFFFFFFFFFFFFFFFFFFFFF00
001FFFFFFFFFFFFFFFFFFFFFFF80
000FFFFFFFFFFFFFFFFFFFFFFFC0
0003FFFFFFFFFFFFFFFFFFFFFFE0
0000FFFFFFFFFFFFFFFFFFFFFFF0
00003FFFFFFFFFFFFFFFFFFFFFF0
000007FFFFFFFFFFFFFFFFFFFFF8
0000003FFFFFFFFFFFFFFFFFFFF8
0000000000000000000007FFFFFC
0000000000000000000000FFFFFC
00000000000000000000003FFFFC
00000000000000000000001FFFFE
00000000000000000000000FFFFE
000000000000000000000007FFFE
000000000000000000000003FFFF
000000000000000000000003FFFF
000000000000000000000003FFFF
000000000000000000000001FFFF
000000000000000000000001FFFF
000000000000000000000001FFFF
000000000000000000000001FFFF
000000000000000000000001FFFF
000000000000000000000001FFFF
000000000000000000000001FFFF
000000000000000000000001FFFF
000000000000000000000001FFFF
000000000000000000000003FFFF
000000000000000000000003FFFF
000000000000000000000007FFFF
000000000000000000000007FFFF
00000000000000000000000FFFFF
00000000000000000000001FFFFE
00000000000000000000007FFFFE
0000000000000000000000FFFFFE
000000000000000000000FFFFFFC
3FFFFFFFFFFFFFFFFFFFFFFFFFFC
3FFFFFFFFFFFFFFFFFFFFFFFFFFC
3FFFFFFFFFFFFFFFFFFFFFFFFFF8
3FFFFFFFFFFFFFFFFFFFFFFFFFF8
3FFFFFFFFFFFFFFFFFFFFFFFFFF0
3FFFFFFFFFFFFFFFFFFFFFFFFFE0
3FFFFFFFFFFFFFFFFFFFFFFFFFE0
3FFFFFFFFFFFFFFFFFFFFFFFFFC0
3FFFFFFFFFFFFFFFFFFFFFFFFF80
3FFFFFFFFFFFFFFFFFFFFFFFFF00
3FFFFFFFFFFFFFFFFFFFFFFFFE00
3FFFFFFFFFFFFFFFFFFFFFFFFC00
3FFFFFFFFFFFFFFFFFFFFFFFF000
3FFFFFFFFFFFFFFFFFFFFFFFE000
3FFFFFFFFFFFFFFFFFFFFFFF8000
3FFFFFFFFFFFFFFFFFFFFFFE0000
3FFFFFFFFFFFFFFFFFFFFFF00000
3FFFFFFFFFFFFFFFFFFFFE000000
ENDCHAR
STARTCHAR T
ENCODING 84
SWIDTH 720 0
DWIDTH 103 0
BBX 97 104 3 0
BITMAP
FFFFFFFFFFFFFFFFFFFFFFFF80
FFFFFFFFFFFFFFFFFFFFFFFF80
FFFFFFFFFFFFFFFFFFFFFFFF80
FFFFFFFFFFFFFFFFFFFFFFFF80
FFFFFFFFFFFFFFFFFFFFFFFF80
FFFFFFFFFFFFFFFFFFFFFFFF80
FFFFFFFFFFFFFFFFFFFFFFFF80
FFFFFFFFFFFFFFFFFFFFFFFF80
FFFFFFFFFFFFFFFFFFFFFFFF80
FFFFFFFFFFFFFFFFFFFFFFFF80
FFFFFFFFFFFFFFFFFFFFFFFF80
FFFFFFFFFFFFFFFFFFFFFFFF80
FFFFFFFFFFFFFFFFFFFFFFFF80
FFFFFFFFFFFFFFFFFFFFFFFF80
FFFFFFFFFFFFFFFFFFFFFFFF80
FFFFFFFFFFFFFFFFFFFFFFFF80
FFFFFFFFFFFFFFFFFFFFFFFF80
FFFFFFFFFFFFFFFFFFFFFFFF80
0000000001FFFF800000000000
0000000001FFFF800000000000
0000000001FFFF800000000000
0000000001FFFF800000000000
0000000001FFFF800000000000
0000000001FFFF800000000000
0000000001FFFF800000000000
0000000001FFFF800000000000
0000000001FFFF800000000000
0000000001FFFF800000000000
0000000001FFFF800000000000
0000000001FFFF800000000000
0000000001FFFF800000000000
0000000001FFFF800000000000
0000000001FFFF800000000000
0000000001FFFF800000000000
0000000001FFFF800000000000
0000000001FFFF800000000000
0000000001FFFF800000000000
0000000001FFFF800000000000
0000000001FFFF800000000000
0000000001FFFF800000000000
0000000001FFFF800000000000
0000000001FFFF800000000000
0000000001FFFF800000000000
0000000001FFFF800000000000
0000000001FFFF800000000000
0000000001FFFF800000000000
0000000001FFFF800000000000
0000000001FFFF800000000000
0000000001FFFF800000000000
0000000001FFFF800000000000
0000000001FFFF800000000000
0000000001FFFF800000000000
0000000001FFFF800000000000
0000000001FFFF800000000000
0000000001FFFF800000000000
0000000001FFFF800000000000
0000000001FFFF800000000000
0000000001FFFF800000000000
0000000001FFFF800000000000
0000000001FFFF800000000000
0000000001FFFF800000000000
0000000001FFFF800000000000
0000000001FFFF800000000000
0000000001FFFF800000000000
0000000001FFFF800000000000
0000000001FFFF800000000000
0000000001FFFF800000000000
0000000001FFFF800000000000
0000000001FFFF800000000000
0000000001FFFF800000000000
0000000001FFFF800000000000
0000000001FFFF800000000000
0000000001FFFF800000000000
0000000001FFFF800000000000
0000000001FFFF800000000000
0000000001FFFF800000000000
0000000001FFFF800000000000
0000000001FFFF800000000000
0000000001FFFF800000000000
0000000001FFFF800000000000
0000000001FFFF800000000000
0000000001FFFF800000000000
0000000001FFFF800000000000
0000000001FFFF800000000000
0000000001FFFF800000000000
0000000001FFFF800000000000
0000000001FFFF800000000000
0000000001FFFF800000000000
0000000001FFFF800000000000
0000000001FFFF800000000000
0000000001FFFF800000000000
0000000001FFFF800000000000
0000000001FFFF800000000000
0000000001FFFF800000000000
0000000001FFFF800000000000
0000000001FFFF800000000000
0000000001FFFF800000000000
0000000001FFFF800000000000
0000000001FFFF800000000000
0000000001FFFF800000000000
0000000001FFFF800000000000
0000000001FFFF800000000000
0000000001FFFF800000000000
0000000001FFFF800000000000
ENDCHAR
STARTCHAR U
ENCODING 85
SWIDTH 889 0
DWIDTH 127 0
BBX 113 105 7 -1
BITMAP
FFFFE0000000000000000001FFFF80
FFFFE0000000000000000001FFFF80
FFFFE0000000000000000001FFFF80
FFFFE0000000000000000001FFFF80
FFFFE0000000000000000001FFFF80
FFFFE0000000000000000001FFFF80
FFFFE0000000000000000001FFFF80
FFFFE0000000000000000001FFFF80
FFFFE0000000000000000001FFFF80
FFFFE0000000000000000001FFFF80
FFFFE0000000000000000001FFFF80
FFFFE0000000000000000001FFFF80
FFFFE0000000000000000001FFFF80
FFFFE0000000000000000001FFFF80
FFFFE0000000000000000001FFFF80
FFFFE0000000000000000001FFFF80
FFFFE0000000000000000001FFFF80
FFFFE0000000000000000001FFFF80
FFFFE0000000000000000001FFFF80
FFFFE0000000000000000001FFFF80
FFFFE0000000000000000001FFFF80
FFFFE0000000000000000001FFFF80
FFFFE0000000000000000001FFFF80
FFFFE0000000000000000001FFFF80
FFFFE0000000000000000001FFFF80
FFFFE0000000000000000001FFFF80
FFFFE0000000000000000001FFFF80
FFFFE0000000000000000001FFFF80
FFFFE0000000000000000001FFFF80
FFFFE0000000000000000001FFFF80
FFFFE0000000000000000001FFFF80
FFFFE0000000000000000001FFFF80
FFFFE0000000000000000001FFFF80
FFFFE0000000000000000001FFFF80
FFFFE0000000000000000001FFFF80
FFFFE0000000000000000001FFFF80
FFFFE0000000000000000001FFFF80
FFFFE0000000000000000001FFFF80
FFFFE0000000000000000001FFFF80
FFFFE0000000000000000001FFFF80
FFFFE0000000000000000001FFFF80
FFFFE0000000000000000001FFFF80
FFFFE0000000000000000001FFFF80
FFFFE0000000000000000001FFFF80
FFFFE0000000000000000001FFFF80
FFFFE0000000000000000001FFFF80
FFFFE0000000000000000001FFFF80
FFFFE0000000000000000001FFFF80
FFFFE0000000000000000001FFFF80
FFFFE0000000000000000001FFFF80
FFFFE0000000000000000001FFFF80
FFFFE0000000000000000001FFFF80
FFFFE0000000000000000001FFFF80
FFFFE0000000000000000001FFFF80
FFFFE0000000000000000001FFFF80
FFFFE0000000000000000001FFFF80
FFFFE0000000000000000001FFFF80
FFFFE0000000000000000001FFFF80
FFFFE0000000000000000001FFFF80
FFFFE0000000000000000001FFFF80
FFFFE0000000000000000001FFFF80
FFFFE0000000000000000001FFFF80
7FFFE0000000000000000001FFFF80
7FFFE0000000000000000001FFFF80
7FFFF0000000000000000003FFFF00
7FFFF0000000000000000003FFFF00
7FFFF0000000000000000003FFFF00
7FFFF0000000000000000003FFFF00
7FFFF0000000000000000003FFFF00
7FFFF8000000000000000007FFFF00
7FFFF8000000000000000007FFFF00
3FFFF8000000000000000007FFFE00
3FFFFC00000000000000000FFFFE00
3FFFFC00000000000000000FFFFE00
3FFFFE00000000000000001FFFFE00
1FFFFE00000000000000001FFFFE00
1FFFFF00000000000000003FFFFC00
1FFFFF80000000000000007FFFFC00
1FFFFFC000000000000000FFFFFC00
0FFFFFE000000000000001FFFFF800
0FFFFFF000000000000003FFFFF800
07FFFFF800000000000007FFFFF000
07FFFFFE0000000000001FFFFFF000
03FFFFFF8000000000007FFFFFE000
03FFFFFFF00000000003FFFFFFE000
01FFFFFFFF000000003FFFFFFFC000
01FFFFFFFFFF80007FFFFFFFFFC000
00FFFFFFFFFFFFFFFFFFFFFFFF8000
007FFFFFFFFFFFFFFFFFFFFFFF0000
003FFFFFFFFFFFFFFFFFFFFFFF0000
003FFFFFFFFFFFFFFFFFFFFFFE0000
001FFFFFFFFFFFFFFFFFFFFFFC0000
000FFFFFFFFFFFFFFFFFFFFFF80000
0007FFFFFFFFFFFFFFFFFFFFF00000
0001FFFFFFFFFFFFFFFFFFFFC00000
0000FFFFFFFFFFFFFFFFFFFF800000
00007FFFFFFFFFFFFFFFFFFF000000
00001FFFFFFFFFFFFFFFFFFC000000
000007FFFFFFFFFFFFFFFFF0000000
000001FFFFFFFFFFFFFFFFC0000000
0000003FFFFFFFFFFFFFFF00000000
0000000FFFFFFFFFFFFFF800000000
00000000FFFFFFFFFFFF8000000000
0000000007FFFFFFFFF00000000000
000000000007FFFFF0000000000000
ENDCHAR
STARTCHAR V
ENCODING 86
SWIDTH 989 0
DWIDTH 141 0
BBX 137 106 2 -2
BITMAP
FFFFFC00000000000000000000000FFFFF80
7FFFFE00000000000000000000000FFFFF00
7FFFFF00000000000000000000001FFFFF00
3FFFFF00000000000000000000003FFFFE00
1FFFFF80000000000000000000003FFFFE00
1FFFFF80000000000000000000007FFFFC00
0FFFFFC0000000000000000000007FFFF800
0FFFFFE000000000000000000000FFFFF800
07FFFFE000000000000000000001FFFFF000
03FFFFF000000000000000000001FFFFF000
03FFFFF000000000000000000003FFFFE000
01FFFFF800000000000000000003FFFFC000
01FFFFFC00000000000000000007FFFFC000
00FFFFFC0000000000000000000FFFFF8000
007FFFFE0000000000000000000FFFFF8000
007FFFFE0000000000000000001FFFFF0000
003FFFFF0000000000000000001FFFFE0000
003FFFFF0000000000000000003FFFFE0000
001FFFFF8000000000000000003FFFFC0000
000FFFFFC000000000000000007FFFFC0000
000FFFFFC00000000000000000FFFFF80000
0007FFFFE00000000000000000FFFFF00000
0007FFFFE00000000000000001FFFFF00000
0003FFFFF00000000000000001FFFFE00000
0001FFFFF80000000000000003FFFFE00000
0001FFFFF80000000000000007FFFFC00000
0000FFFFFC0000000000000007FFFF800000
0000FFFFFC000000000000000FFFFF800000
00007FFFFE000000000000000FFFFF000000
00003FFFFF000000000000001FFFFF000000
00003FFFFF000000000000003FFFFE000000
00001FFFFF800000000000003FFFFC000000
00001FFFFF800000000000007FFFFC000000
00000FFFFFC00000000000007FFFF8000000
000007FFFFC0000000000000FFFFF8000000
000007FFFFE0000000000000FFFFF0000000
000003FFFFF0000000000001FFFFE0000000
000003FFFFF0000000000003FFFFE0000000
000001FFFFF8000000000003FFFFC0000000
000000FFFFF8000000000007FFFFC0000000
000000FFFFFC000000000007FFFF80000000
0000007FFFFE00000000000FFFFF00000000
0000007FFFFE00000000001FFFFF00000000
0000003FFFFF00000000001FFFFE00000000
0000001FFFFF00000000003FFFFE00000000
0000001FFFFF80000000003FFFFC00000000
0000000FFFFFC0000000007FFFF800000000
0000000FFFFFC0000000007FFFF800000000
00000007FFFFE000000000FFFFF000000000
00000003FFFFE000000001FFFFF000000000
00000003FFFFF000000001FFFFE000000000
00000001FFFFF000000003FFFFC000000000
00000001FFFFF800000003FFFFC000000000
00000000FFFFFC00000007FFFF8000000000
000000007FFFFC0000000FFFFF8000000000
000000007FFFFE0000000FFFFF0000000000
000000003FFFFE0000001FFFFE0000000000
000000003FFFFF0000001FFFFE0000000000
000000001FFFFF8000003FFFFC0000000000
000000000FFFFF8000007FFFFC0000000000
000000000FFFFFC000007FFFF80000000000
0000000007FFFFC00000FFFFF00000000000
0000000007FFFFE00000FFFFF00000000000
0000000003FFFFF00001FFFFE00000000000
0000000001FFFFF00001FFFFE00000000000
0000000001FFFFF80003FFFFC00000000000
0000000000FFFFF80007FFFF800000000000
0000000000FFFFFC0007FFFF800000000000
00000000007FFFFC000FFFFF000000000000
00000000003FFFFE000FFFFE000000000000
00000000003FFFFF001FFFFE000000000000
00000000001FFFFF003FFFFC000000000000
00000000001FFFFF803FFFFC000000000000
00000000000FFFFF807FFFF8000000000000
000000000007FFFFC07FFFF0000000000000
000000000007FFFFE0FFFFF0000000000000
000000000003FFFFE0FFFFE0000000000000
000000000003FFFFF1FFFFE0000000000000
000000000001FFFFF3FFFFC0000000000000
000000000000FFFFFBFFFF80000000000000
000000000000FFFFFFFFFF80000000000000
0000000000007FFFFFFFFF00000000000000
0000000000007FFFFFFFFF00000000000000
0000000000003FFFFFFFFE00000000000000
0000000000001FFFFFFFFC00000000000000
0000000000001FFFFFFFFC00000000000000
0000000000000FFFFFFFF800000000000000
0000000000000FFFFFFFF800000000000000
00000000000007FFFFFFF000000000000000
00000000000003FFFFFFE000000000000000
00000000000003FFFFFFE000000000000000
00000000000001FFFFFFC000000000000000
00000000000001FFFFFFC000000000000000
00000000000000FFFFFF8000000000000000
000000000000007FFFFF0000000000000000
000000000000007FFFFF0000000000000000
000000000000003FFFFE0000000000000000
000000000000003FFFFE0000000000000000
000000000000001FFFFC0000000000000000
000000000000000FFFF80000000000000000
000000000000000FFFF80000000000000000
0000000000000007FFF00000000000000000
0000000000000003FFE00000000000000000
0000000000000001FFC00000000000000000
0000000000000000FF800000000000000000
000000000000000008000000000000000000
ENDCHAR
STARTCHAR W
ENCODING 87
SWIDTH 1268 0
DWIDTH 181 0
BBX 177 105 2 -1
BITMAP
FFFFFC0000000FFFFFE000000000000000000007FFFF80
7FFFFE00000007FFFFE00000000000000000000FFFFF00
7FFFFE00000003FFFFF00000000000000000000FFFFF00
3FFFFF00000003FFFFF00000000000000000001FFFFE00
3FFFFF00000001FFFFF80000000000000000003FFFFE00
1FFFFF80000001FFFFF80000000000000000003FFFFC00
0FFFFF80000000FFFFFC0000000000000000007FFFFC00
0FFFFFC0000000FFFFFC0000000000000000007FFFF800
07FFFFC00000007FFFFE000000000000000000FFFFF800
07FFFFE00000007FFFFE000000000000000000FFFFF000
03FFFFE00000003FFFFF000000000000000001FFFFF000
03FFFFF00000003FFFFF000000000000000001FFFFE000
01FFFFF00000001FFFFF800000000000000003FFFFC000
01FFFFF80000001FFFFF800000000000000003FFFFC000
00FFFFF80000000FFFFFC00000000000000007FFFF8000
00FFFFFC00000007FFFFC00000000000000007FFFF8000
007FFFFC00000007FFFFE0000000000000000FFFFF0000
007FFFFE00000003FFFFE0000000000000000FFFFF0000
003FFFFE00000003FFFFF0000000000000001FFFFE0000
001FFFFF00000001FFFFF0000000000000001FFFFE0000
001FFFFF80000001FFFFF8000000000000003FFFFC0000
000FFFFF80000000FFFFF8000000000000007FFFFC0000
000FFFFFC0000000FFFFFC000000000000007FFFF80000
0007FFFFC00000007FFFFC00000000000000FFFFF00000
0007FFFFE00000007FFFFE00000000000000FFFFF00000
0003FFFFE00000003FFFFE00000000000001FFFFE00000
0003FFFFF00000003FFFFF00000000000001FFFFE00000
0001FFFFF00000001FFFFF00000000000003FFFFC00000
0001FFFFF80000001FFFFF80000000000003FFFFC00000
0000FFFFF80000000FFFFF80000000000007FFFF800000
00007FFFFC0000000FFFFFC0000000000007FFFF800000
00007FFFFC00000007FFFFC000000000000FFFFF000000
00003FFFFE00000007FFFFE000000000000FFFFF000000
00003FFFFE00000003FFFFE000000000001FFFFE000000
00001FFFFF00000003FFFFF000000000001FFFFE000000
00001FFFFF00000001FFFFF000000000003FFFFC000000
00000FFFFF80000001FFFFF800000000003FFFF8000000
00000FFFFF80000000FFFFF800000000007FFFF8000000
000007FFFFC0000000FFFFFC0000000000FFFFF0000000
000007FFFFE00000007FFFFC0000000000FFFFF0000000
000003FFFFE00000003FFFFE0000000001FFFFE0000000
000003FFFFF00000003FFFFE0000000001FFFFE0000000
000001FFFFF00000001FFFFF0000000003FFFFC0000000
000000FFFFF80000001FFFFF0000000003FFFFC0000000
000000FFFFF80000000FFFFF8000000007FFFF80000000
0000007FFFFC0000000FFFFF8000000007FFFF80000000
0000007FFFFC00000007FFFFC00000000FFFFF00000000
0000003FFFFE00000007FFFFC00000000FFFFE00000000
0000003FFFFE00000003FFFFE00000001FFFFE00000000
0000001FFFFF00000003FFFFE00000001FFFFC00000000
0000001FFFFF00000001FFFFF00000003FFFFC00000000
0000000FFFFF80000001FFFFF00000003FFFF800000000
0000000FFFFF80000001FFFFF80000007FFFF800000000
00000007FFFFC0000001FFFFF80000007FFFF000000000
00000007FFFFC0000003FFFFFC000000FFFFF000000000
00000003FFFFE0000003FFFFFC000001FFFFE000000000
00000001FFFFE0000007FFFFFE000001FFFFE000000000
00000001FFFFF000000FFFFFFE000003FFFFC000000000
00000000FFFFF800000FFFFFFF000003FFFFC000000000
00000000FFFFF800001FFFFFFF000007FFFF8000000000
000000007FFFFC00001FFFFFFF800007FFFF0000000000
000000007FFFFC00003FFFFFFF80000FFFFF0000000000
000000003FFFFE00003FFFFFFFC0000FFFFE0000000000
000000003FFFFE00007FFFFFFFC0001FFFFE0000000000
000000001FFFFF0000FFFFFFFFE0001FFFFC0000000000
000000001FFFFF0000FFFFFFFFE0003FFFFC0000000000
000000000FFFFF8001FFFFFFFFF0003FFFF80000000000
0000000007FFFF8001FFFFFFFFF0007FFFF80000000000
0000000007FFFFC003FFFFFFFFF8007FFFF00000000000
0000000003FFFFC003FFFFFFFFF800FFFFF00000000000
0000000003FFFFE007FFFF7FFFFC00FFFFE00000000000
0000000001FFFFE007FFFF3FFFFC01FFFFC00000000000
0000000001FFFFF00FFFFE3FFFFE03FFFFC00000000000
0000000000FFFFF01FFFFC1FFFFE03FFFF800000000000
0000000000FFFFF81FFFFC1FFFFF07FFFF800000000000
00000000007FFFF83FFFF80FFFFF07FFFF000000000000
00000000007FFFFC3FFFF80FFFFF8FFFFF000000000000
00000000003FFFFE7FFFF007FFFF8FFFFE000000000000
00000000003FFFFE7FFFF003FFFFDFFFFE000000000000
00000000001FFFFFFFFFE003FFFFDFFFFC000000000000
00000000000FFFFFFFFFE001FFFFFFFFFC000000000000
00000000000FFFFFFFFFC001FFFFFFFFF8000000000000
000000000007FFFFFFFFC000FFFFFFFFF8000000000000
000000000007FFFFFFFF8000FFFFFFFFF0000000000000
000000000003FFFFFFFF80007FFFFFFFE0000000000000
000000000003FFFFFFFF00007FFFFFFFE0000000000000
000000000001FFFFFFFE00003FFFFFFFC0000000000000
000000000001FFFFFFFE00003FFFFFFFC0000000000000
000000000000FFFFFFFC00001FFFFFFF80000000000000
000000000000FFFFFFFC00001FFFFFFF80000000000000
0000000000007FFFFFF800000FFFFFFF00000000000000
0000000000003FFFFFF800000FFFFFFF00000000000000
0000000000003FFFFFF0000007FFFFFE00000000000000
0000000000001FFFFFF0000003FFFFFE00000000000000
0000000000001FFFFFE0000003FFFFFC00000000000000
0000000000000FFFFFE0000001FFFFF800000000000000
0000000000000FFFFFC0000001FFFFF800000000000000
00000000000007FFFFC0000000FFFFF000000000000000
00000000000007FFFF80000000FFFFF000000000000000
00000000000003FFFF000000007FFFE000000000000000
00000000000003FFFF000000007FFFE000000000000000
00000000000001FFFE000000003FFFC000000000000000
00000000000000FFFC000000001FFF8000000000000000
000000000000003FF8000000000FFE0000000000000000
000000000000000FE00000000001F80000000000000000
ENDCHAR
STARTCHAR X
ENCODING 88
SWIDTH 1000 0
DWIDTH 143 0
BBX 136 104 3 0
BITMAP
0FFFFFFC0000000000000000001FFFFFE0
03FFFFFE0000000000000000003FFFFFC0
01FFFFFF0000000000000000007FFFFF80
00FFFFFF800000000000000000FFFFFF00
007FFFFFC00000000000000001FFFFFE00
003FFFFFE00000000000000003FFFFFC00
001FFFFFF00000000000000007FFFFF800
000FFFFFF8000000000000000FFFFFF000
0007FFFFFC000000000000001FFFFFE000
0003FFFFFE000000000000003FFFFFC000
0001FFFFFF000000000000007FFFFF8000
0000FFFFFF80000000000000FFFFFF0000
00007FFFFFC0000000000001FFFFFC0000
00003FFFFFE0000000000003FFFFF80000
00001FFFFFF0000000000007FFFFF00000
00000FFFFFF800000000000FFFFFE00000
000007FFFFFC00000000001FFFFFC00000
000003FFFFFE00000000003FFFFF800000
000001FFFFFF00000000007FFFFF000000
000000FFFFFF8000000000FFFFFE000000
0000007FFFFFC000000001FFFFFC000000
0000003FFFFFE000000003FFFFF8000000
0000001FFFFFF000000007FFFFF0000000
0000000FFFFFF80000000FFFFFE0000000
00000003FFFFFC0000001FFFFFC0000000
00000001FFFFFE0000003FFFFF80000000
00000000FFFFFF0000007FFFFF00000000
000000007FFFFF800000FFFFFE00000000
000000003FFFFFE00001FFFFFC00000000
000000001FFFFFF00003FFFFF800000000
000000000FFFFFF80007FFFFF000000000
0000000007FFFFFC000FFFFFE000000000
0000000003FFFFFE001FFFFFC000000000
0000000001FFFFFF003FFFFF8000000000
0000000000FFFFFF807FFFFF0000000000
00000000007FFFFFC0FFFFFE0000000000
00000000003FFFFFE1FFFFFC0000000000
00000000001FFFFFF3FFFFF80000000000
00000000000FFFFFFFFFFFF00000000000
000000000007FFFFFFFFFFC00000000000
000000000003FFFFFFFFFF800000000000
000000000001FFFFFFFFFF000000000000
000000000000FFFFFFFFFE000000000000
0000000000007FFFFFFFFC000000000000
0000000000003FFFFFFFF8000000000000
0000000000001FFFFFFFF0000000000000
0000000000000FFFFFFFE0000000000000
00000000000007FFFFFFC0000000000000
00000000000003FFFFFF80000000000000
00000000000001FFFFFF00000000000000
00000000000001FFFFFF00000000000000
00000000000003FFFFFF80000000000000
00000000000007FFFFFFC0000000000000
0000000000000FFFFFFFE0000000000000
0000000000001FFFFFFFF0000000000000
0000000000003FFFFFFFF8000000000000
0000000000007FFFFFFFFE000000000000
000000000000FFFFFFFFFF000000000000
000000000001FFFFFFFFFF800000000000
000000000003FFFFFFFFFFC00000000000
000000000007FFFFFFFFFFE00000000000
00000000000FFFFFFFFFFFF00000000000
00000000001FFFFFCFFFFFF80000000000
00000000003FFFFF87FFFFFC0000000000
00000000007FFFFF03FFFFFE0000000000
0000000000FFFFFE01FFFFFF0000000000
0000000001FFFFFC00FFFFFF8000000000
0000000003FFFFF8007FFFFFC000000000
0000000007FFFFF0003FFFFFE000000000
000000000FFFFFE0001FFFFFF000000000
000000001FFFFFC0000FFFFFF800000000
000000003FFFFF800007FFFFFC00000000
000000007FFFFF000003FFFFFE00000000
00000000FFFFFE000001FFFFFF00000000
00000001FFFFFC000000FFFFFF80000000
00000003FFFFF80000007FFFFFC0000000
0000000FFFFFF00000003FFFFFE0000000
0000001FFFFFE00000001FFFFFF0000000
0000003FFFFFC00000000FFFFFF8000000
0000007FFFFF8000000007FFFFFC000000
000000FFFFFF0000000003FFFFFF000000
000001FFFFFE0000000001FFFFFF800000
000003FFFFFC0000000000FFFFFFC00000
000007FFFFF800000000007FFFFFE00000
00000FFFFFF000000000001FFFFFF00000
00001FFFFFE000000000000FFFFFF80000
00003FFFFFC0000000000007FFFFFC0000
00007FFFFF80000000000003FFFFFE0000
0000FFFFFF00000000000001FFFFFF0000
0001FFFFFC00000000000000FFFFFF8000
0003FFFFF8000000000000007FFFFFC000
0007FFFFF0000000000000003FFFFFE000
000FFFFFE0000000000000001FFFFFF000
001FFFFFC0000000000000000FFFFFF800
003FFFFF800000000000000007FFFFFC00
007FFFFF000000000000000003FFFFFE00
00FFFFFE000000000000000001FFFFFF00
01FFFFFC000000000000000000FFFFFF80
03FFFFF80000000000000000007FFFFFC0
07FFFFF00000000000000000003FFFFFE0
0FFFFFE00000000000000000001FFFFFF0
1FFFFFC00000000000000000000FFFFFF8
3FFFFF8000000000000000000007FFFFFC
FFFFFF0000000000000000000003FFFFFF
ENDCHAR
STARTCHAR Y
ENCODING 89
SWIDTH 926 0
DWIDTH 132 0
BBX 129 104 2 0
BITMAP
FFFFFF800000000000000000007FFFFF80
7FFFFFC0000000000000000000FFFFFE00
3FFFFFC0000000000000000001FFFFFC00
1FFFFFE0000000000000000003FFFFFC00
0FFFFFF0000000000000000003FFFFF800
07FFFFF8000000000000000007FFFFF000
07FFFFFC00000000000000000FFFFFE000
03FFFFFE00000000000000001FFFFFC000
01FFFFFF00000000000000003FFFFF8000
00FFFFFF00000000000000007FFFFF0000
007FFFFF8000000000000000FFFFFF0000
003FFFFFC000000000000000FFFFFE0000
001FFFFFE000000000000001FFFFFC0000
001FFFFFF000000000000003FFFFF80000
000FFFFFF800000000000007FFFFF00000
0007FFFFF80000000000000FFFFFE00000
0003FFFFFC0000000000001FFFFFC00000
0001FFFFFE0000000000001FFFFFC00000
0000FFFFFF0000000000003FFFFF800000
00007FFFFF8000000000007FFFFF000000
00007FFFFFC00000000000FFFFFE000000
00003FFFFFC00000000001FFFFFC000000
00001FFFFFE00000000003FFFFF8000000
00000FFFFFF00000000007FFFFF0000000
000007FFFFF80000000007FFFFF0000000
000003FFFFFC000000000FFFFFE0000000
000001FFFFFE000000001FFFFFC0000000
000001FFFFFF000000003FFFFF80000000
000000FFFFFF000000007FFFFF00000000
0000007FFFFF80000000FFFFFE00000000
0000003FFFFFC0000000FFFFFC00000000
0000001FFFFFE0000001FFFFFC00000000
0000000FFFFFF0000003FFFFF800000000
00000007FFFFF8000007FFFFF000000000
00000007FFFFF800000FFFFFE000000000
00000003FFFFFC00001FFFFFC000000000
00000001FFFFFE00003FFFFF8000000000
00000000FFFFFF00003FFFFF0000000000
000000007FFFFF80007FFFFF0000000000
000000003FFFFFC000FFFFFE0000000000
000000003FFFFFE001FFFFFC0000000000
000000001FFFFFE003FFFFF80000000000
000000000FFFFFF007FFFFF00000000000
0000000007FFFFF807FFFFE00000000000
0000000003FFFFFC0FFFFFC00000000000
0000000001FFFFFE1FFFFFC00000000000
0000000000FFFFFF3FFFFF800000000000
0000000000FFFFFF7FFFFF000000000000
00000000007FFFFFFFFFFE000000000000
00000000003FFFFFFFFFFC000000000000
00000000001FFFFFFFFFF8000000000000
00000000000FFFFFFFFFF0000000000000
000000000007FFFFFFFFF0000000000000
000000000003FFFFFFFFE0000000000000
000000000003FFFFFFFFC0000000000000
000000000001FFFFFFFF80000000000000
000000000000FFFFFFFF00000000000000
0000000000007FFFFFFE00000000000000
0000000000003FFFFFFC00000000000000
0000000000001FFFFFFC00000000000000
0000000000000FFFFFF800000000000000
0000000000000FFFFFF000000000000000
00000000000007FFFFE000000000000000
00000000000003FFFFC000000000000000
00000000000001FFFF8000000000000000
00000000000001FFFF8000000000000000
00000000000001FFFF8000000000000000
00000000000001FFFF8000000000000000
00000000000001FFFF8000000000000000
00000000000001FFFF8000000000000000
00000000000001FFFF8000000000000000
00000000000001FFFF8000000000000000
00000000000001FFFF8000000000000000
00000000000001FFFF8000000000000000
00000000000001FFFF8000000000000000
00000000000001FFFF8000000000000000
00000000000001FFFF8000000000000000
00000000000001FFFF8000000000000000
00000000000001FFFF8000000000000000
00000000000001FFFF8000000000000000
00000000000001FFFF8000000000000000
00000000000001FFFF8000000000000000
00000000000001FFFF8000000000000000
00000000000001FFFF8000000000000000
00000000000001FFFF8000000000000000
00000000000001FFFF8000000000000000
00000000000001FFFF8000000000000000
00000000000001FFFF8000000000000000
00000000000001FFFF8000000000000000
00000000000001FFFF8000000000000000
00000000000001FFFF8000000000000000
00000000000001FFFF8000000000000000
00000000000001FFFF8000000000000000
00000000000001FFFF8000000000000000
00000000000001FFFF8000000000000000
00000000000001FFFF8000000000000000
00000000000001FFFF8000000000000000
00000000000001FFFF8000000000000000
00000000000001FFFF8000000000000000
00000000000001FFFF8000000000000000
00000000000001FFFF8000000000000000
00000000000001FFFF8000000000000000
00000000000001FFFF8000000000000000
00000000000001FFFF8000000000000000
ENDCHAR
STARTCHAR Z
ENCODING 90
SWIDTH 802 0
DWIDTH 115 0
BBX 102 104 6 0
BITMAP
7FFFFFFFFFFFFFFFFFFFFFFE00
7FFFFFFFFFFFFFFFFFFFFFFFC0
7FFFFFFFFFFFFFFFFFFFFFFFE0
7FFFFFFFFFFFFFFFFFFFFFFFF0
7FFFFFFFFFFFFFFFFFFFFFFFF8
7FFFFFFFFFFFFFFFFFFFFFFFFC
7FFFFFFFFFFFFFFFFFFFFFFFFC
7FFFFFFFFFFFFFFFFFFFFFFFFC
7FFFFFFFFFFFFFFFFFFFFFFFFC
7FFFFFFFFFFFFFFFFFFFFFFFFC
7FFFFFFFFFFFFFFFFFFFFFFFFC
7FFFFFFFFFFFFFFFFFFFFFFFFC
7FFFFFFFFFFFFFFFFFFFFFFFFC
7FFFFFFFFFFFFFFFFFFFFFFFF8
7FFFFFFFFFFFFFFFFFFFFFFFF8
7FFFFFFFFFFFFFFFFFFFFFFFF0
7FFFFFFFFFFFFFFFFFFFFFFFE0
000000000000000000FFFFFFC0
000000000000000001FFFFFF80
000000000000000003FFFFFF00
000000000000000007FFFFFE00
00000000000000000FFFFFFC00
00000000000000001FFFFFF800
00000000000000003FFFFFF000
00000000000000007FFFFFE000
0000000000000000FFFFFFC000
0000000000000001FFFFFF8000
0000000000000003FFFFFF0000
0000000000000007FFFFFE0000
000000000000000FFFFFFC0000
000000000000001FFFFFF80000
000000000000003FFFFFF00000
000000000000007FFFFFE00000
00000000000000FFFFFFC00000
00000000000001FFFFFF800000
00000000000003FFFFFF000000
00000000000007FFFFFE000000
0000000000000FFFFFFC000000
0000000000001FFFFFF8000000
0000000000003FFFFFF0000000
0000000000007FFFFFE0000000
000000000000FFFFFFC0000000
000000000001FFFFFF80000000
000000000003FFFFFF00000000
000000000007FFFFFE00000000
00000000000FFFFFFC00000000
00000000001FFFFFF800000000
00000000003FFFFFF000000000
00000000007FFFFFF000000000
0000000000FFFFFFE000000000
0000000001FFFFFFC000000000
0000000003FFFFFF8000000000
0000000007FFFFFF0000000000
000000000FFFFFFE0000000000
000000001FFFFFFC0000000000
000000003FFFFFF80000000000
000000007FFFFFF00000000000
00000000FFFFFFE00000000000
00000001FFFFFFC00000000000
00000001FFFFFF800000000000
00000003FFFFFF000000000000
00000007FFFFFE000000000000
0000000FFFFFFC000000000000
0000001FFFFFF8000000000000
0000003FFFFFF0000000000000
0000007FFFFFE0000000000000
000000FFFFFFC0000000000000
000001FFFFFF80000000000000
000003FFFFFF00000000000000
000007FFFFFE00000000000000
00000FFFFFFC00000000000000
00001FFFFFF800000000000000
00003FFFFFF000000000000000
00007FFFFFE000000000000000
0000FFFFFFC000000000000000
0001FFFFFF8000000000000000
0003FFFFFF0000000000000000
0007FFFFFE0000000000000000
000FFFFFFC0000000000000000
001FFFFFF80000000000000000
003FFFFFF00000000000000000
007FFFFFE00000000000000000
00FFFFFFC00000000000000000
01FFFFFF800000000000000000
03FFFFFF000000000000000000
07FFFFFE000000000000000000
0FFFFFFC000000000000000000
1FFFFFFFFFFFFFFFFFFFFFFFFC
3FFFFFFFFFFFFFFFFFFFFFFFFC
7FFFFFFFFFFFFFFFFFFFFFFFFC
7FFFFFFFFFFFFFFFFFFFFFFFFC
FFFFFFFFFFFFFFFFFFFFFFFFFC
FFFFFFFFFFFFFFFFFFFFFFFFFC
FFFFFFFFFFFFFFFFFFFFFFFFFC
FFFFFFFFFFFFFFFFFFFFFFFFFC
FFFFFFFFFFFFFFFFFFFFFFFFFC
FFFFFFFFFFFFFFFFFFFFFFFFFC
FFFFFFFFFFFFFFFFFFFFFFFFFC
FFFFFFFFFFFFFFFFFFFFFFFFFC
7FFFFFFFFFFFFFFFFFFFFFFFFC
3FFFFFFFFFFFFFFFFFFFFFFFFC
1FFFFFFFFFFFFFFFFFFFFFFFFC
0FFFFFFFFFFFFFFFFFFFFFFFFC
03FFFFFFFFFFFFFFFFFFFFFFFC
ENDCHAR
STARTCHAR bracketleft
ENCODING 91
SWIDTH 333 0
DWIDTH 48 0
BBX 25 131 14 -13
BITMAP
FFFFFF80
FFFFFF80
FFFFFF80
FFFFFF80
FFFFFF80
FFFFFF80
FFFFFF80
FFFFFF80
FFFFFF80
FFFFFF80
FFFFFF80
FFFFFF80
FFF00000
FFF00000
FFF00000
FFF00000
FFF00000
FFF00000
FFF00000
FFF00000
FFF00000
FFF00000
FFF00000
FFF00000
FFF00000
FFF00000
FFF00000
FFF00000
FFF00000
FFF00000
FFF00000
FFF00000
FFF00000
FFF00000
FFF00000
FFF00000
FFF00000
FFF00000
FFF00000
FFF00000
FFF00000
FFF00000
FFF00000
FFF00000
FFF00000
FFF00000
FFF00000
FFF00000
FFF00000
FFF00000
FFF00000
FFF00000
FFF00000
FFF00000
FFF00000
FFF00000
FFF00000
FFF00000
FFF00000
FFF00000
FFF00000
FFF00000
FFF00000
FFF00000
FFF00000
FFF00000
FFF00000
FFF00000
FFF00000
FFF00000
FFF00000
FFF00000
FFF00000
FFF00000
FFF00000
FFF00000
FFF00000
FFF00000
FFF00000
FFF00000
FFF00000
FFF00000
FFF00000
FFF00000
FFF00000
FFF00000
FFF00000
FFF00000
FFF00000
FFF00000
FFF00000
FFF00000
FFF00000
FFF00000
FFF00000
FFF00000
FFF00000
FFF00000
FFF00000
FFF00000
FFF00000
FFF00000
FFF00000
FFF00000
FFF00000
FFF00000
FFF00000
FFF00000
FFF00000
FFF00000
FFF00000
FFF00000
FFF00000
FFF00000
FFF00000
FFF00000
FFF00000
FFF00000
FFF00000
FFFFFF80
FFFFFF80
FFFFFF80
FFFFFF80
FFFFFF80
FFFFFF80
FFFFFF80
FFFFFF80
FFFFFF80
FFFFFF80
FFFFFF80
FFFFFF80
ENDCHAR
STARTCHAR backslash
ENCODING 92
SWIDTH 445 0
DWIDTH 64 0
BBX 61 104 1 0
BITMAP
FFF8000000000000
7FF8000000000000
3FFC000000000000
3FFC000000000000
1FFE000000000000
1FFE000000000000
1FFE000000000000
0FFF000000000000
0FFF000000000000
07FF800000000000
07FF800000000000
03FFC00000000000
03FFC00000000000
01FFE00000000000
01FFE00000000000
00FFF00000000000
00FFF00000000000
007FF80000000000
007FF80000000000
007FFC0000000000
003FFC0000000000
003FFE0000000000
001FFE0000000000
001FFE0000000000
000FFF0000000000
000FFF0000000000
0007FF8000000000
0007FF8000000000
0003FFC000000000
0003FFC000000000
0001FFE000000000
0001FFE000000000
0001FFF000000000
0000FFF000000000
0000FFF800000000
00007FF800000000
00007FFC00000000
00003FFC00000000
00003FFC00000000
00001FFE00000000
00001FFE00000000
00000FFF00000000
00000FFF00000000
000007FF80000000
000007FF80000000
000003FFC0000000
000003FFC0000000
000003FFE0000000
000001FFE0000000
000001FFF0000000
000000FFF0000000
000000FFF8000000
0000007FF8000000
0000007FFC000000
0000003FFC000000
0000003FFC000000
0000001FFE000000
0000001FFE000000
0000000FFF000000
0000000FFF000000
0000000FFF800000
00000007FF800000
00000007FFC00000
00000003FFC00000
00000003FFE00000
00000001FFE00000
00000001FFF00000
00000000FFF00000
00000000FFF80000
000000007FF80000
000000007FF80000
000000003FFC0000
000000003FFC0000
000000003FFE0000
000000001FFE0000
000000001FFF0000
000000000FFF0000
000000000FFF8000
0000000007FF8000
0000000007FFC000
0000000003FFC000
0000000003FFE000
0000000001FFE000
0000000001FFF000
0000000000FFF000
0000000000FFF800
00000000007FF800
00000000007FF800
00000000007FFC00
00000000003FFC00
00000000003FFE00
00000000001FFE00
00000000001FFF00
00000000000FFF00
00000000000FFF80
000000000007FF80
000000000007FFC0
000000000003FFC0
000000000003FFE0
000000000001FFE0
000000000001FFF0
000000000001FFF0
000000000000FFF8
000000000000FFF8
ENDCHAR
STARTCHAR bracketright
ENCODING 93
SWIDTH 333 0
DWIDTH 48 0
BBX 24 131 9 -13
BITMAP
FFFFFF
FFFFFF
FFFFFF
FFFFFF
FFFFFF
FFFFFF
FFFFFF
FFFFFF
FFFFFF
FFFFFF
FFFFFF
FFFFFF
000FFF
000FFF
000FFF
000FFF
000FFF
000FFF
000FFF
000FFF
000FFF
000FFF
000FFF
000FFF
000FFF
000FFF
000FFF
000FFF
000FFF
000FFF
000FFF
000FFF
000FFF
000FFF
000FFF
000FFF
000FFF
000FFF
000FFF
000FFF
000FFF
000FFF
000FFF
000FFF
000FFF
000FFF
000FFF
000FFF
000FFF
000FFF
000FFF
000FFF
000FFF
000FFF
000FFF
000FFF
000FFF
000FFF
000FFF
000FFF
000FFF
000FFF
000FFF
000FFF
000FFF
000FFF
000FFF
000FFF
000FFF
000FFF
000FFF
000FFF
000FFF
000FFF
000FFF
000FFF
000FFF
000FFF
000FFF
000FFF
000FFF
000FFF
000FFF
000FFF
000FFF
000FFF
000FFF
000FFF
000FFF
000FFF
000FFF
000FFF
000FFF
000FFF
000FFF
000FFF
000FFF
000FFF
000FFF
000FFF
000FFF
000FFF
000FFF
000FFF
000FFF
000FFF
000FFF
000FFF
000FFF
000FFF
000FFF
000FFF
000FFF
000FFF
000FFF
000FFF
000FFF
000FFF
000FFF
FFFFFF
FFFFFF
FFFFFF
FFFFFF
FFFFFF
FFFFFF
FFFFFF
FFFFFF
FFFFFF
FFFFFF
FFFFFF
FFFFFF
ENDCHAR
STARTCHAR asciicircum
ENCODING 94
SWIDTH 559 0
DWIDTH 80 0
BBX 62 63 9 41
BITMAP
0000000FC0000000
0000001FE0000000
0000003FF0000000
0000007FF8000000
0000007FFC000000
000000FFFC000000
000000FFFE000000
000001FFFE000000
000001FFFE000000
000003FFFF000000
000003FFFF000000
000003FFFF800000
000007FFFF800000
000007FFFFC00000
00000FFFFFC00000
00000FFFFFC00000
00000FFFFFE00000
00001FFCFFE00000
00001FFCFFF00000
00003FF87FF00000
00003FF87FF00000
00007FF87FF80000
00007FF03FF80000
00007FF03FFC0000
0000FFE01FFC0000
0000FFE01FFE0000
0001FFE01FFE0000
0001FFC00FFE0000
0003FFC00FFF0000
0003FF8007FF0000
0003FF8007FF8000
0007FF8007FF8000
0007FF0003FF8000
000FFF0003FFC000
000FFE0001FFC000
001FFE0001FFE000
001FFE0001FFE000
001FFC0000FFF000
003FFC0000FFF000
003FF800007FF000
007FF800007FF800
007FF800007FF800
00FFF000003FFC00
00FFF000003FFC00
00FFE000001FFC00
01FFE000001FFE00
01FFE000001FFE00
03FFC000000FFF00
03FFC000000FFF00
03FF8000000FFF80
07FF80000007FF80
07FF80000007FF80
0FFF00000003FFC0
0FFF00000003FFC0
1FFE00000003FFE0
1FFE00000001FFE0
1FFE00000001FFE0
3FFC00000000FFF0
3FFC00000000FFF0
7FF800000000FFF8
7FF8000000007FF8
FFF8000000007FFC
FFF0000000003FFC
ENDCHAR
STARTCHAR underscore
ENCODING 95
SWIDTH 668 0
DWIDTH 96 0
BBX 97 8 0 -23
BITMAP
FFFFFFFFFFFFFFFFFFFFFFFF80
FFFFFFFFFFFFFFFFFFFFFFFF80
FFFFFFFFFFFFFFFFFFFFFFFF80
FFFFFFFFFFFFFFFFFFFFFFFF80
FFFFFFFFFFFFFFFFFFFFFFFF80
FFFFFFFFFFFFFFFFFFFFFFFF80
FFFFFFFFFFFFFFFFFFFFFFFF80
FFFFFFFFFFFFFFFFFFFFFFFF80
ENDCHAR
STARTCHAR grave
ENCODING 96
SWIDTH 362 0
DWIDTH 52 0
BBX 36 20 8 110
BITMAP
8000000000
E000000000
FE00000000
FFC0000000
FFF8000000
FFFF800000
FFFFF00000
FFFFFE0000
FFFFFFE000
FFFFFFFC00
FFFFFFFF80
FFFFFFFFF0
1FFFFFFFF0
00FFFFFFF0
0007FFFFF0
00007FFFF0
000003FFF0
0000003FF0
00000001F0
0000000010
ENDCHAR
STARTCHAR a
ENCODING 97
SWIDTH 989 0
DWIDTH 141 0
BBX 137 106 2 0
BITMAP
000000000000000008000000000000000000
0000000000000000FF800000000000000000
0000000000000001FFC00000000000000000
0000000000000003FFE00000000000000000
0000000000000007FFF00000000000000000
000000000000000FFFF80000000000000000
000000000000000FFFF80000000000000000
000000000000001FFFFC0000000000000000
000000000000003FFFFE0000000000000000
000000000000003FFFFE0000000000000000
000000000000007FFFFF0000000000000000
000000000000007FFFFF0000000000000000
00000000000000FFFFFF8000000000000000
00000000000001FFFFFFC000000000000000
00000000000001FFFFFFC000000000000000
00000000000003FFFFFFE000000000000000
00000000000003FFFFFFE000000000000000
00000000000007FFFFFFF000000000000000
0000000000000FFFFFFFF800000000000000
0000000000000FFFFFFFF800000000000000
0000000000001FFFFFFFFC00000000000000
0000000000001FFFFFFFFC00000000000000
0000000000003FFFFFFFFE00000000000000
0000000000007FFFFFFFFF00000000000000
0000000000007FFFFFFFFF00000000000000
000000000000FFFFFFFFFF80000000000000
000000000000FFFFFFFFFF80000000000000
000000000001FFFFEFFFFFC0000000000000
000000000003FFFFE7FFFFE0000000000000
000000000003FFFFC3FFFFE0000000000000
000000000007FFFFC3FFFFF0000000000000
000000000007FFFF81FFFFF0000000000000
00000000000FFFFF01FFFFF8000000000000
00000000001FFFFF00FFFFFC000000000000
00000000001FFFFE007FFFFC000000000000
00000000003FFFFE007FFFFE000000000000
00000000003FFFFC003FFFFE000000000000
00000000007FFFFC003FFFFF000000000000
0000000000FFFFF8001FFFFF800000000000
0000000000FFFFF0000FFFFF800000000000
0000000001FFFFF0000FFFFFC00000000000
0000000001FFFFE00007FFFFC00000000000
0000000003FFFFE00007FFFFE00000000000
0000000007FFFFC00003FFFFF00000000000
0000000007FFFF800001FFFFF00000000000
000000000FFFFF800001FFFFF80000000000
000000000FFFFF000000FFFFFC0000000000
000000001FFFFF0000007FFFFC0000000000
000000003FFFFE0000007FFFFE0000000000
000000003FFFFC0000003FFFFE0000000000
000000007FFFFC0000003FFFFF0000000000
000000007FFFF80000001FFFFF8000000000
00000000FFFFF80000000FFFFF8000000000
00000001FFFFF00000000FFFFFC000000000
00000001FFFFE000000007FFFFC000000000
00000003FFFFE000000007FFFFE000000000
00000003FFFFC000000003FFFFF000000000
00000007FFFFC000000001FFFFF000000000
0000000FFFFF8000000001FFFFF800000000
0000000FFFFF0000000000FFFFF800000000
0000001FFFFF0000000000FFFFFC00000000
0000001FFFFE00000000007FFFFE00000000
0000003FFFFE00000000003FFFFE00000000
0000007FFFFC00000000003FFFFF00000000
0000007FFFF800000000001FFFFF00000000
000000FFFFF8001FFFFFFFFFFFFF80000000
000000FFFFF0003FFFFFFFFFFFFFC0000000
000001FFFFF0003FFFFFFFFFFFFFC0000000
000003FFFFE0007FFFFFFFFFFFFFE0000000
000003FFFFC0007FFFFFFFFFFFFFE0000000
000007FFFFC000FFFFFFFFFFFFFFF0000000
000007FFFF8001FFFFFFFFFFFFFFF8000000
00000FFFFF8001FFFFFFFFFFFFFFF8000000
00001FFFFF0003FFFFFFFFFFFFFFFC000000
00001FFFFE0003FFFFFFFFFFFFFFFC000000
00003FFFFE0007FFFFFFFFFFFFFFFE000000
00003FFFFC0007FFFFFFFFFFFFFFFF000000
00007FFFFC000FFFFFFFFFFFFFFFFF000000
0000FFFFF8001FFFFFFFFFFFFFFFFF800000
0000FFFFF8001FFFFFFFFFFFFFFFFF800000
0001FFFFF0000000000000000FFFFFC00000
0001FFFFE00000000000000007FFFFE00000
0003FFFFE00000000000000007FFFFE00000
0007FFFFC00000000000000003FFFFF00000
0007FFFFC00000000000000001FFFFF00000
000FFFFF800000000000000001FFFFF80000
000FFFFF000000000000000000FFFFFC0000
001FFFFF000000000000000000FFFFFC0000
003FFFFE0000000000000000007FFFFE0000
003FFFFE0000000000000000003FFFFE0000
007FFFFC0000000000000000003FFFFF0000
007FFFF80000000000000000001FFFFF8000
00FFFFF80000000000000000001FFFFF8000
01FFFFF00000000000000000000FFFFFC000
01FFFFF000000000000000000007FFFFC000
03FFFFE000000000000000000007FFFFE000
03FFFFC000000000000000000003FFFFF000
07FFFFC000000000000000000003FFFFF000
0FFFFF8000000000000000000001FFFFF800
0FFFFF8000000000000000000000FFFFF800
1FFFFF0000000000000000000000FFFFFC00
1FFFFE00000000000000000000007FFFFE00
3FFFFE00000000000000000000007FFFFE00
7FFFFC00000000000000000000003FFFFF00
7FFFFC00000000000000000000001FFFFF00
FFFFF800000000000000000000001FFFFF80
ENDCHAR
STARTCHAR b
ENCODING 98
SWIDTH 891 0
DWIDTH 127 0
BBX 112 104 9 0
BITMAP
FFFFFFFFFFFFFFFFFFFFF0000000
FFFFFFFFFFFFFFFFFFFFFF800000
FFFFFFFFFFFFFFFFFFFFFFF00000
FFFFFFFFFFFFFFFFFFFFFFFE0000
FFFFFFFFFFFFFFFFFFFFFFFF8000
FFFFFFFFFFFFFFFFFFFFFFFFC000
FFFFFFFFFFFFFFFFFFFFFFFFF000
FFFFFFFFFFFFFFFFFFFFFFFFF800
FFFFFFFFFFFFFFFFFFFFFFFFFC00
FFFFFFFFFFFFFFFFFFFFFFFFFE00
FFFFFFFFFFFFFFFFFFFFFFFFFF00
FFFFFFFFFFFFFFFFFFFFFFFFFF80
FFFFFFFFFFFFFFFFFFFFFFFFFFC0
FFFFFFFFFFFFFFFFFFFFFFFFFFC0
FFFFFFFFFFFFFFFFFFFFFFFFFFE0
FFFFFFFFFFFFFFFFFFFFFFFFFFE0
FFFFFFFFFFFFFFFFFFFFFFFFFFF0
FFFFFFFFFFFFFFFFFFFFFFFFFFF0
FFFFC00000000000000FFFFFFFF0
FFFFC0000000000000001FFFFFF8
FFFFC00000000000000007FFFFF8
FFFFC00000000000000001FFFFF8
FFFFC00000000000000000FFFFF8
FFFFC000000000000000007FFFF8
FFFFC000000000000000003FFFFC
FFFFC000000000000000003FFFFC
FFFFC000000000000000001FFFFC
FFFFC000000000000000001FFFFC
FFFFC000000000000000001FFFFC
FFFFC000000000000000001FFFFC
FFFFC000000000000000001FFFFC
FFFFC000000000000000001FFFF8
FFFFC000000000000000001FFFF8
FFFFC000000000000000001FFFF8
FFFFC000000000000000001FFFF8
FFFFC000000000000000001FFFF8
FFFFC000000000000000001FFFF0
FFFFC000000000000000003FFFF0
FFFFC000000000000000003FFFF0
FFFFC000000000000000007FFFE0
FFFFC00000000000000000FFFFE0
FFFFC00000000000000001FFFFC0
FFFFC00000000000000007FFFF80
FFFFC0000000000000003FFFFF80
FFFFC001FFFFFFFFFFFFFFFFFF00
FFFFC001FFFFFFFFFFFFFFFFFE00
FFFFC001FFFFFFFFFFFFFFFFF800
FFFFC001FFFFFFFFFFFFFFFFF000
FFFFC001FFFFFFFFFFFFFFFFC000
FFFFC001FFFFFFFFFFFFFFFF0000
FFFFC001FFFFFFFFFFFFFFFFC000
FFFFC001FFFFFFFFFFFFFFFFF000
FFFFC001FFFFFFFFFFFFFFFFF800
FFFFC001FFFFFFFFFFFFFFFFFE00
FFFFC001FFFFFFFFFFFFFFFFFF00
FFFFC001FFFFFFFFFFFFFFFFFF80
FFFFC001FFFFFFFFFFFFFFFFFFC0
FFFFC001FFFFFFFFFFFFFFFFFFE0
FFFFC001FFFFFFFFFFFFFFFFFFE0
FFFFC0000000000000001FFFFFF0
FFFFC00000000000000003FFFFF8
FFFFC00000000000000000FFFFF8
FFFFC000000000000000007FFFFC
FFFFC000000000000000003FFFFC
FFFFC000000000000000001FFFFC
FFFFC000000000000000000FFFFE
FFFFC000000000000000000FFFFE
FFFFC000000000000000000FFFFE
FFFFC0000000000000000007FFFE
FFFFC0000000000000000007FFFE
FFFFC0000000000000000007FFFE
FFFFC0000000000000000007FFFF
FFFFC0000000000000000007FFFF
FFFFC0000000000000000007FFFF
FFFFC0000000000000000007FFFF
FFFFC0000000000000000007FFFE
FFFFC000000000000000000FFFFE
FFFFC000000000000000000FFFFE
FFFFC000000000000000000FFFFE
FFFFC000000000000000001FFFFE
FFFFC000000000000000003FFFFE
FFFFC000000000000000007FFFFE
FFFFC00000000000000001FFFFFC
FFFFC00000000000000007FFFFFC
FFFFC0000000000000001FFFFFFC
FFFFC000000000000007FFFFFFF8
FFFFFFFFFFFFFFFFFFFFFFFFFFF8
FFFFFFFFFFFFFFFFFFFFFFFFFFF0
FFFFFFFFFFFFFFFFFFFFFFFFFFF0
FFFFFFFFFFFFFFFFFFFFFFFFFFE0
FFFFFFFFFFFFFFFFFFFFFFFFFFE0
FFFFFFFFFFFFFFFFFFFFFFFFFFC0
FFFFFFFFFFFFFFFFFFFFFFFFFF80
FFFFFFFFFFFFFFFFFFFFFFFFFF00
FFFFFFFFFFFFFFFFFFFFFFFFFF00
FFFFFFFFFFFFFFFFFFFFFFFFFC00
FFFFFFFFFFFFFFFFFFFFFFFFF800
FFFFFFFFFFFFFFFFFFFFFFFFF000
FFFFFFFFFFFFFFFFFFFFFFFFE000
FFFFFFFFFFFFFFFFFFFFFFFF8000
FFFFFFFFFFFFFFFFFFFFFFFE0000
FFFFFFFFFFFFFFFFFFFFFFF80000
FFFFFFFFFFFFFFFFFFFFFFC00000
FFFFFFFFFFFFFFFFFFFFF8000000
ENDCHAR
STARTCHAR c
ENCODING 99
SWIDTH 829 0
DWIDTH 119 0
BBX 107 104 6 0
BITMAP
00000000001FFFFFFFFFFFFFFFE0
0000000007FFFFFFFFFFFFFFFFE0
000000003FFFFFFFFFFFFFFFFFE0
00000001FFFFFFFFFFFFFFFFFFE0
0000000FFFFFFFFFFFFFFFFFFFE0
0000003FFFFFFFFFFFFFFFFFFFE0
000000FFFFFFFFFFFFFFFFFFFFE0
000001FFFFFFFFFFFFFFFFFFFFE0
000007FFFFFFFFFFFFFFFFFFFFE0
00000FFFFFFFFFFFFFFFFFFFFFE0
00003FFFFFFFFFFFFFFFFFFFFFE0
00007FFFFFFFFFFFFFFFFFFFFFE0
0000FFFFFFFFFFFFFFFFFFFFFFE0
0001FFFFFFFFFFFFFFFFFFFFFFE0
0003FFFFFFFFFFFFFFFFFFFFFFE0
0007FFFFFFFFFFFFFFFFFFFFFFE0
000FFFFFFFFFFFFFFFFFFFFFFFE0
001FFFFFFFFFFFFFFFFFFFFFFFE0
003FFFFFFFFC0000000000000000
003FFFFFFF800000000000000000
007FFFFFFC000000000000000000
00FFFFFFF0000000000000000000
00FFFFFFC0000000000000000000
01FFFFFF00000000000000000000
03FFFFFE00000000000000000000
03FFFFFC00000000000000000000
07FFFFF000000000000000000000
07FFFFE000000000000000000000
0FFFFFC000000000000000000000
0FFFFFC000000000000000000000
0FFFFF8000000000000000000000
1FFFFF0000000000000000000000
1FFFFE0000000000000000000000
1FFFFE0000000000000000000000
3FFFFC0000000000000000000000
3FFFFC0000000000000000000000
3FFFF80000000000000000000000
7FFFF80000000000000000000000
7FFFF00000000000000000000000
7FFFF00000000000000000000000
7FFFF00000000000000000000000
7FFFE00000000000000000000000
7FFFE00000000000000000000000
FFFFE00000000000000000000000
FFFFE00000000000000000000000
FFFFE00000000000000000000000
FFFFC00000000000000000000000
FFFFC00000000000000000000000
FFFFC00000000000000000000000
FFFFC00000000000000000000000
FFFFC00000000000000000000000
FFFFC00000000000000000000000
FFFFC00000000000000000000000
FFFFC00000000000000000000000
FFFFC00000000000000000000000
FFFFC00000000000000000000000
FFFFC00000000000000000000000
FFFFE00000000000000000000000
FFFFE00000000000000000000000
7FFFE00000000000000000000000
7FFFE00000000000000000000000
7FFFE00000000000000000000000
7FFFF00000000000000000000000
7FFFF00000000000000000000000
7FFFF00000000000000000000000
3FFFF80000000000000000000000
3FFFF80000000000000000000000
3FFFF80000000000000000000000
1FFFFC0000000000000000000000
1FFFFC0000000000000000000000
1FFFFE0000000000000000000000
0FFFFF0000000000000000000000
0FFFFF0000000000000000000000
0FFFFF8000000000000000000000
07FFFFC000000000000000000000
07FFFFE000000000000000000000
03FFFFF000000000000000000000
03FFFFF800000000000000000000
01FFFFFC00000000000000000000
01FFFFFE00000000000000000000
00FFFFFF00000000000000000000
007FFFFFC0000000000000000000
007FFFFFF0000000000000000000
003FFFFFFC000000000000000000
001FFFFFFF800000000000000000
001FFFFFFFFC0000000000000000
000FFFFFFFFFFFFFFFFFFFFFFFE0
0007FFFFFFFFFFFFFFFFFFFFFFE0
0003FFFFFFFFFFFFFFFFFFFFFFE0
0001FFFFFFFFFFFFFFFFFFFFFFE0
0000FFFFFFFFFFFFFFFFFFFFFFE0
00007FFFFFFFFFFFFFFFFFFFFFE0
00003FFFFFFFFFFFFFFFFFFFFFE0
00000FFFFFFFFFFFFFFFFFFFFFE0
000007FFFFFFFFFFFFFFFFFFFFE0
000003FFFFFFFFFFFFFFFFFFFFE0
000000FFFFFFFFFFFFFFFFFFFFE0
0000003FFFFFFFFFFFFFFFFFFFE0
0000001FFFFFFFFFFFFFFFFFFFE0
00000007FFFFFFFFFFFFFFFFFFE0
00000000FFFFFFFFFFFFFFFFFFE0
000000003FFFFFFFFFFFFFFFFFE0
0000000003FFFFFFFFFFFFFFFFE0
00000000001FFFFFFFFFFFFFFFE0
ENDCHAR
STARTCHAR d
ENCODING 100
SWIDTH 879 0
DWIDTH 126 0
BBX 111 104 9 0
BITMAP
FFFFFFFFFFFFFFFFF00000000000
FFFFFFFFFFFFFFFFFFC000000000
FFFFFFFFFFFFFFFFFFF800000000
FFFFFFFFFFFFFFFFFFFF00000000
FFFFFFFFFFFFFFFFFFFFC0000000
FFFFFFFFFFFFFFFFFFFFF0000000
FFFFFFFFFFFFFFFFFFFFFC000000
FFFFFFFFFFFFFFFFFFFFFF000000
FFFFFFFFFFFFFFFFFFFFFFC00000
FFFFFFFFFFFFFFFFFFFFFFE00000
FFFFFFFFFFFFFFFFFFFFFFF00000
FFFFFFFFFFFFFFFFFFFFFFFC0000
FFFFFFFFFFFFFFFFFFFFFFFE0000
FFFFFFFFFFFFFFFFFFFFFFFF0000
FFFFFFFFFFFFFFFFFFFFFFFF8000
FFFFFFFFFFFFFFFFFFFFFFFFC000
FFFFFFFFFFFFFFFFFFFFFFFFE000
FFFFFFFFFFFFFFFFFFFFFFFFF000
FFFFC000000000007FFFFFFFF000
FFFFC0000000000003FFFFFFF800
FFFFC00000000000007FFFFFFC00
FFFFC00000000000001FFFFFFC00
FFFFC000000000000007FFFFFE00
FFFFC000000000000003FFFFFF00
FFFFC000000000000000FFFFFF00
FFFFC0000000000000007FFFFF80
FFFFC0000000000000003FFFFF80
FFFFC0000000000000001FFFFFC0
FFFFC0000000000000000FFFFFC0
FFFFC00000000000000007FFFFE0
FFFFC00000000000000003FFFFE0
FFFFC00000000000000001FFFFF0
FFFFC00000000000000001FFFFF0
FFFFC00000000000000000FFFFF0
FFFFC00000000000000000FFFFF8
FFFFC000000000000000007FFFF8
FFFFC000000000000000007FFFF8
FFFFC000000000000000003FFFF8
FFFFC000000000000000003FFFFC
FFFFC000000000000000001FFFFC
FFFFC000000000000000001FFFFC
FFFFC000000000000000001FFFFC
FFFFC000000000000000000FFFFC
FFFFC000000000000000000FFFFC
FFFFC000000000000000000FFFFC
FFFFC000000000000000000FFFFE
FFFFC000000000000000000FFFFE
FFFFC000000000000000000FFFFE
FFFFC0000000000000000007FFFE
FFFFC0000000000000000007FFFE
FFFFC0000000000000000007FFFE
FFFFC0000000000000000007FFFE
FFFFC0000000000000000007FFFE
FFFFC0000000000000000007FFFE
FFFFC0000000000000000007FFFE
FFFFC000000000000000000FFFFE
FFFFC000000000000000000FFFFE
FFFFC000000000000000000FFFFC
FFFFC000000000000000000FFFFC
FFFFC000000000000000000FFFFC
FFFFC000000000000000000FFFFC
FFFFC000000000000000001FFFFC
FFFFC000000000000000001FFFFC
FFFFC000000000000000001FFFFC
FFFFC000000000000000001FFFF8
FFFFC000000000000000003FFFF8
FFFFC000000000000000003FFFF8
FFFFC000000000000000007FFFF8
FFFFC000000000000000007FFFF0
FFFFC00000000000000000FFFFF0
FFFFC00000000000000000FFFFF0
FFFFC00000000000000001FFFFE0
FFFFC00000000000000003FFFFE0
FFFFC00000000000000003FFFFC0
FFFFC00000000000000007FFFFC0
FFFFC0000000000000000FFFFFC0
FFFFC0000000000000001FFFFF80
FFFFC0000000000000003FFFFF80
FFFFC0000000000000007FFFFF00
FFFFC000000000000000FFFFFE00
FFFFC000000000000003FFFFFE00
FFFFC000000000000007FFFFFC00
FFFFC00000000000001FFFFFFC00
FFFFC00000000000007FFFFFF800
FFFFC0000000000003FFFFFFF000
FFFFC000000000007FFFFFFFE000
FFFFFFFFFFFFFFFFFFFFFFFFE000
FFFFFFFFFFFFFFFFFFFFFFFFC000
FFFFFFFFFFFFFFFFFFFFFFFF8000
FFFFFFFFFFFFFFFFFFFFFFFF0000
FFFFFFFFFFFFFFFFFFFFFFFE0000
FFFFFFFFFFFFFFFFFFFFFFFC0000
FFFFFFFFFFFFFFFFFFFFFFF80000
FFFFFFFFFFFFFFFFFFFFFFE00000
FFFFFFFFFFFFFFFFFFFFFFC00000
FFFFFFFFFFFFFFFFFFFFFF800000
FFFFFFFFFFFFFFFFFFFFFE000000
FFFFFFFFFFFFFFFFFFFFF8000000
FFFFFFFFFFFFFFFFFFFFE0000000
FFFFFFFFFFFFFFFFFFFFC0000000
FFFFFFFFFFFFFFFFFFFE00000000
FFFFFFFFFFFFFFFFFFF000000000
FFFFFFFFFFFFFFFFFF8000000000
FFFFFFFFFFFFFFFFE00000000000
ENDCHAR
STARTCHAR e
ENCODING 101
SWIDTH 759 0
DWIDTH 109 0
BBX 93 104 9 0
BITMAP
FFFFFFFFFFFFFFFFFFFFFFF8
FFFFFFFFFFFFFFFFFFFFFFF8
FFFFFFFFFFFFFFFFFFFFFFF8
FFFFFFFFFFFFFFFFFFFFFFF8
FFFFFFFFFFFFFFFFFFFFFFF8
FFFFFFFFFFFFFFFFFFFFFFF8
FFFFFFFFFFFFFFFFFFFFFFF8
FFFFFFFFFFFFFFFFFFFFFFF8
FFFFFFFFFFFFFFFFFFFFFFF8
FFFFFFFFFFFFFFFFFFFFFFF8
FFFFFFFFFFFFFFFFFFFFFFF8
FFFFFFFFFFFFFFFFFFFFFFF8
FFFFFFFFFFFFFFFFFFFFFFF8
FFFFFFFFFFFFFFFFFFFFFFF8
FFFFFFFFFFFFFFFFFFFFFFF8
FFFFFFFFFFFFFFFFFFFFFFF8
FFFFFFFFFFFFFFFFFFFFFFF8
FFFFFFFFFFFFFFFFFFFFFFF8
FFFFC0000000000000000000
FFFFC0000000000000000000
FFFFC0000000000000000000
FFFFC0000000000000000000
FFFFC0000000000000000000
FFFFC0000000000000000000
FFFFC0000000000000000000
FFFFC0000000000000000000
FFFFC0000000000000000000
FFFFC0000000000000000000
FFFFC0000000000000000000
FFFFC0000000000000000000
FFFFC0000000000000000000
FFFFC0000000000000000000
FFFFC0000000000000000000
FFFFC0000000000000000000
FFFFC0000000000000000000
FFFFC0000000000000000000
FFFFC0000000000000000000
FFFFC0000000000000000000
FFFFC0000000000000000000
FFFFC0000000000000000000
FFFFC0000000000000000000
FFFFC0000000000000000000
FFFFC0000000000000000000
FFFFC0000000000000000000
FFFFC001FFFFFFFFFFFFFF80
FFFFC001FFFFFFFFFFFFFF80
FFFFC001FFFFFFFFFFFFFF80
FFFFC001FFFFFFFFFFFFFF80
FFFFC001FFFFFFFFFFFFFF80
FFFFC001FFFFFFFFFFFFFF80
FFFFC001FFFFFFFFFFFFFF80
FFFFC001FFFFFFFFFFFFFF80
FFFFC001FFFFFFFFFFFFFF80
FFFFC001FFFFFFFFFFFFFF80
FFFFC001FFFFFFFFFFFFFF80
FFFFC001FFFFFFFFFFFFFF80
FFFFC001FFFFFFFFFFFFFF80
FFFFC001FFFFFFFFFFFFFF80
FFFFC001FFFFFFFFFFFFFF80
FFFFC0000000000000000000
FFFFC0000000000000000000
FFFFC0000000000000000000
FFFFC0000000000000000000
FFFFC0000000000000000000
FFFFC0000000000000000000
FFFFC0000000000000000000
FFFFC0000000000000000000
FFFFC0000000000000000000
FFFFC0000000000000000000
FFFFC0000000000000000000
FFFFC0000000000000000000
FFFFC0000000000000000000
FFFFC0000000000000000000
FFFFC0000000000000000000
FFFFC0000000000000000000
FFFFC0000000000000000000
FFFFC0000000000000000000
FFFFC0000000000000000000
FFFFC0000000000000000000
FFFFC0000000000000000000
FFFFC0000000000000000000
FFFFC0000000000000000000
FFFFC0000000000000000000
FFFFC0000000000000000000
FFFFC0000000000000000000
FFFFC0000000000000000000
FFFFFFFFFFFFFFFFFFFFFFF8
FFFFFFFFFFFFFFFFFFFFFFF8
FFFFFFFFFFFFFFFFFFFFFFF8
FFFFFFFFFFFFFFFFFFFFFFF8
FFFFFFFFFFFFFFFFFFFFFFF8
FFFFFFFFFFFFFFFFFFFFFFF8
FFFFFFFFFFFFFFFFFFFFFFF8
FFFFFFFFFFFFFFFFFFFFFFF8
FFFFFFFFFFFFFFFFFFFFFFF8
FFFFFFFFFFFFFFFFFFFFFFF8
FFFFFFFFFFFFFFFFFFFFFFF8
FFFFFFFFFFFFFFFFFFFFFFF8
FFFFFFFFFFFFFFFFFFFFFFF8
FFFFFFFFFFFFFFFFFFFFFFF8
FFFFFFFFFFFFFFFFFFFFFFF8
FFFFFFFFFFFFFFFFFFFFFFF8
FFFFFFFFFFFFFFFFFFFFFFF8
FFFFFFFFFFFFFFFFFFFFFFF8
ENDCHAR
STARTCHAR f
ENCODING 102
SWIDTH 705 0
DWIDTH 101 0
BBX 88 104 9 0
BITMAP
FFFFFFFFFFFFFFFFFFFFFF
FFFFFFFFFFFFFFFFFFFFFF
FFFFFFFFFFFFFFFFFFFFFF
FFFFFFFFFFFFFFFFFFFFFF
FFFFFFFFFFFFFFFFFFFFFF
FFFFFFFFFFFFFFFFFFFFFF
FFFFFFFFFFFFFFFFFFFFFF
FFFFFFFFFFFFFFFFFFFFFF
FFFFFFFFFFFFFFFFFFFFFF
FFFFFFFFFFFFFFFFFFFFFF
FFFFFFFFFFFFFFFFFFFFFF
FFFFFFFFFFFFFFFFFFFFFF
FFFFFFFFFFFFFFFFFFFFFF
FFFFFFFFFFFFFFFFFFFFFF
FFFFFFFFFFFFFFFFFFFFFF
FFFFFFFFFFFFFFFFFFFFFF
FFFFFFFFFFFFFFFFFFFFFF
FFFFFFFFFFFFFFFFFFFFFF
FFFFC00000000000000000
FFFFC00000000000000000
FFFFC00000000000000000
FFFFC00000000000000000
FFFFC00000000000000000
FFFFC00000000000000000
FFFFC00000000000000000
FFFFC00000000000000000
FFFFC00000000000000000
FFFFC00000000000000000
FFFFC00000000000000000
FFFFC00000000000000000
FFFFC00000000000000000
FFFFC00000000000000000
FFFFC00000000000000000
FFFFC00000000000000000
FFFFC00000000000000000
FFFFC00000000000000000
FFFFC00000000000000000
FFFFC00000000000000000
FFFFC00000000000000000
FFFFC00000000000000000
FFFFC00000000000000000
FFFFC00000000000000000
FFFFC00000000000000000
FFFFC00000000000000000
FFFFC00000000000000000
FFFFC001FFFFFFFFFFFFF0
FFFFC001FFFFFFFFFFFFF0
FFFFC001FFFFFFFFFFFFF0
FFFFC001FFFFFFFFFFFFF0
FFFFC001FFFFFFFFFFFFF0
FFFFC001FFFFFFFFFFFFF0
FFFFC001FFFFFFFFFFFFF0
FFFFC001FFFFFFFFFFFFF0
FFFFC001FFFFFFFFFFFFF0
FFFFC001FFFFFFFFFFFFF0
FFFFC001FFFFFFFFFFFFF0
FFFFC001FFFFFFFFFFFFF0
FFFFC001FFFFFFFFFFFFF0
FFFFC001FFFFFFFFFFFFF0
FFFFC001FFFFFFFFFFFFF0
FFFFC001FFFFFFFFFFFFF0
FFFFC00000000000000000
FFFFC00000000000000000
FFFFC00000000000000000
FFFFC00000000000000000
FFFFC00000000000000000
FFFFC00000000000000000
FFFFC00000000000000000
FFFFC00000000000000000
FFFFC00000000000000000
FFFFC00000000000000000
FFFFC00000000000000000
FFFFC00000000000000000
FFFFC00000000000000000
FFFFC00000000000000000
FFFFC00000000000000000
FFFFC00000000000000000
FFFFC00000000000000000
FFFFC00000000000000000
FFFFC00000000000000000
FFFFC00000000000000000
FFFFC00000000000000000
FFFFC00000000000000000
FFFFC00000000000000000
FFFFC00000000000000000
FFFFC00000000000000000
FFFFC00000000000000000
FFFFC00000000000000000
FFFFC00000000000000000
FFFFC00000000000000000
FFFFC00000000000000000
FFFFC00000000000000000
FFFFC00000000000000000
FFFFC00000000000000000
FFFFC00000000000000000
FFFFC00000000000000000
FFFFC00000000000000000
FFFFC00000000000000000
FFFFC00000000000000000
FFFFC00000000000000000
FFFFC00000000000000000
FFFFC00000000000000000
FFFFC00000000000000000
FFFFC00000000000000000
ENDCHAR
STARTCHAR g
ENCODING 103
SWIDTH 888 0
DWIDTH 127 0
BBX 113 104 6 0
BITMAP
00000000001FFFFFFFFFFFFFFFE000
0000000007FFFFFFFFFFFFFFFFE000
000000003FFFFFFFFFFFFFFFFFE000
00000001FFFFFFFFFFFFFFFFFFE000
0000000FFFFFFFFFFFFFFFFFFFE000
0000003FFFFFFFFFFFFFFFFFFFE000
000000FFFFFFFFFFFFFFFFFFFFE000
000001FFFFFFFFFFFFFFFFFFFFE000
000007FFFFFFFFFFFFFFFFFFFFE000
00000FFFFFFFFFFFFFFFFFFFFFE000
00003FFFFFFFFFFFFFFFFFFFFFE000
00007FFFFFFFFFFFFFFFFFFFFFE000
0000FFFFFFFFFFFFFFFFFFFFFFE000
0001FFFFFFFFFFFFFFFFFFFFFFE000
0003FFFFFFFFFFFFFFFFFFFFFFE000
0007FFFFFFFFFFFFFFFFFFFFFFE000
000FFFFFFFFFFFFFFFFFFFFFFFE000
001FFFFFFFFFFFFFFFFFFFFFFFE000
003FFFFFFFFC000000000000000000
003FFFFFFF80000000000000000000
007FFFFFFC00000000000000000000
00FFFFFFF000000000000000000000
00FFFFFFC000000000000000000000
01FFFFFF0000000000000000000000
03FFFFFE0000000000000000000000
03FFFFFC0000000000000000000000
07FFFFF00000000000000000000000
07FFFFE00000000000000000000000
0FFFFFC00000000000000000000000
0FFFFFC00000000000000000000000
0FFFFF800000000000000000000000
1FFFFF000000000000000000000000
1FFFFE000000000000000000000000
1FFFFE000000000000000000000000
3FFFFC000000000000000000000000
3FFFFC000000000000000000000000
3FFFF8000000000000000000000000
7FFFF8000000000000000000000000
7FFFF0000000000000000000000000
7FFFF0000000000000000000000000
7FFFF0000000000000000000000000
7FFFE0000000000000000000000000
7FFFE0000000000000000000000000
FFFFE0000000000000000000000000
FFFFE0000000FFFFFFFFFFFFFFFF80
FFFFE0000000FFFFFFFFFFFFFFFF80
FFFFC0000000FFFFFFFFFFFFFFFF80
FFFFC0000000FFFFFFFFFFFFFFFF80
FFFFC0000000FFFFFFFFFFFFFFFF80
FFFFC0000000FFFFFFFFFFFFFFFF80
FFFFC0000000FFFFFFFFFFFFFFFF80
FFFFC0000000FFFFFFFFFFFFFFFF80
FFFFC0000000FFFFFFFFFFFFFFFF80
FFFFC0000000FFFFFFFFFFFFFFFF80
FFFFC0000000FFFFFFFFFFFFFFFF80
FFFFC0000000FFFFFFFFFFFFFFFF80
FFFFC0000000FFFFFFFFFFFFFFFF80
FFFFE0000000FFFFFFFFFFFFFFFF80
FFFFE0000000FFFFFFFFFFFFFFFF80
7FFFE0000000000000000001FFFF80
7FFFE0000000000000000001FFFF80
7FFFE0000000000000000001FFFF80
7FFFF0000000000000000001FFFF80
7FFFF0000000000000000001FFFF80
7FFFF0000000000000000001FFFF80
3FFFF8000000000000000001FFFF80
3FFFF8000000000000000001FFFF80
3FFFF8000000000000000001FFFF80
1FFFFC000000000000000001FFFF80
1FFFFC000000000000000001FFFF80
1FFFFE000000000000000001FFFF80
0FFFFF000000000000000001FFFF80
0FFFFF000000000000000001FFFF80
0FFFFF800000000000000001FFFF80
07FFFFC00000000000000001FFFF80
07FFFFE00000000000000001FFFF80
03FFFFF00000000000000001FFFF80
03FFFFF80000000000000001FFFF80
01FFFFFC0000000000000001FFFF80
01FFFFFE0000000000000001FFFF80
00FFFFFF0000000000000001FFFF80
007FFFFFC000000000000001FFFF80
007FFFFFF000000000000001FFFF80
003FFFFFFC00000000000001FFFF80
001FFFFFFF80000000000001FFFF80
001FFFFFFFFC000000000001FFFF80
000FFFFFFFFFFFFFFFFFFFFFFFFF80
0007FFFFFFFFFFFFFFFFFFFFFFFF80
0003FFFFFFFFFFFFFFFFFFFFFFFF80
0001FFFFFFFFFFFFFFFFFFFFFFFF80
0000FFFFFFFFFFFFFFFFFFFFFFFF80
00007FFFFFFFFFFFFFFFFFFFFFFF80
00003FFFFFFFFFFFFFFFFFFFFFFF80
00000FFFFFFFFFFFFFFFFFFFFFFF80
000007FFFFFFFFFFFFFFFFFFFFFF80
000003FFFFFFFFFFFFFFFFFFFFFF80
000000FFFFFFFFFFFFFFFFFFFFFF80
0000003FFFFFFFFFFFFFFFFFFFFF80
0000001FFFFFFFFFFFFFFFFFFFFF80
00000007FFFFFFFFFFFFFFFFFFFF80
00000000FFFFFFFFFFFFFFFFFFFF80
000000003FFFFFFFFFFFFFFFFFFF80
0000000003FFFFFFFFFFFFFFFFFF80
00000000001FFFFFFFFFFFFFFFFF80
ENDCHAR
STARTCHAR h
ENCODING 104
SWIDTH 838 0
DWIDTH 120 0
BBX 102 104 9 0
BITMAP
FFFFC0000000000000000FFFFC
FFFFC0000000000000000FFFFC
FFFFC0000000000000000FFFFC
FFFFC0000000000000000FFFFC
FFFFC0000000000000000FFFFC
FFFFC0000000000000000FFFFC
FFFFC0000000000000000FFFFC
FFFFC0000000000000000FFFFC
FFFFC0000000000000000FFFFC
FFFFC0000000000000000FFFFC
FFFFC0000000000000000FFFFC
FFFFC0000000000000000FFFFC
FFFFC0000000000000000FFFFC
FFFFC0000000000000000FFFFC
FFFFC0000000000000000FFFFC
FFFFC0000000000000000FFFFC
FFFFC0000000000000000FFFFC
FFFFC0000000000000000FFFFC
FFFFC0000000000000000FFFFC
FFFFC0000000000000000FFFFC
FFFFC0000000000000000FFFFC
FFFFC0000000000000000FFFFC
FFFFC0000000000000000FFFFC
FFFFC0000000000000000FFFFC
FFFFC0000000000000000FFFFC
FFFFC0000000000000000FFFFC
FFFFC0000000000000000FFFFC
FFFFC0000000000000000FFFFC
FFFFC0000000000000000FFFFC
FFFFC0000000000000000FFFFC
FFFFC0000000000000000FFFFC
FFFFC0000000000000000FFFFC
FFFFC0000000000000000FFFFC
FFFFC0000000000000000FFFFC
FFFFC0000000000000000FFFFC
FFFFC0000000000000000FFFFC
FFFFC0000000000000000FFFFC
FFFFC0000000000000000FFFFC
FFFFC0000000000000000FFFFC
FFFFC0000000000000000FFFFC
FFFFC0000000000000000FFFFC
FFFFC0000000000000000FFFFC
FFFFC0000000000000000FFFFC
FFFFC001FFFFFFFFFFFFFFFFFC
FFFFC001FFFFFFFFFFFFFFFFFC
FFFFC001FFFFFFFFFFFFFFFFFC
FFFFC001FFFFFFFFFFFFFFFFFC
FFFFC001FFFFFFFFFFFFFFFFFC
FFFFC001FFFFFFFFFFFFFFFFFC
FFFFC001FFFFFFFFFFFFFFFFFC
FFFFC001FFFFFFFFFFFFFFFFFC
FFFFC001FFFFFFFFFFFFFFFFFC
FFFFC001FFFFFFFFFFFFFFFFFC
FFFFC001FFFFFFFFFFFFFFFFFC
FFFFC001FFFFFFFFFFFFFFFFFC
FFFFC001FFFFFFFFFFFFFFFFFC
FFFFC001FFFFFFFFFFFFFFFFFC
FFFFC001FFFFFFFFFFFFFFFFFC
FFFFC001FFFFFFFFFFFFFFFFFC
FFFFC0000000000000000FFFFC
FFFFC0000000000000000FFFFC
FFFFC0000000000000000FFFFC
FFFFC0000000000000000FFFFC
FFFFC0000000000000000FFFFC
FFFFC0000000000000000FFFFC
FFFFC0000000000000000FFFFC
FFFFC0000000000000000FFFFC
FFFFC0000000000000000FFFFC
FFFFC0000000000000000FFFFC
FFFFC0000000000000000FFFFC
FFFFC0000000000000000FFFFC
FFFFC0000000000000000FFFFC
FFFFC0000000000000000FFFFC
FFFFC0000000000000000FFFFC
FFFFC0000000000000000FFFFC
FFFFC0000000000000000FFFFC
FFFFC0000000000000000FFFFC
FFFFC0000000000000000FFFFC
FFFFC0000000000000000FFFFC
FFFFC0000000000000000FFFFC
FFFFC0000000000000000FFFFC
FFFFC0000000000000000FFFFC
FFFFC0000000000000000FFFFC
FFFFC0000000000000000FFFFC
FFFFC0000000000000000FFFFC
FFFFC0000000000000000FFFFC
FFFFC0000000000000000FFFFC
FFFFC0000000000000000FFFFC
FFFFC0000000000000000FFFFC
FFFFC0000000000000000FFFFC
FFFFC0000000000000000FFFFC
FFFFC0000000000000000FFFFC
FFFFC0000000000000000FFFFC
FFFFC0000000000000000FFFFC
FFFFC0000000000000000FFFFC
FFFFC0000000000000000FFFFC
FFFFC0000000000000000FFFFC
FFFFC0000000000000000FFFFC
FFFFC0000000000000000FFFFC
FFFFC0000000000000000FFFFC
FFFFC0000000000000000FFFFC
FFFFC0000000000000000FFFFC
FFFFC0000000000000000FFFFC
FFFFC0000000000000000FFFFC
ENDCHAR
STARTCHAR i
ENCODING 105
SWIDTH 267 0
DWIDTH 38 0
BBX 18 104 10 0
BITMAP
FFFFC0
FFFFC0
FFFFC0
FFFFC0
FFFFC0
FFFFC0
FFFFC0
FFFFC0
FFFFC0
FFFFC0
FFFFC0
FFFFC0
FFFFC0
FFFFC0
FFFFC0
FFFFC0
FFFFC0
FFFFC0
FFFFC0
FFFFC0
FFFFC0
FFFFC0
FFFFC0
FFFFC0
FFFFC0
FFFFC0
FFFFC0
FFFFC0
FFFFC0
FFFFC0
FFFFC0
FFFFC0
FFFFC0
FFFFC0
FFFFC0
FFFFC0
FFFFC0
FFFFC0
FFFFC0
FFFFC0
FFFFC0
FFFFC0
FFFFC0
FFFFC0
FFFFC0
FFFFC0
FFFFC0
FFFFC0
FFFFC0
FFFFC0
FFFFC0
FFFFC0
FFFFC0
FFFFC0
FFFFC0
FFFFC0
FFFFC0
FFFFC0
FFFFC0
FFFFC0
FFFFC0
FFFFC0
FFFFC0
FFFFC0
FFFFC0
FFFFC0
FFFFC0
FFFFC0
FFFFC0
FFFFC0
FFFFC0
FFFFC0
FFFFC0
FFFFC0
FFFFC0
FFFFC0
FFFFC0
FFFFC0
FFFFC0
FFFFC0
FFFFC0
FFFFC0
FFFFC0
FFFFC0
FFFFC0
FFFFC0
FFFFC0
FFFFC0
FFFFC0
FFFFC0
FFFFC0
FFFFC0
FFFFC0
FFFFC0
FFFFC0
FFFFC0
FFFFC0
FFFFC0
FFFFC0
FFFFC0
FFFFC0
FFFFC0
FFFFC0
FFFFC0
ENDCHAR
STARTCHAR j
ENCODING 106
SWIDTH 708 0
DWIDTH 101 0
BBX 91 104 3 0
BITMAP
0000000000000000007FFFE0
0000000000000000007FFFE0
0000000000000000007FFFE0
0000000000000000007FFFE0
0000000000000000007FFFE0
0000000000000000007FFFE0
0000000000000000007FFFE0
0000000000000000007FFFE0
0000000000000000007FFFE0
0000000000000000007FFFE0
0000000000000000007FFFE0
0000000000000000007FFFE0
0000000000000000007FFFE0
0000000000000000007FFFE0
0000000000000000007FFFE0
0000000000000000007FFFE0
0000000000000000007FFFE0
0000000000000000007FFFE0
0000000000000000007FFFE0
0000000000000000007FFFE0
0000000000000000007FFFE0
0000000000000000007FFFE0
0000000000000000007FFFE0
0000000000000000007FFFE0
0000000000000000007FFFE0
0000000000000000007FFFE0
0000000000000000007FFFE0
0000000000000000007FFFE0
0000000000000000007FFFE0
0000000000000000007FFFE0
0000000000000000007FFFE0
0000000000000000007FFFE0
0000000000000000007FFFE0
0000000000000000007FFFE0
0000000000000000007FFFE0
0000000000000000007FFFE0
0000000000000000007FFFE0
0000000000000000007FFFE0
0000000000000000007FFFE0
0000000000000000007FFFE0
0000000000000000007FFFE0
0000000000000000007FFFE0
0000000000000000007FFFE0
0000000000000000007FFFE0
0000000000000000007FFFE0
0000000000000000007FFFE0
0000000000000000007FFFE0
0000000000000000007FFFE0
0000000000000000007FFFE0
0000000000000000007FFFE0
0000000000000000007FFFE0
0000000000000000007FFFE0
0000000000000000007FFFE0
0000000000000000007FFFE0
0000000000000000007FFFE0
0000000000000000007FFFE0
0000000000000000007FFFE0
0000000000000000007FFFE0
0000000000000000007FFFE0
0000000000000000007FFFE0
000000000000000000FFFFE0
000000000000000000FFFFE0
000000000000000000FFFFE0
000000000000000000FFFFE0
000000000000000000FFFFC0
000000000000000000FFFFC0
000000000000000000FFFFC0
000000000000000001FFFFC0
000000000000000001FFFFC0
000000000000000001FFFFC0
000000000000000003FFFFC0
000000000000000003FFFF80
000000000000000007FFFF80
000000000000000007FFFF80
00000000000000000FFFFF80
00000000000000000FFFFF00
00000000000000001FFFFF00
00000000000000003FFFFF00
00000000000000007FFFFE00
0000000000000000FFFFFE00
0000000000000003FFFFFE00
0000000000000007FFFFFC00
000000000000001FFFFFFC00
00000000000000FFFFFFF800
0000000000000FFFFFFFF800
000000000007FFFFFFFFF000
FFFFFFFFFFFFFFFFFFFFE000
FFFFFFFFFFFFFFFFFFFFE000
FFFFFFFFFFFFFFFFFFFFC000
FFFFFFFFFFFFFFFFFFFF8000
FFFFFFFFFFFFFFFFFFFF0000
FFFFFFFFFFFFFFFFFFFE0000
FFFFFFFFFFFFFFFFFFFC0000
FFFFFFFFFFFFFFFFFFF80000
FFFFFFFFFFFFFFFFFFF00000
FFFFFFFFFFFFFFFFFFC00000
FFFFFFFFFFFFFFFFFF800000
FFFFFFFFFFFFFFFFFE000000
FFFFFFFFFFFFFFFFF8000000
FFFFFFFFFFFFFFFFE0000000
FFFFFFFFFFFFFFFF00000000
FFFFFFFFFFFFFFF000000000
FFFFFFFFFFFFFF0000000000
FFFFFFFFFFFF800000000000
ENDCHAR
STARTCHAR k
ENCODING 107
SWIDTH 875 0
DWIDTH 125 0
BBX 113 104 9 0
BITMAP
FFFFC0000000000000001FFFFFFE00
FFFFC0000000000000007FFFFFF800
FFFFC000000000000000FFFFFFF000
FFFFC000000000000001FFFFFFE000
FFFFC000000000000003FFFFFF8000
FFFFC00000000000000FFFFFFF0000
FFFFC00000000000001FFFFFFE0000
FFFFC00000000000003FFFFFF80000
FFFFC0000000000000FFFFFFF00000
FFFFC0000000000001FFFFFFE00000
FFFFC0000000000003FFFFFF800000
FFFFC000000000000FFFFFFF000000
FFFFC000000000001FFFFFFE000000
FFFFC000000000003FFFFFF8000000
FFFFC000000000007FFFFFF0000000
FFFFC00000000001FFFFFFE0000000
FFFFC00000000003FFFFFF80000000
FFFFC00000000007FFFFFF00000000
FFFFC0000000001FFFFFFC00000000
FFFFC0000000003FFFFFF800000000
FFFFC0000000007FFFFFF000000000
FFFFC000000001FFFFFFC000000000
FFFFC000000003FFFFFF8000000000
FFFFC000000007FFFFFF0000000000
FFFFC00000000FFFFFFC0000000000
FFFFC00000003FFFFFF80000000000
FFFFC00000007FFFFFF00000000000
FFFFC0000000FFFFFFC00000000000
FFFFC0000003FFFFFF800000000000
FFFFC0000007FFFFFF000000000000
FFFFC000000FFFFFFC000000000000
FFFFC000003FFFFFF8000000000000
FFFFC000007FFFFFF0000000000000
FFFFC00000FFFFFFC0000000000000
FFFFC00001FFFFFF80000000000000
FFFFC00007FFFFFF00000000000000
FFFFC0000FFFFFFC00000000000000
FFFFC0001FFFFFF800000000000000
FFFFC0007FFFFFF000000000000000
FFFFC000FFFFFFC000000000000000
FFFFC001FFFFFF8000000000000000
FFFFC007FFFFFF0000000000000000
FFFFC00FFFFFFC0000000000000000
FFFFC01FFFFFF80000000000000000
FFFFC03FFFFFF00000000000000000
FFFFC07FFFFFC00000000000000000
FFFFC07FFFFF800000000000000000
FFFFC0FFFFFF000000000000000000
FFFFC0FFFFFC000000000000000000
FFFFC0FFFFF8000000000000000000
FFFFC0FFFFF0000000000000000000
FFFFC0FFFFF0000000000000000000
FFFFC0FFFFF8000000000000000000
FFFFC0FFFFFE000000000000000000
FFFFC0FFFFFF000000000000000000
FFFFC07FFFFF800000000000000000
FFFFC03FFFFFE00000000000000000
FFFFC01FFFFFF00000000000000000
FFFFC00FFFFFF80000000000000000
FFFFC007FFFFFE0000000000000000
FFFFC003FFFFFF0000000000000000
FFFFC000FFFFFF8000000000000000
FFFFC0007FFFFFE000000000000000
FFFFC0003FFFFFF000000000000000
FFFFC0001FFFFFF800000000000000
FFFFC00007FFFFFE00000000000000
FFFFC00003FFFFFF00000000000000
FFFFC00001FFFFFF80000000000000
FFFFC000007FFFFFE0000000000000
FFFFC000003FFFFFF0000000000000
FFFFC000001FFFFFF8000000000000
FFFFC000000FFFFFFE000000000000
FFFFC0000003FFFFFF000000000000
FFFFC0000001FFFFFF800000000000
FFFFC0000000FFFFFFE00000000000
FFFFC00000007FFFFFF00000000000
FFFFC00000001FFFFFF80000000000
FFFFC00000000FFFFFFC0000000000
FFFFC000000007FFFFFF0000000000
FFFFC000000001FFFFFF8000000000
FFFFC000000000FFFFFFC000000000
FFFFC0000000007FFFFFF000000000
FFFFC0000000003FFFFFF800000000
FFFFC0000000000FFFFFFC00000000
FFFFC00000000007FFFFFF00000000
FFFFC00000000003FFFFFF80000000
FFFFC00000000001FFFFFFC0000000
FFFFC000000000007FFFFFF0000000
FFFFC000000000003FFFFFF8000000
FFFFC000000000001FFFFFFC000000
FFFFC000000000000FFFFFFF000000
FFFFC0000000000003FFFFFF800000
FFFFC0000000000001FFFFFFC00000
FFFFC0000000000000FFFFFFF00000
FFFFC00000000000003FFFFFF80000
FFFFC00000000000001FFFFFFC0000
FFFFC00000000000000FFFFFFF0000
FFFFC000000000000007FFFFFF8000
FFFFC000000000000001FFFFFFC000
FFFFC000000000000000FFFFFFE000
FFFFC0000000000000007FFFFFF800
FFFFC0000000000000003FFFFFFC00
FFFFC0000000000000000FFFFFFE00
FFFFC00000000000000007FFFFFF80
ENDCHAR
STARTCHAR l
ENCODING 108
SWIDTH 707 0
DWIDTH 101 0
BBX 88 104 9 0
BITMAP
FFFFC00000000000000000
FFFFC00000000000000000
FFFFC00000000000000000
FFFFC00000000000000000
FFFFC00000000000000000
FFFFC00000000000000000
FFFFC00000000000000000
FFFFC00000000000000000
FFFFC00000000000000000
FFFFC00000000000000000
FFFFC00000000000000000
FFFFC00000000000000000
FFFFC00000000000000000
FFFFC00000000000000000
FFFFC00000000000000000
FFFFC00000000000000000
FFFFC00000000000000000
FFFFC00000000000000000
FFFFC00000000000000000
FFFFC00000000000000000
FFFFC00000000000000000
FFFFC00000000000000000
FFFFC00000000000000000
FFFFC00000000000000000
FFFFC00000000000000000
FFFFC00000000000000000
FFFFC00000000000000000
FFFFC00000000000000000
FFFFC00000000000000000
FFFFC00000000000000000
FFFFC00000000000000000
FFFFC00000000000000000
FFFFC00000000000000000
FFFFC00000000000000000
FFFFC00000000000000000
FFFFC00000000000000000
FFFFC00000000000000000
FFFFC00000000000000000
FFFFC00000000000000000
FFFFC00000000000000000
FFFFC00000000000000000
FFFFC00000000000000000
FFFFC00000000000000000
FFFFC00000000000000000
FFFFC00000000000000000
FFFFC00000000000000000
FFFFC00000000000000000
FFFFC00000000000000000
FFFFC00000000000000000
FFFFC00000000000000000
FFFFC00000000000000000
FFFFC00000000000000000
FFFFC00000000000000000
FFFFC00000000000000000
FFFFC00000000000000000
FFFFC00000000000000000
FFFFC00000000000000000
FFFFC00000000000000000
FFFFC00000000000000000
FFFFC00000000000000000
FFFFC00000000000000000
FFFFC00000000000000000
FFFFC00000000000000000
FFFFC00000000000000000
FFFFC00000000000000000
FFFFC00000000000000000
FFFFC00000000000000000
FFFFC00000000000000000
FFFFC00000000000000000
FFFFC00000000000000000
FFFFC00000000000000000
FFFFC00000000000000000
FFFFC00000000000000000
FFFFC00000000000000000
FFFFC00000000000000000
FFFFC00000000000000000
FFFFC00000000000000000
FFFFC00000000000000000
FFFFC00000000000000000
FFFFC00000000000000000
FFFFC00000000000000000
FFFFC00000000000000000
FFFFC00000000000000000
FFFFC00000000000000000
FFFFC00000000000000000
FFFFC00000000000000000
FFFFFFFFFFFFFFFFFFFFFF
FFFFFFFFFFFFFFFFFFFFFF
FFFFFFFFFFFFFFFFFFFFFF
FFFFFFFFFFFFFFFFFFFFFF
FFFFFFFFFFFFFFFFFFFFFF
FFFFFFFFFFFFFFFFFFFFFF
FFFFFFFFFFFFFFFFFFFFFF
FFFFFFFFFFFFFFFFFFFFFF
FFFFFFFFFFFFFFFFFFFFFF
FFFFFFFFFFFFFFFFFFFFFF
FFFFFFFFFFFFFFFFFFFFFF
FFFFFFFFFFFFFFFFFFFFFF
FFFFFFFFFFFFFFFFFFFFFF
FFFFFFFFFFFFFFFFFFFFFF
FFFFFFFFFFFFFFFFFFFFFF
FFFFFFFFFFFFFFFFFFFFFF
FFFFFFFFFFFFFFFFFFFFFF
FFFFFFFFFFFFFFFFFFFFFF
ENDCHAR
STARTCHAR m
ENCODING 109
SWIDTH 1115 0
DWIDTH 159 0
BBX 153 106 3 -2
BITMAP
000000007E0000000000000000001F8000000000
00000001FF8000000000000000007FE000000000
00000003FFE00000000000000000FFF000000000
00000007FFF00000000000000001FFF800000000
0000000FFFF00000000000000003FFFC00000000
0000000FFFF80000000000000003FFFC00000000
0000001FFFFC0000000000000007FFFE00000000
0000001FFFFC0000000000000007FFFE00000000
0000001FFFFC000000000000000FFFFE00000000
0000001FFFFE000000000000000FFFFE00000000
0000003FFFFE000000000000001FFFFF00000000
0000003FFFFF000000000000001FFFFF00000000
0000003FFFFF000000000000001FFFFF00000000
0000007FFFFF800000000000003FFFFF80000000
0000007FFFFF800000000000003FFFFF80000000
0000007FFFFF800000000000007FFFFF80000000
0000007FFFFFC00000000000007FFFFF80000000
000000FFFFFFC0000000000000FFFFFFC0000000
000000FFFFFFE0000000000000FFFFFFC0000000
000000FFFFFFE0000000000001FFFFFFC0000000
000000FFFFFFF0000000000001FFFFFFC0000000
000001FFFFFFF0000000000001FFFFFFE0000000
000001FFFFFFF8000000000003FFFFFFE0000000
000001FFFFFFF8000000000003FFFFFFE0000000
000003FFFFFFF8000000000007FFFFFFF0000000
000003FFFFFFFC000000000007FFFFFFF0000000
000003FFFFFFFC00000000000FFFFFFFF0000000
000003FFFFFFFE00000000000FFFFFFFF0000000
000007FFFFFFFE00000000000FFFFFFFF8000000
000007FFFFFFFF00000000001FFFFFFFF8000000
000007FFFFFFFF00000000001FFFFFFFF8000000
00000FFFFFFFFF80000000003FFFFFFFF8000000
00000FFFFFFFFF80000000003FFFEFFFFC000000
00000FFFFDFFFF80000000007FFFEFFFFC000000
00000FFFFDFFFFC0000000007FFFCFFFFC000000
00001FFFF8FFFFC000000000FFFFC7FFFE000000
00001FFFF8FFFFE000000000FFFFC7FFFE000000
00001FFFF87FFFE000000000FFFF87FFFE000000
00001FFFF07FFFF000000001FFFF87FFFE000000
00003FFFF07FFFF000000001FFFF03FFFF000000
00003FFFF03FFFF000000003FFFF03FFFF000000
00003FFFF03FFFF800000003FFFE03FFFF000000
00007FFFE01FFFF800000007FFFE03FFFF800000
00007FFFE01FFFFC00000007FFFE01FFFF800000
00007FFFE00FFFFC0000000FFFFC01FFFF800000
00007FFFC00FFFFE0000000FFFFC01FFFF800000
0000FFFFC007FFFE0000000FFFF800FFFFC00000
0000FFFFC007FFFF0000001FFFF800FFFFC00000
0000FFFFC007FFFF0000001FFFF000FFFFC00000
0001FFFF8003FFFF0000003FFFF000FFFFC00000
0001FFFF8003FFFF8000003FFFE0007FFFE00000
0001FFFF8001FFFF8000007FFFE0007FFFE00000
0001FFFF8001FFFFC000007FFFE0007FFFE00000
0003FFFF0000FFFFC00000FFFFC0007FFFF00000
0003FFFF0000FFFFE00000FFFFC0003FFFF00000
0003FFFF0000FFFFE00000FFFF80003FFFF00000
0003FFFE00007FFFF00001FFFF80003FFFF00000
0007FFFE00007FFFF00001FFFF00001FFFF80000
0007FFFE00003FFFF00003FFFF00001FFFF80000
0007FFFE00003FFFF80003FFFE00001FFFF80000
000FFFFC00001FFFF80007FFFE00001FFFF80000
000FFFFC00001FFFFC0007FFFE00000FFFFC0000
000FFFFC00000FFFFC0007FFFC00000FFFFC0000
000FFFFC00000FFFFE000FFFFC00000FFFFC0000
001FFFF800000FFFFE000FFFF8000007FFFE0000
001FFFF8000007FFFF001FFFF8000007FFFE0000
001FFFF8000007FFFF001FFFF0000007FFFE0000
001FFFF0000003FFFF003FFFF0000007FFFE0000
003FFFF0000003FFFF803FFFE0000003FFFF0000
003FFFF0000001FFFF807FFFE0000003FFFF0000
003FFFF0000001FFFFC07FFFE0000003FFFF0000
007FFFE0000000FFFFC07FFFC0000003FFFF0000
007FFFE0000000FFFFE0FFFFC0000001FFFF8000
007FFFE0000000FFFFE0FFFF80000001FFFF8000
007FFFC00000007FFFE1FFFF80000001FFFF8000
00FFFFC00000007FFFF1FFFF00000000FFFFC000
00FFFFC00000003FFFF3FFFF00000000FFFFC000
00FFFFC00000003FFFFBFFFE00000000FFFFC000
01FFFF800000001FFFFFFFFE00000000FFFFC000
01FFFF800000001FFFFFFFFE000000007FFFE000
01FFFF800000001FFFFFFFFC000000007FFFE000
01FFFF800000000FFFFFFFFC000000007FFFE000
03FFFF000000000FFFFFFFF8000000007FFFF000
03FFFF0000000007FFFFFFF8000000003FFFF000
03FFFF0000000007FFFFFFF0000000003FFFF000
03FFFE0000000003FFFFFFF0000000003FFFF000
07FFFE0000000003FFFFFFF0000000001FFFF800
07FFFE0000000001FFFFFFE0000000001FFFF800
07FFFE0000000001FFFFFFE0000000001FFFF800
0FFFFC0000000001FFFFFFC0000000001FFFF800
0FFFFC0000000000FFFFFFC0000000000FFFFC00
0FFFFC0000000000FFFFFF80000000000FFFFC00
0FFFFC00000000007FFFFF80000000000FFFFC00
1FFFF800000000007FFFFF000000000007FFFE00
1FFFF800000000003FFFFF000000000007FFFE00
1FFFF800000000003FFFFF000000000007FFFE00
3FFFF000000000001FFFFE000000000007FFFE00
3FFFF000000000001FFFFE000000000003FFFF00
3FFFF000000000001FFFFC000000000003FFFF00
3FFFF000000000000FFFFC000000000003FFFF00
7FFFE000000000000FFFF8000000000003FFFF00
7FFFE0000000000007FFF0000000000001FFFF80
7FFFE0000000000003FFF0000000000001FFFF80
FFFFC0000000000001FFE0000000000001FFFF80
000000000000000000FF80000000000000000000
0000000000000000000800000000000000000000
ENDCHAR
STARTCHAR n
ENCODING 110
SWIDTH 873 0
DWIDTH 125 0
BBX 107 104 9 0
BITMAP
03F00000000000000000003FFFE0
0FFC0000000000000000003FFFE0
3FFE0000000000000000003FFFE0
3FFF0000000000000000003FFFE0
7FFF8000000000000000003FFFE0
FFFFC000000000000000003FFFE0
FFFFE000000000000000003FFFE0
FFFFF800000000000000003FFFE0
FFFFFC00000000000000003FFFE0
FFFFFE00000000000000003FFFE0
FFFFFF00000000000000003FFFE0
FFFFFF80000000000000003FFFE0
FFFFFFC0000000000000003FFFE0
FFFFFFE0000000000000003FFFE0
FFFFFFF0000000000000003FFFE0
FFFFFFF8000000000000003FFFE0
FFFFFFFC000000000000003FFFE0
FFFFFFFE000000000000003FFFE0
FFFFFFFF000000000000003FFFE0
FFFFFFFF800000000000003FFFE0
FFFFFFFFC00000000000003FFFE0
FFFFFFFFE00000000000003FFFE0
FFFFFFFFF00000000000003FFFE0
FFFFFFFFF80000000000003FFFE0
FFFFFFFFFC0000000000003FFFE0
FFFFFFFFFE0000000000003FFFE0
FFFFFFFFFF0000000000003FFFE0
FFFFFFFFFF8000000000003FFFE0
FFFFFFFFFFC000000000003FFFE0
FFFFFFFFFFE000000000003FFFE0
FFFFBFFFFFF000000000003FFFE0
FFFF9FFFFFF800000000003FFFE0
FFFF8FFFFFFC00000000003FFFE0
FFFF87FFFFFE00000000003FFFE0
FFFF83FFFFFF00000000003FFFE0
FFFF81FFFFFF80000000003FFFE0
FFFF80FFFFFFC0000000003FFFE0
FFFF803FFFFFE0000000003FFFE0
FFFF801FFFFFF0000000003FFFE0
FFFF800FFFFFF8000000003FFFE0
FFFF8007FFFFFC000000003FFFE0
FFFF8003FFFFFE000000003FFFE0
FFFF8001FFFFFF000000003FFFE0
FFFF8000FFFFFF800000003FFFE0
FFFF80007FFFFFC00000003FFFE0
FFFF80003FFFFFE00000003FFFE0
FFFF80001FFFFFF00000003FFFE0
FFFF80000FFFFFF80000003FFFE0
FFFF800007FFFFFC0000003FFFE0
FFFF800003FFFFFE0000003FFFE0
FFFF800001FFFFFF0000003FFFE0
FFFF800000FFFFFF8000003FFFE0
FFFF8000007FFFFFC000003FFFE0
FFFF8000003FFFFFE000003FFFE0
FFFF8000001FFFFFF000003FFFE0
FFFF8000000FFFFFF800003FFFE0
FFFF80000007FFFFFC00003FFFE0
FFFF80000003FFFFFE00003FFFE0
FFFF80000001FFFFFF00003FFFE0
FFFF80000000FFFFFF80003FFFE0
FFFF800000007FFFFFC0003FFFE0
FFFF800000003FFFFFF0003FFFE0
FFFF800000001FFFFFF8003FFFE0
FFFF800000000FFFFFFC003FFFE0
FFFF8000000007FFFFFE003FFFE0
FFFF8000000003FFFFFF003FFFE0
FFFF8000000001FFFFFF803FFFE0
FFFF8000000000FFFFFFC03FFFE0
FFFF80000000007FFFFFE03FFFE0
FFFF80000000003FFFFFF03FFFE0
FFFF80000000001FFFFFF83FFFE0
FFFF80000000000FFFFFFC3FFFE0
FFFF800000000007FFFFFE3FFFE0
FFFF800000000003FFFFFF3FFFE0
FFFF800000000001FFFFFFBFFFE0
FFFF8000000000007FFFFFFFFFE0
FFFF8000000000003FFFFFFFFFE0
FFFF8000000000001FFFFFFFFFE0
FFFF8000000000000FFFFFFFFFE0
FFFF80000000000007FFFFFFFFE0
FFFF80000000000003FFFFFFFFE0
FFFF80000000000001FFFFFFFFE0
FFFF80000000000000FFFFFFFFE0
FFFF800000000000007FFFFFFFE0
FFFF800000000000003FFFFFFFE0
FFFF800000000000001FFFFFFFE0
FFFF800000000000000FFFFFFFE0
FFFF8000000000000007FFFFFFE0
FFFF8000000000000003FFFFFFE0
FFFF8000000000000001FFFFFFE0
FFFF8000000000000000FFFFFFE0
FFFF80000000000000007FFFFFE0
FFFF80000000000000003FFFFFE0
FFFF80000000000000001FFFFFE0
FFFF80000000000000000FFFFFE0
FFFF800000000000000007FFFFE0
FFFF800000000000000003FFFFE0
FFFF800000000000000001FFFFE0
FFFF800000000000000000FFFFC0
FFFF8000000000000000007FFFC0
FFFF8000000000000000003FFF80
FFFF8000000000000000001FFF00
FFFF80000000000000000007FE00
FFFF80000000000000000001F800
ENDCHAR
STARTCHAR o
ENCODING 111
SWIDTH 968 0
DWIDTH 138 0
BBX 127 104 6 0
BITMAP
00000000001FFFFFFFFFF00000000000
0000000007FFFFFFFFFFFF8000000000
000000003FFFFFFFFFFFFFF800000000
00000001FFFFFFFFFFFFFFFF00000000
0000000FFFFFFFFFFFFFFFFFC0000000
0000003FFFFFFFFFFFFFFFFFF0000000
000000FFFFFFFFFFFFFFFFFFFC000000
000001FFFFFFFFFFFFFFFFFFFF000000
000007FFFFFFFFFFFFFFFFFFFFC00000
00000FFFFFFFFFFFFFFFFFFFFFE00000
00003FFFFFFFFFFFFFFFFFFFFFF00000
00007FFFFFFFFFFFFFFFFFFFFFFC0000
0000FFFFFFFFFFFFFFFFFFFFFFFE0000
0001FFFFFFFFFFFFFFFFFFFFFFFF0000
0003FFFFFFFFFFFFFFFFFFFFFFFF8000
0007FFFFFFFFFFFFFFFFFFFFFFFFC000
000FFFFFFFFFFFFFFFFFFFFFFFFFE000
001FFFFFFFFFFFFFFFFFFFFFFFFFF000
003FFFFFFFFC000000007FFFFFFFF000
003FFFFFFF800000000003FFFFFFF800
007FFFFFFC000000000000FFFFFFFC00
00FFFFFFF00000000000001FFFFFFC00
00FFFFFFC000000000000007FFFFFE00
01FFFFFF0000000000000003FFFFFF00
03FFFFFE0000000000000000FFFFFF00
03FFFFFC00000000000000007FFFFF80
07FFFFF000000000000000003FFFFF80
07FFFFE000000000000000001FFFFFC0
0FFFFFC000000000000000000FFFFFC0
0FFFFFC0000000000000000007FFFFE0
0FFFFF80000000000000000003FFFFE0
1FFFFF00000000000000000001FFFFE0
1FFFFE00000000000000000001FFFFF0
1FFFFE00000000000000000000FFFFF0
3FFFFC00000000000000000000FFFFF0
3FFFFC000000000000000000007FFFF8
3FFFF8000000000000000000007FFFF8
7FFFF8000000000000000000003FFFF8
7FFFF0000000000000000000003FFFF8
7FFFF0000000000000000000001FFFFC
7FFFF0000000000000000000001FFFFC
7FFFE0000000000000000000001FFFFC
7FFFE0000000000000000000001FFFFC
FFFFE0000000000000000000000FFFFC
FFFFE0000000000000000000000FFFFC
FFFFE0000000000000000000000FFFFC
FFFFC0000000000000000000000FFFFE
FFFFC0000000000000000000000FFFFE
FFFFC0000000000000000000000FFFFE
FFFFC0000000000000000000000FFFFE
FFFFC00000000000000000000007FFFE
FFFFC00000000000000000000007FFFE
FFFFC00000000000000000000007FFFE
FFFFC0000000000000000000000FFFFE
FFFFC0000000000000000000000FFFFE
FFFFC0000000000000000000000FFFFE
FFFFC0000000000000000000000FFFFC
FFFFE0000000000000000000000FFFFC
FFFFE0000000000000000000000FFFFC
7FFFE0000000000000000000000FFFFC
7FFFE0000000000000000000000FFFFC
7FFFE0000000000000000000001FFFFC
7FFFF0000000000000000000001FFFFC
7FFFF0000000000000000000001FFFF8
7FFFF0000000000000000000003FFFF8
3FFFF8000000000000000000003FFFF8
3FFFF8000000000000000000003FFFF8
3FFFF8000000000000000000007FFFF0
1FFFFC000000000000000000007FFFF0
1FFFFC00000000000000000000FFFFF0
1FFFFE00000000000000000000FFFFE0
0FFFFF00000000000000000001FFFFE0
0FFFFF00000000000000000003FFFFE0
0FFFFF80000000000000000003FFFFC0
07FFFFC0000000000000000007FFFFC0
07FFFFE000000000000000000FFFFF80
03FFFFF000000000000000001FFFFF80
03FFFFF800000000000000003FFFFF00
01FFFFFC00000000000000007FFFFF00
01FFFFFE0000000000000000FFFFFE00
00FFFFFF0000000000000003FFFFFE00
007FFFFFC000000000000007FFFFFC00
007FFFFFF00000000000001FFFFFF800
003FFFFFFC000000000000FFFFFFF800
001FFFFFFF800000000003FFFFFFF000
001FFFFFFFFC000000007FFFFFFFE000
000FFFFFFFFFFFFFFFFFFFFFFFFFC000
0007FFFFFFFFFFFFFFFFFFFFFFFF8000
0003FFFFFFFFFFFFFFFFFFFFFFFF8000
0001FFFFFFFFFFFFFFFFFFFFFFFF0000
0000FFFFFFFFFFFFFFFFFFFFFFFE0000
00007FFFFFFFFFFFFFFFFFFFFFF80000
00003FFFFFFFFFFFFFFFFFFFFFF00000
00000FFFFFFFFFFFFFFFFFFFFFE00000
000007FFFFFFFFFFFFFFFFFFFFC00000
000003FFFFFFFFFFFFFFFFFFFF000000
000000FFFFFFFFFFFFFFFFFFFE000000
0000003FFFFFFFFFFFFFFFFFF8000000
0000001FFFFFFFFFFFFFFFFFE0000000
00000007FFFFFFFFFFFFFFFF80000000
00000000FFFFFFFFFFFFFFFE00000000
000000003FFFFFFFFFFFFFF000000000
0000000003FFFFFFFFFFFF8000000000
00000000001FFFFFFFFFE00000000000
ENDCHAR
ENDFONT
